<svg width="121" height="120" viewBox="0 0 121 120" fill="none" xmlns="http://www.w3.org/2000/svg">
<path d="M117.5 60C117.5 91.4802 91.9802 117 60.5 117C29.0198 117 3.5 91.4802 3.5 60C3.5 28.5198 29.0198 3 60.5 3C91.9802 3 117.5 28.5198 117.5 60Z" stroke="white" stroke-width="6"/>
<path d="M117.5 60C117.5 91.4802 91.9802 117 60.5 117C29.0198 117 3.5 91.4802 3.5 60C3.5 28.5198 29.0198 3 60.5 3C91.9802 3 117.5 28.5198 117.5 60Z" stroke="url(#paint0_linear)" stroke-opacity="0.6" stroke-width="6"/>
<path fill-rule="evenodd" clip-rule="evenodd" d="M54.7813 30.3639C52.9361 31.8359 51.788 33.9759 51.788 36.7789V39.1705L49.6349 38.1292C48.8572 37.7531 48.0012 37.757 46.6395 37.7632C46.469 37.764 46.2906 37.7648 46.1033 37.7649C43.9426 37.8845 41.0135 38.617 39.0372 40.2738C38.0715 41.0835 37.3501 42.097 37.0138 43.376C36.6786 44.6512 36.6939 46.314 37.4068 48.4766C37.5988 48.9208 38.4383 50.2933 40.279 51.9647C40.5983 50.845 41.0593 49.6259 41.6905 48.5105C42.7558 46.6277 44.6401 44.5 47.5955 44.5H60.6865H63.1271H76.2181C79.1735 44.5 81.0578 46.6277 82.1231 48.5105C82.6884 49.5095 83.1172 50.5917 83.43 51.611C84.0013 51.6765 84.7446 51.7251 85.6734 51.7251C86.4457 51.7251 87.0724 51.2803 87.5255 50.2025C87.9905 49.0963 88.1164 47.594 87.8919 46.2831C87.745 45.4253 87.3798 44.9998 87.0693 44.7716C86.7161 44.512 86.346 44.4462 86.2015 44.4462H81.7893L82.7162 42.3416C83.2232 41.1905 82.932 40.2523 82.2235 39.4249C81.4546 38.527 80.286 37.9114 79.5093 37.7224C78.9402 37.584 78.1074 37.5965 77.1938 37.7247C76.3089 37.8488 75.4961 38.0594 75.0452 38.2057L73.0824 38.8424V36.7789C73.0824 33.9759 71.9343 31.8359 70.0891 30.3639C68.2104 28.8651 65.5255 28 62.4352 28C59.3449 28 56.66 28.8651 54.7813 30.3639ZM86.3136 54.6851C88.3377 54.4266 89.6237 52.9527 90.291 51.3651C91.0143 49.6447 91.1525 47.5493 90.8489 45.7766C90.2747 42.4242 87.631 41.4462 86.2015 41.4462H85.9698C86.0362 39.8801 85.3937 38.5146 84.5021 37.4735C83.2905 36.0586 81.5543 35.1324 80.2184 34.8074C79.0975 34.5347 77.8177 34.6078 76.7771 34.7538C76.4906 34.794 76.2102 34.8415 75.9416 34.8933C75.5033 32.0344 74.0654 29.6983 71.96 28.0187C69.4423 26.0102 66.0536 25 62.4352 25C58.8168 25 55.4281 26.0102 52.9104 28.0187C50.8148 29.6905 49.3805 32.0128 48.935 34.8536C48.1019 34.7414 47.2882 34.7516 46.5828 34.7605C46.4019 34.7627 46.228 34.7649 46.0628 34.7649H46.0236L45.9845 34.767C43.4612 34.8989 39.7816 35.7351 37.1099 37.9749C35.7459 39.1184 34.6305 40.6427 34.1124 42.6132C33.5959 44.5779 33.7058 46.8609 34.577 49.4743L34.5909 49.5162L34.6073 49.5571C34.9308 50.3658 35.8441 51.8099 37.5 53.4605V56.4877H39.7712V58.7976C38.512 59.2256 37.5622 60.0382 36.8998 60.9522C35.9796 62.2219 35.5969 63.6876 35.5078 64.6956L35.5 64.7834V84.2347L35.5368 84.4238C35.6595 85.0552 35.9927 85.8995 36.6403 86.6235C37.3264 87.3906 38.3761 88.0214 39.7712 88.0386V94.4322H51.537V88.039H60.6865H63.1271H72.2766V94.4322H84.0424V88.0386C85.4375 88.0214 86.4872 87.3906 87.1733 86.6235C87.8209 85.8995 88.1541 85.0552 88.2768 84.4238L88.3136 84.2347V64.7834L88.3058 64.6956C88.2167 63.6876 87.834 62.2219 86.9138 60.9522C86.2514 60.0382 85.3016 59.2256 84.0424 58.7976V56.4877H86.3136V54.6851ZM60.6865 84.039H63.1271H83.9839C84.075 84.039 84.1105 84.0218 84.118 84.0182C84.1306 84.0122 84.1558 83.9972 84.1919 83.9568C84.2306 83.9135 84.271 83.8527 84.3049 83.7809L84.3136 83.7619V64.9729C84.2593 64.5142 84.0598 63.8306 83.6749 63.2996C83.3244 62.8159 82.8537 62.4784 82.0424 62.4784H63.1271H60.6865H41.7712C40.9599 62.4784 40.4892 62.8159 40.1387 63.2996C39.7538 63.8306 39.5543 64.5142 39.5 64.9729V83.7619L39.5087 83.7809C39.5426 83.8527 39.583 83.9135 39.6217 83.9568C39.6578 83.9972 39.683 84.0122 39.6956 84.0182C39.7031 84.0218 39.7386 84.039 39.8297 84.039H60.6865ZM60.6865 58.4784H63.1271H80.0424V54.6393C79.8573 53.4785 79.3978 51.8164 78.6418 50.4803C77.8239 49.0349 76.9902 48.5 76.2181 48.5H63.1271H60.6865H47.5955C46.8234 48.5 45.9897 49.0349 45.1718 50.4803C44.4158 51.8164 43.9563 53.4785 43.7712 54.6393V58.4784H60.6865ZM32.5 36.5C33.0523 36.5 33.5 36.0523 33.5 35.5C33.5 34.9477 33.0523 34.5 32.5 34.5C31.9477 34.5 31.5 34.9477 31.5 35.5C31.5 36.0523 31.9477 36.5 32.5 36.5ZM32.5 38.5C34.1569 38.5 35.5 37.1569 35.5 35.5C35.5 33.8431 34.1569 32.5 32.5 32.5C30.8431 32.5 29.5 33.8431 29.5 35.5C29.5 37.1569 30.8431 38.5 32.5 38.5ZM89.5 34.5C89.5 35.0523 89.0523 35.5 88.5 35.5C87.9477 35.5 87.5 35.0523 87.5 34.5C87.5 33.9477 87.9477 33.5 88.5 33.5C89.0523 33.5 89.5 33.9477 89.5 34.5ZM91.5 34.5C91.5 36.1569 90.1569 37.5 88.5 37.5C86.8431 37.5 85.5 36.1569 85.5 34.5C85.5 32.8431 86.8431 31.5 88.5 31.5C90.1569 31.5 91.5 32.8431 91.5 34.5ZM43.7712 88.039V90.4322H47.537V88.039H43.7712ZM80.0424 90.4322V88.039H76.2766V90.4322H80.0424ZM49.0932 73.0085C49.917 73.0085 50.5847 72.3407 50.5847 71.5169C50.5847 70.6932 49.917 70.0254 49.0932 70.0254C48.2695 70.0254 47.6017 70.6932 47.6017 71.5169C47.6017 72.3407 48.2695 73.0085 49.0932 73.0085ZM49.0932 77.0085C52.1261 77.0085 54.5847 74.5498 54.5847 71.5169C54.5847 68.4841 52.1261 66.0254 49.0932 66.0254C46.0603 66.0254 43.6017 68.4841 43.6017 71.5169C43.6017 74.5498 46.0603 77.0085 49.0932 77.0085ZM76.2119 71.5169C76.2119 72.3407 75.5441 73.0085 74.7203 73.0085C73.8966 73.0085 73.2288 72.3407 73.2288 71.5169C73.2288 70.6932 73.8966 70.0254 74.7203 70.0254C75.5441 70.0254 76.2119 70.6932 76.2119 71.5169ZM80.2119 71.5169C80.2119 74.5498 77.7532 77.0085 74.7203 77.0085C71.6875 77.0085 69.2288 74.5498 69.2288 71.5169C69.2288 68.4841 71.6875 66.0254 74.7203 66.0254C77.7532 66.0254 80.2119 68.4841 80.2119 71.5169ZM68.0085 72.9068H55.8051V68.9068H68.0085V72.9068ZM58.856 77.7881H64.9577V73.7881H58.856V77.7881Z" fill="white"/>
<defs>
<linearGradient id="paint0_linear" x1="44.625" y1="120" x2="44.625" y2="0" gradientUnits="userSpaceOnUse">
<stop stop-color="#E1E0E0"/>
<stop offset="1" stop-color="white" stop-opacity="0"/>
</linearGradient>
</defs>
</svg>
