<svg width="66" height="75" viewBox="0 0 66 75" fill="none" xmlns="http://www.w3.org/2000/svg">
<path fill-rule="evenodd" clip-rule="evenodd" d="M34.0607 5.13964L29.1 0.629883L26.4093 3.58964L27.9304 4.97245C12.4076 7.28383 0.5 20.6688 0.5 36.8349C0.5 50.7447 9.31469 62.5907 21.6564 67.1013L23.0295 63.3444C12.2146 59.3918 4.5 49.0117 4.5 36.8349C4.5 23.2537 14.0955 11.9136 26.8769 9.22432L26.4093 9.64939L29.1 12.6092L34.0607 8.0994L35.6886 6.61952L34.0607 5.13964ZM50.8475 37.2702C50.8475 47.2654 42.7449 55.368 32.7497 55.368C22.7546 55.368 14.6519 47.2654 14.6519 37.2702C14.6519 27.2751 22.7546 19.1724 32.7497 19.1724C42.7449 19.1724 50.8475 27.2751 50.8475 37.2702ZM54.8475 37.2702C54.8475 49.4745 44.954 59.368 32.7497 59.368C20.5454 59.368 10.6519 49.4745 10.6519 37.2702C10.6519 25.066 20.5454 15.1724 32.7497 15.1724C44.954 15.1724 54.8475 25.066 54.8475 37.2702ZM36.8226 74.0723L31.8618 69.5626L30.234 68.0827L31.8618 66.6028L36.8226 62.0931L39.5133 65.0528L39.0457 65.4779C51.827 62.7886 61.4225 51.4486 61.4225 37.8674C61.4225 25.6905 53.7079 15.3105 42.8931 11.3579L44.2662 7.60091C56.6079 12.1116 65.4225 23.9575 65.4225 37.8674C65.4225 54.0335 53.515 67.4184 37.9922 69.7298L39.5133 71.1126L36.8226 74.0723ZM34.5799 39.8653C34.9921 40.341 35.1982 40.9963 35.1982 41.8313C35.1982 42.5817 34.9921 43.1737 34.5799 43.607C34.1677 44.0298 33.6022 44.2412 32.8835 44.2412C31.9005 44.2412 31.1395 43.9294 30.6004 43.3058C30.0719 42.6716 29.8077 41.752 29.8077 40.5471H24.4647C24.4647 42.735 25.0777 44.5002 26.3038 45.8425C27.5405 47.1743 29.3109 47.9617 31.6151 48.2048V51.4075H34.136V48.2207C36.1125 48.0304 37.6716 47.3646 38.8131 46.223C39.9652 45.0815 40.5412 43.607 40.5412 41.7996C40.5412 40.732 40.3616 39.8178 40.0022 39.0567C39.6428 38.2957 39.146 37.6298 38.5119 37.0591C37.8777 36.4883 37.1219 35.9809 36.2446 35.537C35.3779 35.0825 34.4531 34.6492 33.4701 34.2369C32.4871 33.8141 31.7736 33.3755 31.3297 32.921C30.8858 32.4559 30.6638 31.8323 30.6638 31.0502C30.6638 30.2786 30.8541 29.6761 31.2346 29.2427C31.6257 28.7988 32.17 28.5768 32.8676 28.5768C33.6498 28.5768 34.2523 28.8728 34.675 29.4647C35.0978 30.0566 35.3092 30.9022 35.3092 32.0014H40.6681C40.6681 29.9932 40.1132 28.339 39.0033 27.0389C37.9041 25.7283 36.3873 24.9303 34.4531 24.6449V21.2362H31.9322V24.5815C29.9239 24.7717 28.3173 25.4482 27.1124 26.6109C25.9074 27.763 25.305 29.2322 25.305 31.0185C25.305 32.086 25.4741 32.995 25.8123 33.7454C26.1505 34.4959 26.6368 35.1565 27.2709 35.7273C27.9051 36.298 28.6609 36.8001 29.5381 37.2335C30.4154 37.6668 31.372 38.0949 32.4078 38.5177C33.4437 38.9405 34.1677 39.3897 34.5799 39.8653Z" fill="#E71A90"/>
</svg>
