<svg width="121" height="120" viewBox="0 0 121 120" fill="none" xmlns="http://www.w3.org/2000/svg">
<path d="M117.5 60C117.5 91.4802 91.9802 117 60.5 117C29.0198 117 3.5 91.4802 3.5 60C3.5 28.5198 29.0198 3 60.5 3C91.9802 3 117.5 28.5198 117.5 60Z" stroke="white" stroke-width="6"/>
<path d="M117.5 60C117.5 91.4802 91.9802 117 60.5 117C29.0198 117 3.5 91.4802 3.5 60C3.5 28.5198 29.0198 3 60.5 3C91.9802 3 117.5 28.5198 117.5 60Z" stroke="url(#paint0_linear)" stroke-opacity="0.6" stroke-width="6"/>
<path fill-rule="evenodd" clip-rule="evenodd" d="M35.6564 50.5373C35.6419 50.2577 35.6506 50.1046 35.6546 50.0458C35.6798 49.995 35.7381 49.8854 35.8554 49.7112C36.0444 49.4306 36.3251 49.0722 36.7111 48.6375C37.4832 47.7678 38.5663 46.716 39.9016 45.5388C42.5654 43.1902 46.0776 40.4785 49.7305 37.9261C53.3855 35.3724 57.1193 33.0216 60.2191 31.376C61.7739 30.5505 63.1134 29.9324 64.1711 29.5515C64.9274 29.2791 65.3719 29.1918 65.5773 29.1612C65.6851 29.2382 65.8318 29.3537 66.0183 29.5187C66.5402 29.9805 67.2151 30.6888 68.0111 31.6422C69.595 33.5391 71.5036 36.2194 73.4283 39.3623C76.8345 44.9245 80.1443 51.6954 81.8212 57.8669L78.1708 51.5443C76.8117 49.1903 73.8017 48.3838 71.4477 49.7429C71.1558 49.9114 70.8877 50.1053 70.6445 50.3203L68.1345 45.9727C66.7754 43.6188 63.7654 42.8122 61.4114 44.1713C60.9688 44.4268 60.5809 44.7407 60.2519 45.0976C58.5778 43.9013 56.292 43.7172 54.3939 44.813C51.9184 46.2423 50.9986 49.3314 52.2289 51.8629C51.9165 51.9666 51.61 52.1033 51.3138 52.2743C48.9598 53.6334 48.1532 56.6434 49.5123 58.9974L56.8371 71.6843C54.4216 70.3004 51.3354 71.1284 49.9398 73.5457C48.6599 75.7624 49.2368 78.5857 51.2836 80.1227L59.0912 85.9858C58.7623 86.2411 58.4043 86.5135 58.022 86.7967C56.1511 88.1826 53.784 89.7625 51.438 90.8843C51.3777 90.8321 51.3081 90.7684 51.2293 90.6908C50.5449 90.0173 49.6605 88.8038 48.6331 87.0442C46.6061 83.5728 44.3645 78.577 42.3043 73.2575C40.2513 67.9563 38.4188 62.4388 37.1928 57.9709C36.5786 55.7325 36.1286 53.8005 35.8756 52.3125C35.7488 51.5666 35.6791 50.9755 35.6564 50.5373ZM63.3459 89.1809C62.7464 89.6676 61.977 90.2735 61.0862 90.9334C58.934 92.5277 55.9716 94.5131 52.9328 95.8637C51.7889 96.3721 50.652 96.2261 49.7574 95.8555C48.9177 95.5076 48.2025 94.9349 47.6183 94.3599C46.4445 93.2047 45.2874 91.5237 44.1875 89.64C41.9598 85.8249 39.6037 80.5389 37.5038 75.1166C35.3967 69.676 33.5067 63.9918 32.2284 59.3332C31.5904 57.0083 31.0929 54.8959 30.8004 53.1752C30.6545 52.3167 30.5521 51.5124 30.5153 50.8037C30.4816 50.1541 30.4875 49.3526 30.7011 48.6212C31.0555 47.4078 31.9849 46.2068 32.8615 45.2195C33.8253 44.134 35.0778 42.9286 36.4971 41.6772C39.3426 39.1685 43.0162 36.3374 46.782 33.7062C50.5458 31.0764 54.4637 28.603 57.8051 26.829C59.4709 25.9446 61.0494 25.2041 62.4267 24.708C63.6701 24.2602 65.2046 23.8349 66.5644 24.0641C67.2376 24.1776 67.8031 24.4758 68.1969 24.7222C68.6219 24.9881 69.0368 25.3156 69.4299 25.6635C70.2169 26.3599 71.076 27.2807 71.9627 28.3428C73.7445 30.4767 75.7967 33.3724 77.8185 36.6738C81.8374 43.2365 85.9233 51.7093 87.4592 59.3391L90.3399 73.1614L89.332 73.3715C90.2336 77.6724 89.5823 81.3901 87.7716 84.4563C84.977 89.1884 79.7199 91.8372 74.7323 92.7723C70.6749 93.533 66.875 91.8311 63.9846 89.6605L63.3459 89.1809ZM84.7757 71.6952L85.3002 74.2118L85.4808 74.1741C86.2098 77.6642 85.6024 80.3864 84.3813 82.4542C82.3559 85.8839 78.3119 88.0952 74.0067 88.9024C71.4881 89.3746 68.8085 88.3592 66.3489 86.5121L53.6479 76.9743C53.1935 76.6331 53.0655 76.0064 53.3496 75.5143C53.6615 74.974 54.3541 74.7914 54.8919 75.1077L60.8601 78.6785L64.3052 76.7099L64.2162 76.65L64.2419 76.6352L52.9221 57.0288C52.6503 56.558 52.8116 55.956 53.2824 55.6841C53.7532 55.4123 54.3552 55.5736 54.627 56.0444L61.5174 67.9788L62.7477 70.1099L66.1575 68.1412L64.9272 66.0101L58.0368 54.0758L55.8221 50.2397C55.4144 49.5335 55.6564 48.6305 56.3626 48.2228C57.0688 47.8151 57.9718 48.0571 58.3795 48.7632L59.6099 50.8944L66.2352 62.3697L68.961 67.091L72.3708 65.1223L69.645 60.401L63.0197 48.9257C62.7479 48.4549 62.9092 47.8529 63.38 47.5811C63.8508 47.3093 64.4528 47.4706 64.7246 47.9414L69.6463 56.4659L72.8264 61.9741L74.1328 64.2368L77.5426 62.2682L76.2362 60.0054L73.0561 54.4973C72.7843 54.0265 72.9456 53.4245 73.4164 53.1527C73.8872 52.8808 74.4892 53.0422 74.761 53.513L82.6356 67.1522C83.5734 68.7765 84.275 70.289 84.7757 71.6952ZM65.4042 29.0508C65.4042 29.0506 65.4091 29.0528 65.4192 29.0584C65.4093 29.0539 65.4043 29.0511 65.4042 29.0508Z" fill="white"/>
<defs>
<linearGradient id="paint0_linear" x1="44.625" y1="120" x2="44.625" y2="0" gradientUnits="userSpaceOnUse">
<stop stop-color="#E1E0E0"/>
<stop offset="1" stop-color="white" stop-opacity="0"/>
</linearGradient>
</defs>
</svg>
