<svg width="121" height="120" viewBox="0 0 121 120" fill="none" xmlns="http://www.w3.org/2000/svg">
<path d="M117.5 60C117.5 91.4802 91.9802 117 60.5 117C29.0198 117 3.5 91.4802 3.5 60C3.5 28.5198 29.0198 3 60.5 3C91.9802 3 117.5 28.5198 117.5 60Z" stroke="#E71A90" stroke-width="6"/>
<path fill-rule="evenodd" clip-rule="evenodd" d="M61.5607 28.1399L56.6 23.6301L53.9093 26.5899L55.4304 27.9727C39.9076 30.2841 28 43.669 28 59.8351C28 73.7449 36.8147 85.5909 49.1564 90.1016L50.5295 86.3446C39.7146 82.392 32 72.012 32 59.8351C32 46.2539 41.5955 34.9138 54.3769 32.2246L53.9093 32.6496L56.6 35.6094L61.5607 31.0996L63.1886 29.6198L61.5607 28.1399ZM78.3475 60.2705C78.3475 70.2656 70.2449 78.3683 60.2497 78.3683C50.2546 78.3683 42.1519 70.2656 42.1519 60.2705C42.1519 50.2753 50.2546 42.1727 60.2497 42.1727C70.2449 42.1727 78.3475 50.2753 78.3475 60.2705ZM82.3475 60.2705C82.3475 72.4748 72.454 82.3683 60.2497 82.3683C48.0454 82.3683 38.1519 72.4748 38.1519 60.2705C38.1519 48.0662 48.0454 38.1727 60.2497 38.1727C72.454 38.1727 82.3475 48.0662 82.3475 60.2705ZM64.3226 97.0726L59.3618 92.5628L57.734 91.083L59.3618 89.6031L64.3226 85.0933L67.0133 88.0531L66.5457 88.4782C79.327 85.7889 88.9225 74.4488 88.9225 60.8676C88.9225 48.6908 81.2079 38.3107 70.3931 34.3581L71.7662 30.6012C84.1079 35.1118 92.9225 46.9578 92.9225 60.8676C92.9225 77.0337 81.015 90.4186 65.4922 92.73L67.0133 94.1128L64.3226 97.0726ZM62.0799 62.8656C62.4921 63.3412 62.6982 63.9965 62.6982 64.8315C62.6982 65.582 62.4921 66.1739 62.0799 66.6073C61.6677 67.03 61.1022 67.2414 60.3835 67.2414C59.4005 67.2414 58.6395 66.9296 58.1004 66.306C57.5719 65.6718 57.3077 64.7523 57.3077 63.5473H51.9647C51.9647 65.7353 52.5777 67.5004 53.8038 68.8428C55.0405 70.1745 56.8109 70.962 59.1151 71.2051V74.4077H61.636V71.2209C63.6125 71.0307 65.1716 70.3648 66.3131 69.2233C67.4652 68.0817 68.0412 66.6073 68.0412 64.7998C68.0412 63.7323 67.8616 62.818 67.5022 62.057C67.1428 61.296 66.646 60.6301 66.0119 60.0593C65.3777 59.4885 64.6219 58.9812 63.7446 58.5373C62.8779 58.0828 61.9531 57.6494 60.9701 57.2372C59.9871 56.8144 59.2736 56.3758 58.8297 55.9212C58.3858 55.4562 58.1638 54.8326 58.1638 54.0504C58.1638 53.2788 58.3541 52.6763 58.7346 52.243C59.1257 51.7991 59.67 51.5771 60.3676 51.5771C61.1498 51.5771 61.7523 51.873 62.175 52.4649C62.5978 53.0569 62.8092 53.9024 62.8092 55.0017H68.1681C68.1681 52.9934 67.6132 51.3393 66.5033 50.0392C65.4041 48.7285 63.8873 47.9305 61.9531 47.6451V44.2364H59.4322V47.5817C57.4239 47.772 55.8173 48.4484 54.6124 49.6111C53.4074 50.7632 52.805 52.2324 52.805 54.0187C52.805 55.0862 52.9741 55.9952 53.3123 56.7457C53.6505 57.4961 54.1368 58.1567 54.7709 58.7275C55.4051 59.2983 56.1609 59.8003 57.0381 60.2337C57.9154 60.6671 58.872 61.0951 59.9078 61.5179C60.9437 61.9407 61.6677 62.3899 62.0799 62.8656Z" fill="#E71A90"/>
</svg>
