<svg width="121" height="120" viewBox="0 0 121 120" fill="none" xmlns="http://www.w3.org/2000/svg">
<path d="M117.5 60C117.5 91.4802 91.9802 117 60.5 117C29.0198 117 3.5 91.4802 3.5 60C3.5 28.5198 29.0198 3 60.5 3C91.9802 3 117.5 28.5198 117.5 60Z" stroke="#E71A90" stroke-width="6"/>
<circle cx="50.6014" cy="74.2909" r="3.2025" stroke="#E71A90" stroke-width="4"/>
<circle cx="74.8797" cy="74.2909" r="3.2025" stroke="#E71A90" stroke-width="4"/>
<path d="M56.96 73.7126H68.5211" stroke="#E71A90" stroke-width="4"/>
<path d="M59.8506 78.3372H65.6311" stroke="#E71A90" stroke-width="4"/>
<path fill-rule="evenodd" clip-rule="evenodd" d="M61.8986 32.6415C59.8062 31.0892 58.1163 31.2141 58.1163 31.2141C58.1163 31.2141 59.8479 30.7985 61.8138 29.2762C62.2124 28.9676 62.6206 28.6136 63.0259 28.2082C63.2904 27.9438 63.5258 27.6865 63.7353 27.4382C65.4306 25.4286 65.4306 24 65.4306 24C65.4306 24 65.5068 25.3575 67.1879 27.4547C67.3816 27.6964 67.5966 27.9479 67.8353 28.2082C68.232 28.6411 68.6361 29.0122 69.0353 29.3302C71.16 31.0231 73.1457 31.2141 73.1457 31.2141C73.1457 31.2141 71.1325 31.0871 68.9325 32.6802C68.5691 32.9434 68.2006 33.2535 67.8353 33.6188C67.5656 33.8885 67.326 34.161 67.1132 34.4328C65.6524 36.2982 65.4525 38.129 65.4306 38.7801C65.4087 38.129 65.2088 36.2982 63.748 34.4328C63.5352 34.161 63.2956 33.8885 63.0259 33.6188C62.6424 33.2354 62.2644 32.9128 61.8986 32.6415ZM65.4306 39.0294C65.4306 39.0294 65.436 38.9406 65.4306 38.7801C65.4252 38.9406 65.4306 39.0294 65.4306 39.0294ZM64.2896 30.9168C64.5377 31.1299 64.7867 31.3603 65.0355 31.6092C65.1729 31.7465 65.3045 31.8846 65.4306 32.0233C65.5567 31.8846 65.6883 31.7465 65.8256 31.6092C66.0655 31.3693 66.3073 31.1469 66.5498 30.9407C66.2782 30.6905 66.0076 30.4204 65.7402 30.1287C65.6377 30.0169 65.5384 29.9059 65.4424 29.796C65.3126 29.9357 65.1771 30.0764 65.0355 30.2179C64.7873 30.4662 64.538 30.6988 64.2896 30.9168ZM30.5 44.3568C30.5 44.3568 32.0097 43.1758 34.8648 42.9815C35.6153 42.9305 36.4588 42.9476 37.3922 43.0722C38.1911 43.1789 38.9011 43.3576 39.5284 43.5794C41.7989 44.3821 42.987 45.7484 43.3935 46.2998C43.4934 46.4592 43.5578 46.5412 43.5578 46.5412C43.5578 46.5412 43.5051 46.4512 43.3935 46.2998C43.0295 45.7194 42.194 44.1132 42.2798 41.7065C42.3034 41.0415 42.3975 40.3155 42.5912 39.5331C42.8077 38.6584 43.1029 37.8847 43.4367 37.2066C44.779 34.4798 46.7467 33.297 46.7467 33.297C46.7467 33.297 44.7616 34.412 41.7158 34.496C40.8906 34.5187 39.9876 34.4658 39.0251 34.2945C38.2697 34.16 37.6114 33.9984 37.04 33.8238C34.4658 33.0375 33.6519 31.9896 33.6519 31.9896C33.6519 31.9896 34.435 33.1399 34.1875 35.7643C34.1301 36.3733 34.0172 37.0617 33.8261 37.8336C33.5947 38.7684 33.2957 39.6162 32.9721 40.368C31.8772 42.9118 30.5 44.3568 30.5 44.3568ZM37.7683 40.2551C37.1914 40.178 36.6392 40.1347 36.1126 40.1191C36.2862 39.6128 36.4459 39.0783 36.5849 38.5166C36.74 37.8903 36.8536 37.3004 36.9324 36.7459C37.4246 36.874 37.9553 36.9909 38.5271 37.0926C39.1403 37.2017 39.7339 37.2713 40.3048 37.3087C40.1265 37.7925 39.967 38.3061 39.8323 38.85C39.6819 39.4576 39.5787 40.0422 39.5147 40.602C38.9705 40.4563 38.3887 40.3379 37.7683 40.2551ZM45.5596 58.3014V61.9385H61.5846H63.8968H79.9218V58.3014C79.7464 57.2018 79.3111 55.6271 78.5949 54.3614C77.8201 52.992 77.0302 52.4853 76.2987 52.4853H63.8968H61.5846H49.1827C48.4512 52.4853 47.6614 52.992 46.8865 54.3614C46.1703 55.6271 45.7351 57.2018 45.5596 58.3014ZM43.6649 65.728H61.5846H63.8968H81.8165C82.5851 65.728 83.0311 66.0477 83.3631 66.5059C83.7278 67.009 83.9167 67.6567 83.9682 68.0912V85.8913L83.9599 85.9093C83.9278 85.9773 83.8896 86.0349 83.8529 86.0759C83.8187 86.1142 83.7948 86.1284 83.7829 86.1341C83.7758 86.1375 83.7421 86.1538 83.6558 86.1538H63.8968H61.5846H41.8256C41.7393 86.1538 41.7056 86.1375 41.6986 86.1341C41.6866 86.1284 41.6627 86.1142 41.6285 86.0759C41.5919 86.0349 41.5536 85.9773 41.5215 85.9093L41.5133 85.8913V68.0912C41.5647 67.6567 41.7537 67.009 42.1183 66.5059C42.4504 66.0477 42.8963 65.728 43.6649 65.728ZM52.9167 89.9433H61.5846H63.8968H72.5647V96H83.7113V89.9429C85.033 89.9266 86.0274 89.329 86.6774 88.6023C87.2909 87.9164 87.6065 87.1165 87.7228 86.5184L87.7577 86.3392V67.9117L87.7503 67.8284C87.6659 66.8736 87.3033 65.485 86.4315 64.2821C85.804 63.4163 84.9042 62.6464 83.7113 62.2409V60.0526H85.8629V56.2631H83.3638C83.0618 55.0747 82.5856 53.7191 81.893 52.4952C80.8838 50.7115 79.0987 48.6958 76.2987 48.6958H63.8968H61.5846H49.1827C46.3828 48.6958 44.5977 50.7115 43.5884 52.4952C42.8959 53.7191 42.4196 55.0747 42.1177 56.2631H39.6185V60.0526H41.7702V62.2409C40.5772 62.6464 39.6775 63.4163 39.05 64.2821C38.1782 65.485 37.8155 66.8736 37.7311 67.8284L37.7238 67.9117V86.3392L37.7586 86.5184C37.8749 87.1165 38.1905 87.9164 38.804 88.6023C39.4541 89.329 40.4485 89.9266 41.7702 89.9429V96H52.9167V89.9433ZM45.5596 89.9433V92.2105H49.1272V89.9433H45.5596ZM79.9218 89.9433V92.2105H76.3542V89.9433H79.9218ZM76.6141 43.9776C76.6141 43.9776 78.3639 43.859 80.4515 45.4334C80.6796 45.6054 80.9117 45.7976 81.146 46.0124C81.3181 46.1701 81.477 46.3291 81.6235 46.4881C83.1441 48.1382 83.3446 49.8039 83.3657 50.3796C83.3608 50.5154 83.3657 50.5906 83.3657 50.5906C83.3657 50.5906 83.3707 50.5154 83.3657 50.3796C83.3869 49.8039 83.5874 48.1382 85.1079 46.4881C85.2545 46.3291 85.4133 46.1701 85.5855 46.0124C85.8048 45.8113 86.0253 45.6301 86.2449 45.4667C88.4081 43.8573 90.4874 43.9776 90.4874 43.9776C90.4874 43.9776 88.4252 43.7958 86.3352 42.1085C86.0845 41.9061 85.8334 41.6821 85.5855 41.4342C85.4413 41.29 85.3065 41.1491 85.1805 41.0116C83.4418 39.1153 83.3657 37.8733 83.3657 37.8733C83.3657 37.8733 83.3657 39.1817 81.6036 40.9909C81.4626 41.1356 81.3104 41.2835 81.146 41.4342C80.8941 41.6651 80.6409 41.8764 80.3901 42.0695C78.4312 43.5778 76.6141 43.9776 76.6141 43.9776ZM83.0665 43.9173C82.9944 43.8512 82.9222 43.7866 82.8502 43.7235C82.9223 43.66 82.9944 43.5953 83.0665 43.5292C83.1725 43.4321 83.275 43.3353 83.3742 43.2388C83.4399 43.3068 83.5071 43.3751 83.5758 43.4438C83.6745 43.5425 83.7736 43.6383 83.8729 43.7313C83.8035 43.7919 83.7342 43.8539 83.665 43.9173C83.562 44.0117 83.4623 44.1067 83.3657 44.202C83.2692 44.1067 83.1695 44.0117 83.0665 43.9173Z" fill="#E71A90"/>
</svg>
