<svg width="24" height="24" viewBox="0 0 24 24" fill="none" xmlns="http://www.w3.org/2000/svg">
<circle cx="7.70002" cy="16.7635" r="1.0675" stroke="white" stroke-width="1.33333"/>
<circle cx="15.7931" cy="16.7635" r="1.0675" stroke="white" stroke-width="1.33333"/>
<path d="M9.82001 16.5708H13.6737" stroke="white" stroke-width="1.33333"/>
<path d="M10.7829 18.1123H12.7097" stroke="white" stroke-width="1.33333"/>
<path fill-rule="evenodd" clip-rule="evenodd" d="M11.4662 2.88049C10.7688 2.36306 10.2054 2.40471 10.2054 2.40471C10.2054 2.40471 10.7826 2.26618 11.438 1.75875C11.5708 1.65588 11.7069 1.53785 11.842 1.40275C11.9301 1.31458 12.0086 1.22884 12.0784 1.14606C12.6435 0.476205 12.6435 0 12.6435 0C12.6435 0 12.669 0.452501 13.2293 1.15158C13.2939 1.23213 13.3656 1.31596 13.4451 1.40275C13.5774 1.54702 13.7121 1.67072 13.8451 1.77675C14.5533 2.34105 15.2152 2.40471 15.2152 2.40471C15.2152 2.40471 14.5442 2.36237 13.8109 2.89341C13.6897 2.98113 13.5669 3.0845 13.4451 3.20628C13.3552 3.29618 13.2753 3.38702 13.2044 3.47761C12.7175 4.09941 12.6508 4.70967 12.6435 4.92671C12.6362 4.70967 12.5696 4.09941 12.0827 3.47761C12.0117 3.38702 11.9319 3.29618 11.842 3.20628C11.7141 3.07846 11.5881 2.97093 11.4662 2.88049ZM12.6435 5.00981C12.6435 5.00981 12.6453 4.98021 12.6435 4.92671C12.6417 4.98021 12.6435 5.00981 12.6435 5.00981ZM12.2632 2.30559C12.3459 2.37664 12.4289 2.45343 12.5119 2.53639C12.5576 2.58217 12.6015 2.62822 12.6435 2.67443C12.6856 2.62822 12.7294 2.58217 12.7752 2.53639C12.8552 2.45643 12.9358 2.38229 13.0166 2.31355C12.9261 2.23017 12.8359 2.14012 12.7467 2.04291C12.7126 2.00563 12.6795 1.96865 12.6475 1.93199C12.6042 1.97856 12.559 2.02546 12.5119 2.07264C12.4291 2.15539 12.346 2.23294 12.2632 2.30559ZM1 6.78562C1 6.78562 1.50323 6.39198 2.45494 6.32721C2.7051 6.31018 2.98625 6.31588 3.2974 6.35743C3.56371 6.39298 3.80036 6.45257 4.00947 6.5265C4.7663 6.79408 5.16232 7.2495 5.29782 7.43331C5.33114 7.48643 5.3526 7.51377 5.3526 7.51377C5.3526 7.51377 5.33503 7.48378 5.29782 7.43331C5.17651 7.23985 4.89801 6.70442 4.92659 5.90219C4.93448 5.68053 4.96582 5.43852 5.03039 5.17772C5.10257 4.88615 5.20095 4.62827 5.31223 4.40222C5.75965 3.49331 6.41558 3.09903 6.41558 3.09903C6.41558 3.09903 5.75385 3.4707 4.7386 3.49868C4.46354 3.50627 4.16252 3.48862 3.84168 3.43152C3.5899 3.38671 3.37048 3.33282 3.17999 3.27463C2.32193 3.01254 2.05065 2.66322 2.05065 2.66322C2.05065 2.66322 2.31167 3.04667 2.22918 3.92147C2.21004 4.12448 2.17239 4.35395 2.1087 4.61123C2.03155 4.92283 1.9319 5.20542 1.82404 5.45602C1.45907 6.30395 1 6.78562 1 6.78562ZM3.42278 5.41839C3.23047 5.39271 3.04641 5.37825 2.87087 5.37307C2.92873 5.20431 2.98195 5.02612 3.0283 4.8389C3.07999 4.63013 3.11785 4.43348 3.14412 4.24868C3.30821 4.29138 3.48511 4.33031 3.67568 4.36423C3.88009 4.40061 4.07797 4.4238 4.26826 4.43628C4.20885 4.59755 4.15567 4.76872 4.11078 4.95004C4.06064 5.15257 4.02624 5.34743 4.00491 5.53403C3.82349 5.48545 3.62958 5.446 3.42278 5.41839ZM6.01986 11.434V12.6463H11.3613H12.1323H17.4737V11.434C17.4152 11.0674 17.2701 10.5425 17.0314 10.1206C16.7731 9.66416 16.5098 9.49525 16.266 9.49525H12.1323H11.3613H7.22754C6.98372 9.49525 6.72043 9.66416 6.46215 10.1206C6.22341 10.5425 6.07833 11.0674 6.01986 11.434ZM5.38828 13.9095H11.3613H12.1323H18.1053C18.3615 13.9095 18.5101 14.0161 18.6208 14.1688C18.7423 14.3365 18.8053 14.5524 18.8225 14.6972V20.6306L18.8197 20.6366C18.809 20.6593 18.7963 20.6785 18.7841 20.6921C18.7726 20.7049 18.7647 20.7096 18.7607 20.7115C18.7584 20.7127 18.7471 20.7181 18.7183 20.7181H12.1323H11.3613H4.77519C4.74642 20.7181 4.73518 20.7127 4.73282 20.7115C4.72885 20.7096 4.72089 20.7049 4.70948 20.6921C4.69726 20.6785 4.68451 20.6593 4.67381 20.6366L4.67106 20.6306V14.6972C4.68822 14.5524 4.7512 14.3365 4.87275 14.1688C4.98343 14.0161 5.13208 13.9095 5.38828 13.9095ZM8.47221 21.9812H11.3613H12.1323H15.0213V24.0002H18.7368V21.9811C19.1774 21.9757 19.5089 21.7765 19.7255 21.5343C19.9301 21.3056 20.0353 21.039 20.074 20.8396L20.0856 20.7799V14.6374L20.0832 14.6096C20.0551 14.2914 19.9342 13.8285 19.6436 13.4275C19.4344 13.1389 19.1345 12.8823 18.7368 12.7471V12.0177H19.4541V10.7545H18.621C18.5204 10.3584 18.3616 9.90653 18.1308 9.49856C17.7943 8.904 17.1993 8.2321 16.266 8.2321H12.1323H11.3613H7.22754C6.29423 8.2321 5.6992 8.904 5.36278 9.49856C5.13194 9.90653 4.97318 10.3584 4.87253 10.7545H4.03948V12.0177H4.7567V12.7471C4.35905 12.8823 4.05914 13.1389 3.84996 13.4275C3.55936 13.8285 3.43849 14.2914 3.41035 14.6096L3.4079 14.6374V20.7799L3.41951 20.8396C3.45828 21.039 3.56349 21.3056 3.76799 21.5343C3.98467 21.7765 4.31613 21.9757 4.7567 21.9811V24.0002H8.47221V21.9812ZM6.01986 21.9812V22.737H7.20905V21.9812H6.01986ZM17.4737 21.9812V22.737H16.2845V21.9812H17.4737ZM16.3708 6.6591C16.3708 6.6591 16.9541 6.61957 17.6499 7.14436C17.726 7.2017 17.8033 7.26576 17.8814 7.33736C17.9388 7.38995 17.9918 7.44292 18.0406 7.49594C18.5475 8.04597 18.6143 8.6012 18.6214 8.7931C18.6197 8.83837 18.6214 8.86342 18.6214 8.86342C18.6214 8.86342 18.623 8.83837 18.6214 8.7931C18.6284 8.6012 18.6952 8.04597 19.2021 7.49594C19.2509 7.44292 19.3039 7.38995 19.3613 7.33736C19.4344 7.27035 19.5079 7.20993 19.5811 7.15546C20.3021 6.61901 20.9952 6.6591 20.9952 6.6591C20.9952 6.6591 20.3078 6.5985 19.6112 6.03607C19.5276 5.96862 19.4439 5.89394 19.3613 5.81129C19.3132 5.76324 19.2683 5.71627 19.2263 5.67044C18.6467 5.03835 18.6214 4.62435 18.6214 4.62435C18.6214 4.62435 18.6214 5.06048 18.034 5.66352C17.987 5.71176 17.9362 5.76106 17.8814 5.81129C17.7975 5.88827 17.7131 5.9587 17.6295 6.02308C16.9765 6.52585 16.3708 6.6591 16.3708 6.6591ZM18.5216 6.639C18.4976 6.61696 18.4735 6.59543 18.4495 6.5744C18.4735 6.55324 18.4976 6.53166 18.5216 6.50965C18.5569 6.47727 18.5911 6.44499 18.6242 6.41284C18.6461 6.43551 18.6685 6.45829 18.6914 6.48118C18.7243 6.51407 18.7573 6.546 18.7904 6.577C18.7673 6.5972 18.7442 6.61786 18.7211 6.639C18.6868 6.67047 18.6535 6.70213 18.6214 6.73392C18.5892 6.70213 18.5559 6.67047 18.5216 6.639Z" fill="white"/>
</svg>
