<svg width="24" height="25" viewBox="0 0 24 25" fill="none" xmlns="http://www.w3.org/2000/svg">
<path fill-rule="evenodd" clip-rule="evenodd" d="M3.71889 8.84575C3.71406 8.75255 3.71695 8.70155 3.7183 8.68194C3.7267 8.66499 3.74612 8.62847 3.78522 8.57041C3.84822 8.47688 3.94178 8.35741 4.07045 8.2125C4.32784 7.92261 4.68887 7.572 5.13396 7.17959C6.02189 6.39675 7.19261 5.49282 8.41026 4.64204C9.62858 3.79079 10.8732 3.00721 11.9065 2.45865C12.4247 2.1835 12.8712 1.97746 13.2238 1.85049C13.4759 1.75969 13.624 1.73058 13.6925 1.72041C13.7285 1.74608 13.7774 1.78456 13.8395 1.83958C14.0135 1.99351 14.2385 2.22962 14.5038 2.54741C15.0317 3.17971 15.668 4.07312 16.3095 5.12078C17.4451 6.97504 18.5484 9.23227 19.1073 11.2896L17.8903 9.18164C17.4373 8.39698 16.4339 8.12813 15.6493 8.58116C15.5519 8.63739 15.4624 8.7021 15.3813 8.77381L14.5446 7.32454C14.0916 6.53988 13.0882 6.27104 12.3036 6.72406C12.1561 6.80922 12.0268 6.91382 11.9171 7.03276C11.3591 6.63402 10.5972 6.57266 9.96451 6.93793C9.13938 7.41433 8.83279 8.44395 9.24278 9.28776C9.13863 9.32232 9.03642 9.3679 8.93767 9.42491C8.15301 9.87793 7.88416 10.8813 8.33719 11.6659L10.7789 15.895C9.97365 15.4336 8.94478 15.7095 8.47954 16.5154C8.05294 17.2543 8.24522 18.1954 8.92748 18.7077L11.5302 20.6622C11.4206 20.7472 11.3014 20.8379 11.1741 20.9322C10.5504 21.3942 9.76143 21.9208 8.97943 22.2948C8.95933 22.2774 8.93614 22.2561 8.90987 22.2303C8.68174 22.0058 8.38692 21.6013 8.04445 21.0147C7.36879 19.8576 6.62158 18.1923 5.93486 16.4192C5.25052 14.6521 4.63969 12.8129 4.23104 11.3236C4.0263 10.5775 3.87628 9.9335 3.79197 9.4375C3.74971 9.18887 3.72647 8.99183 3.71889 8.84575ZM12.9484 21.7272C12.7486 21.8894 12.4923 22.0913 12.1955 22.3111C11.4781 22.8426 10.4906 23.5044 9.47768 23.9546C9.09638 24.124 8.71742 24.0754 8.41922 23.9518C8.13931 23.8359 7.90093 23.645 7.7062 23.4533C7.31492 23.0682 6.92921 22.5079 6.56258 21.88C5.82001 20.6083 5.03466 18.8463 4.33468 17.0389C3.63232 15.2253 3.00231 13.3306 2.57621 11.7777C2.36357 11.0028 2.19774 10.2986 2.10024 9.72506C2.0516 9.43891 2.01744 9.1708 2.0052 8.93458C1.99397 8.71803 1.99592 8.45087 2.06713 8.20705C2.18526 7.8026 2.49505 7.40227 2.78727 7.07316C3.10854 6.71133 3.52601 6.30954 3.99913 5.89242C4.94763 5.05617 6.17216 4.11245 7.42742 3.23539C8.68202 2.35879 9.98799 1.53433 11.1018 0.943007C11.6571 0.648216 12.1832 0.401357 12.6423 0.236011C13.0568 0.0867406 13.5683 -0.055043 14.0216 0.0213797C14.246 0.0592126 14.4344 0.158593 14.5657 0.240741C14.7074 0.329368 14.8457 0.438543 14.9767 0.554491C15.2391 0.786644 15.5254 1.09358 15.821 1.44759C16.4149 2.15888 17.099 3.12412 17.7729 4.22461C19.1125 6.41215 20.4745 9.23642 20.9865 11.7797L20.9871 11.7827L21.9467 16.3871L21.6103 16.4573C21.9108 17.8909 21.6937 19.1302 21.0901 20.1522C20.1586 21.7296 18.4063 22.6125 16.7437 22.9242C15.3913 23.1778 14.1246 22.6105 13.1612 21.887L12.9484 21.7272ZM20.0927 15.9019L20.2668 16.7372L20.3266 16.7248C20.5696 17.8882 20.3671 18.7956 19.9601 19.4849C19.2849 20.6281 17.9369 21.3652 16.5019 21.6343C15.6623 21.7917 14.7691 21.4532 13.9493 20.8375L9.71558 17.6582C9.56413 17.5445 9.52145 17.3356 9.61615 17.1716C9.72014 16.9915 9.95098 16.9306 10.1303 17.036L12.1197 18.2263L13.268 17.5701L13.2384 17.5502L13.247 17.5452L9.47379 11.0097C9.38319 10.8528 9.43696 10.6521 9.59389 10.5615C9.75082 10.4709 9.95149 10.5247 10.0421 10.6816L12.749 15.3701L13.8856 14.7139L13.4756 14.0037L13.4756 14.0036L10.4406 8.74685C10.3047 8.51145 10.3853 8.21044 10.6207 8.07454C10.8561 7.93863 11.1571 8.01928 11.293 8.25468L11.694 8.9491L11.7031 8.96509L14.8201 14.364L15.9567 13.7077L15.0481 12.134L15.0482 12.1339L12.8357 8.30172C12.7507 8.14589 12.8052 7.9499 12.9598 7.86067C13.1167 7.77006 13.3174 7.82383 13.408 7.98076L16.1086 12.6583L16.1088 12.6582L16.5443 13.4125L17.6809 12.7563L16.1854 10.166C16.0948 10.009 16.1485 9.80837 16.3055 9.71776C16.4624 9.62716 16.6631 9.68093 16.7537 9.83786L19.3784 14.384L19.3782 14.3842C19.6915 14.9269 19.9257 15.4322 20.0927 15.9019ZM13.6362 1.68419C13.6353 1.68375 13.6348 1.68357 13.6348 1.68361C13.6349 1.6837 13.6365 1.68462 13.6398 1.68613C13.6382 1.68524 13.637 1.6846 13.6362 1.68419Z" fill="white"/>
</svg>
