<svg width="24" height="24" viewBox="0 0 24 24" fill="none" xmlns="http://www.w3.org/2000/svg">
<path fill-rule="evenodd" clip-rule="evenodd" d="M21.7616 4.27854L11.9566 0L2.15171 4.27854L2.05389 4.67527C1.00335 8.93578 1.4637 18.6817 11.5826 23.8104L11.9566 24L12.3306 23.8104C22.4495 18.6817 22.9099 8.93579 21.8594 4.67527L21.7616 4.27854ZM3.57211 5.46387L11.9566 1.80514L20.3412 5.46387C21.1403 9.38447 20.5021 17.5863 11.9566 22.1403C3.41113 17.5863 2.77302 9.38448 3.57211 5.46387ZM11.334 14.6786L17.09 8.92265L15.9114 7.74414L11.334 12.3216L9.58996 10.5775L8.41145 11.756L11.334 14.6786Z" fill="white"/>
</svg>
