<svg width="60" height="60" viewBox="0 0 60 60" fill="none" xmlns="http://www.w3.org/2000/svg">
<path fill-rule="evenodd" clip-rule="evenodd" d="M31.457 23.5923C31.457 24.8407 31.1756 25.8034 30.6128 26.4805C30.0542 27.1576 29.265 27.4961 28.2451 27.4961C27.2168 27.4961 26.4212 27.1554 25.8584 26.4741C25.2956 25.7928 25.0142 24.8322 25.0142 23.5923V21.9038C25.0142 20.6554 25.2935 19.6927 25.8521 19.0156C26.4149 18.3385 27.2083 18 28.2324 18C29.2565 18 30.05 18.3407 30.6128 19.022C31.1756 19.7033 31.457 20.666 31.457 21.9102V23.5923ZM29.3179 21.6309C29.3179 20.9665 29.2311 20.4714 29.0576 20.1455C28.8841 19.8154 28.609 19.6504 28.2324 19.6504C27.8643 19.6504 27.5955 19.8027 27.4263 20.1074C27.2612 20.4121 27.1724 20.8734 27.1597 21.4912V23.8525C27.1597 24.5423 27.2464 25.048 27.4199 25.3696C27.5934 25.687 27.8685 25.8457 28.2451 25.8457C28.609 25.8457 28.8778 25.6912 29.0513 25.3823C29.2248 25.0692 29.3136 24.5804 29.3179 23.916V21.6309Z" fill="#00B056"/>
<path d="M22.2529 27.3691H20.1074V20.5391L18 21.1548V19.5298L22.0562 18.127H22.2529V27.3691Z" fill="#00B056"/>
<path d="M38.2109 27.3691H40.4263V18.127H38.2109V21.7959H34.9292V18.127H32.7012V27.3691H34.9292V23.5098H38.2109V27.3691Z" fill="#00B056"/>
<path fill-rule="evenodd" clip-rule="evenodd" d="M60 22L30 60L0 22L15 0H44L60 22ZM41.4539 5L53.7274 21.8761L30 51.9309L6.19933 21.7833L17.6425 5H41.4539Z" fill="#00B056"/>
</svg>
