<svg width="67" height="57" viewBox="0 0 67 57" fill="none" xmlns="http://www.w3.org/2000/svg">
<path fill-rule="evenodd" clip-rule="evenodd" d="M2.1422 21.4884C2.1422 17.2823 7.17551 9.23646 10.5823 4.27235C12.3251 1.73296 13.6422 0 13.6422 0C13.6422 0 14.9593 1.73296 16.7021 4.27235C20.1089 9.23646 25.1422 17.2823 25.1422 21.4884C25.1422 27.8461 19.9935 33 13.6422 33C7.29092 33 2.1422 27.8461 2.1422 21.4884ZM20.1422 21.4884C20.1422 25.0894 17.2273 28 13.6422 28C10.0571 28 7.1422 25.0894 7.1422 21.4884C7.1422 21.0775 7.42765 19.7989 8.47079 17.5614C9.42568 15.5132 10.7431 13.2216 12.1263 11.0194C12.6364 10.2073 13.1476 9.41964 13.6422 8.67507C14.1368 9.41964 14.648 10.2073 15.1581 11.0194C16.5413 13.2216 17.8587 15.5132 18.8136 17.5614C19.8567 19.7989 20.1422 21.0775 20.1422 21.4884Z" fill="#00B056"/>
<path fill-rule="evenodd" clip-rule="evenodd" d="M0 52.637L0.0917741 56.4335L42.4908 56.4335L61.9955 29.5864L61.9955 33.6105L66.1891 33.6936V20.5082L52.5402 24.8999L54.0209 28.4804L58.8609 26.9231L47.3549 42.7604C40.6645 41.5461 35.9376 42.7213 32.7452 45.0927C29.9204 47.1911 28.4838 50.0907 27.9225 52.637H0ZM31.0156 52.637H40.1794L45.3756 45.4847C40.1034 44.793 36.6928 45.8974 34.5342 47.501C32.6207 48.9224 31.5337 50.8503 31.0156 52.637Z" fill="#00B056"/>
<path d="M35.2355 39.7752H41.6847V38.1248H38.0475L39.2408 36.7474C39.8756 36.1126 40.3347 35.6069 40.6183 35.2303C40.906 34.8494 41.1176 34.4876 41.253 34.1448C41.3885 33.7978 41.4562 33.4424 41.4562 33.0784C41.4562 32.2151 41.1853 31.5529 40.6437 31.0916C40.1062 30.6304 39.3382 30.3997 38.3395 30.3997C37.7174 30.3997 37.1546 30.5351 36.651 30.806C36.1474 31.0768 35.7538 31.4534 35.4703 31.9359C35.1868 32.414 35.045 32.9367 35.045 33.5037H37.1905C37.1905 33.089 37.2921 32.7441 37.4952 32.4691C37.6983 32.1898 37.9628 32.0501 38.2887 32.0501C38.6188 32.0501 38.8705 32.1538 39.0441 32.3611C39.2176 32.5685 39.3043 32.8711 39.3043 33.2689C39.3043 33.7597 38.9383 34.422 38.2062 35.2557L35.2355 38.3787V39.7752Z" fill="#00B056"/>
<path d="M30.3033 39.7752H32.4488V30.533H32.2521L28.1959 31.9359V33.5609L30.3033 32.9451V39.7752Z" fill="#00B056"/>
<path fill-rule="evenodd" clip-rule="evenodd" d="M49.1813 35.9984C49.1813 37.2467 48.8998 38.2095 48.337 38.8865C47.7784 39.5636 46.9892 39.9022 45.9693 39.9022C44.941 39.9022 44.1455 39.5615 43.5826 38.8802C43.0198 38.1989 42.7384 37.2383 42.7384 35.9984V34.3099C42.7384 33.0615 43.0177 32.0988 43.5763 31.4217C44.1391 30.7446 44.9326 30.4061 45.9566 30.4061C46.9807 30.4061 47.7742 30.7467 48.337 31.428C48.8998 32.1094 49.1813 33.0721 49.1813 34.3162V35.9984ZM47.0421 34.0369C47.0421 33.3725 46.9553 32.8774 46.7818 32.5516C46.6083 32.2215 46.3333 32.0565 45.9566 32.0565C45.5885 32.0565 45.3198 32.2088 45.1505 32.5135C44.9855 32.8182 44.8966 33.2794 44.8839 33.8973V36.2586C44.8839 36.9484 44.9706 37.4541 45.1441 37.7757C45.3177 38.0931 45.5927 38.2518 45.9693 38.2518C46.3333 38.2518 46.602 38.0973 46.7755 37.7884C46.949 37.4752 47.0379 36.9865 47.0421 36.3221V34.0369Z" fill="#00B056"/>
</svg>
