<svg width="120" height="120" viewBox="0 0 120 120" fill="none" xmlns="http://www.w3.org/2000/svg">
<path d="M117 60C117 91.4802 91.4802 117 60 117C28.5198 117 3 91.4802 3 60C3 28.5198 28.5198 3 60 3C91.4802 3 117 28.5198 117 60Z" stroke="#00B056" stroke-width="6"/>
<circle cx="50.1014" cy="74.2908" r="3.2025" stroke="#00B056" stroke-width="4"/>
<circle cx="74.3797" cy="74.2908" r="3.2025" stroke="#00B056" stroke-width="4"/>
<path d="M56.46 73.7128H68.0211" stroke="#00B056" stroke-width="4"/>
<path d="M59.3506 78.3372H65.1311" stroke="#00B056" stroke-width="4"/>
<path fill-rule="evenodd" clip-rule="evenodd" d="M61.3986 32.6415C59.3062 31.0892 57.6163 31.2141 57.6163 31.2141C57.6163 31.2141 59.3479 30.7985 61.3138 29.2762C61.7124 28.9676 62.1206 28.6136 62.5259 28.2082C62.7904 27.9438 63.0258 27.6865 63.2353 27.4382C64.9306 25.4286 64.9306 24 64.9306 24C64.9306 24 65.0068 25.3575 66.6879 27.4547C66.8816 27.6964 67.0966 27.9479 67.3353 28.2082C67.732 28.6411 68.1361 29.0122 68.5353 29.3302C70.66 31.0231 72.6457 31.2141 72.6457 31.2141C72.6457 31.2141 70.6325 31.0871 68.4325 32.6802C68.0691 32.9434 67.7006 33.2535 67.3353 33.6188C67.0656 33.8885 66.826 34.161 66.6132 34.4328C65.1524 36.2982 64.9525 38.129 64.9306 38.7801C64.9087 38.129 64.7088 36.2982 63.248 34.4328C63.0352 34.161 62.7956 33.8885 62.5259 33.6188C62.1424 33.2354 61.7644 32.9128 61.3986 32.6415ZM64.9306 39.0294C64.9306 39.0294 64.936 38.9406 64.9306 38.7801C64.9252 38.9406 64.9306 39.0294 64.9306 39.0294ZM63.7896 30.9168C64.0377 31.1299 64.2867 31.3603 64.5355 31.6092C64.6729 31.7465 64.8045 31.8846 64.9306 32.0233C65.0567 31.8846 65.1883 31.7465 65.3256 31.6092C65.5655 31.3693 65.8073 31.1469 66.0498 30.9407C65.7782 30.6905 65.5076 30.4204 65.2402 30.1287C65.1377 30.0169 65.0384 29.9059 64.9424 29.796C64.8126 29.9357 64.6771 30.0764 64.5355 30.2179C64.2873 30.4662 64.038 30.6988 63.7896 30.9168ZM30 44.3568C30 44.3568 31.5097 43.1758 34.3648 42.9815C35.1153 42.9305 35.9588 42.9476 36.8922 43.0722C37.6911 43.1789 38.4011 43.3576 39.0284 43.5794C41.2989 44.3821 42.487 45.7484 42.8935 46.2998C42.9934 46.4592 43.0578 46.5412 43.0578 46.5412C43.0578 46.5412 43.0051 46.4512 42.8935 46.2998C42.5295 45.7194 41.694 44.1132 41.7798 41.7065C41.8034 41.0415 41.8975 40.3155 42.0912 39.5331C42.3077 38.6584 42.6029 37.8847 42.9367 37.2066C44.279 34.4798 46.2467 33.297 46.2467 33.297C46.2467 33.297 44.2616 34.412 41.2158 34.496C40.3906 34.5187 39.4876 34.4658 38.5251 34.2945C37.7697 34.16 37.1114 33.9984 36.54 33.8238C33.9658 33.0375 33.1519 31.9896 33.1519 31.9896C33.1519 31.9896 33.935 33.1399 33.6875 35.7643C33.6301 36.3733 33.5172 37.0617 33.3261 37.8336C33.0947 38.7684 32.7957 39.6162 32.4721 40.368C31.3772 42.9118 30 44.3568 30 44.3568ZM37.2683 40.2551C36.6914 40.178 36.1392 40.1347 35.6126 40.1191C35.7862 39.6128 35.9459 39.0783 36.0849 38.5166C36.24 37.8903 36.3536 37.3004 36.4324 36.7459C36.9246 36.874 37.4553 36.9909 38.0271 37.0926C38.6403 37.2017 39.2339 37.2713 39.8048 37.3087C39.6265 37.7925 39.467 38.3061 39.3323 38.85C39.1819 39.4576 39.0787 40.0422 39.0147 40.602C38.4705 40.4563 37.8887 40.3379 37.2683 40.2551ZM45.0596 58.3014V61.9385H61.0846H63.3968H79.4218V58.3014C79.2464 57.2018 78.8111 55.6271 78.0949 54.3614C77.3201 52.992 76.5302 52.4853 75.7987 52.4853H63.3968H61.0846H48.6827C47.9512 52.4853 47.1614 52.992 46.3865 54.3614C45.6703 55.6271 45.2351 57.2018 45.0596 58.3014ZM43.1649 65.728H61.0846H63.3968H81.3165C82.0851 65.728 82.5311 66.0477 82.8631 66.5059C83.2278 67.009 83.4167 67.6567 83.4682 68.0912V85.8913L83.4599 85.9093C83.4278 85.9773 83.3896 86.0349 83.3529 86.0759C83.3187 86.1142 83.2948 86.1284 83.2829 86.1341C83.2758 86.1375 83.2421 86.1538 83.1558 86.1538H63.3968H61.0846H41.3256C41.2393 86.1538 41.2056 86.1375 41.1986 86.1341C41.1866 86.1284 41.1627 86.1142 41.1285 86.0759C41.0919 86.0349 41.0536 85.9773 41.0215 85.9093L41.0133 85.8913V68.0912C41.0647 67.6567 41.2537 67.009 41.6183 66.5059C41.9504 66.0477 42.3963 65.728 43.1649 65.728ZM52.4167 89.9433H61.0846H63.3968H72.0647V96H83.2113V89.9429C84.533 89.9266 85.5274 89.329 86.1774 88.6023C86.7909 87.9164 87.1065 87.1165 87.2228 86.5184L87.2577 86.3392V67.9117L87.2503 67.8284C87.1659 66.8736 86.8033 65.485 85.9315 64.2821C85.304 63.4163 84.4042 62.6464 83.2113 62.2409V60.0526H85.3629V56.2631H82.8638C82.5618 55.0747 82.0856 53.7191 81.393 52.4952C80.3838 50.7115 78.5987 48.6958 75.7987 48.6958H63.3968H61.0846H48.6827C45.8828 48.6958 44.0977 50.7115 43.0884 52.4952C42.3959 53.7191 41.9196 55.0747 41.6177 56.2631H39.1185V60.0526H41.2702V62.2409C40.0772 62.6464 39.1775 63.4163 38.55 64.2821C37.6782 65.485 37.3155 66.8736 37.2311 67.8284L37.2238 67.9117V86.3392L37.2586 86.5184C37.3749 87.1165 37.6905 87.9164 38.304 88.6023C38.9541 89.329 39.9485 89.9266 41.2702 89.9429V96H52.4167V89.9433ZM45.0596 89.9433V92.2105H48.6272V89.9433H45.0596ZM79.4218 89.9433V92.2105H75.8542V89.9433H79.4218ZM76.1141 43.9776C76.1141 43.9776 77.8639 43.859 79.9515 45.4334C80.1796 45.6054 80.4117 45.7976 80.646 46.0124C80.8181 46.1701 80.977 46.3291 81.1235 46.4881C82.6441 48.1382 82.8446 49.8039 82.8657 50.3796C82.8608 50.5154 82.8657 50.5906 82.8657 50.5906C82.8657 50.5906 82.8707 50.5154 82.8657 50.3796C82.8869 49.8039 83.0874 48.1382 84.6079 46.4881C84.7545 46.3291 84.9133 46.1701 85.0855 46.0124C85.3048 45.8113 85.5253 45.6301 85.7449 45.4667C87.9081 43.8573 89.9874 43.9776 89.9874 43.9776C89.9874 43.9776 87.9252 43.7958 85.8352 42.1085C85.5845 41.9061 85.3334 41.6821 85.0855 41.4342C84.9413 41.29 84.8065 41.1491 84.6805 41.0116C82.9418 39.1153 82.8657 37.8733 82.8657 37.8733C82.8657 37.8733 82.8657 39.1817 81.1036 40.9909C80.9626 41.1356 80.8104 41.2835 80.646 41.4342C80.3941 41.6651 80.1409 41.8764 79.8901 42.0695C77.9312 43.5778 76.1141 43.9776 76.1141 43.9776ZM82.5665 43.9173C82.4944 43.8512 82.4222 43.7866 82.3502 43.7235C82.4223 43.66 82.4944 43.5953 82.5665 43.5292C82.6725 43.4321 82.775 43.3353 82.8742 43.2388C82.9399 43.3068 83.0071 43.3751 83.0758 43.4438C83.1745 43.5425 83.2736 43.6383 83.3729 43.7313C83.3035 43.7919 83.2342 43.8539 83.165 43.9173C83.062 44.0117 82.9623 44.1067 82.8657 44.202C82.7692 44.1067 82.6695 44.0117 82.5665 43.9173Z" fill="#00B056"/>
</svg>
