<svg width="120" height="120" viewBox="0 0 120 120" fill="none" xmlns="http://www.w3.org/2000/svg">
<path d="M117 60C117 91.4802 91.4802 117 60 117C28.5198 117 3 91.4802 3 60C3 28.5198 28.5198 3 60 3C91.4802 3 117 28.5198 117 60Z" stroke="#00B056" stroke-width="6"/>
<path fill-rule="evenodd" clip-rule="evenodd" d="M42.2712 60.6975V56.8583C42.4563 55.6976 42.9158 54.0355 43.6718 52.6994C44.4897 51.2539 45.3234 50.7191 46.0955 50.7191H59.1865H61.6271H74.7181C75.4902 50.7191 76.3239 51.2539 77.1418 52.6994C77.8978 54.0355 78.3573 55.6976 78.5424 56.8583V60.6975H61.6271H59.1865H42.2712ZM59.1865 64.6975H40.2712C39.4599 64.6975 38.9892 65.035 38.6387 65.5186C38.2538 66.0497 38.0543 66.7333 38 67.1919V85.9809L38.0087 85.9999C38.0426 86.0717 38.083 86.1326 38.1217 86.1758C38.1578 86.2162 38.183 86.2312 38.1956 86.2373C38.2031 86.2409 38.2386 86.258 38.3297 86.258H59.1865H61.6271H82.4839C82.575 86.258 82.6105 86.2409 82.618 86.2373C82.6306 86.2312 82.6558 86.2162 82.6919 86.1758C82.7306 86.1326 82.771 86.0717 82.8049 85.9999L82.8136 85.9809V67.1919C82.7593 66.7333 82.5598 66.0497 82.1749 65.5186C81.8244 65.035 81.3537 64.6975 80.5424 64.6975H61.6271H59.1865ZM59.1865 90.258H50.037V96.6513H38.2712V90.2577C36.8761 90.2405 35.8264 89.6097 35.1403 88.8425C34.4927 88.1185 34.1595 87.2742 34.0368 86.6429L34 86.4538V67.0025L34.0078 66.9146C34.0969 65.9067 34.4796 64.441 35.3998 63.1713C36.0622 62.2573 37.012 61.4446 38.2712 61.0166V58.7067H36V54.7067H38.638C38.9567 53.4523 39.4595 52.0214 40.1905 50.7295C41.2558 48.8468 43.1401 46.7191 46.0955 46.7191H59.1865H61.6271H74.7181C77.6735 46.7191 79.5578 48.8468 80.6231 50.7295C81.3541 52.0214 81.8569 53.4523 82.1756 54.7067H84.8136V58.7067H82.5424V61.0166C83.8016 61.4446 84.7514 62.2573 85.4138 63.1713C86.334 64.441 86.7167 65.9067 86.8058 66.9146L86.8136 67.0025V86.4538L86.7768 86.6429C86.6541 87.2742 86.3209 88.1185 85.6733 88.8425C84.9872 89.6097 83.9375 90.2405 82.5424 90.2577V96.6513H70.7766V90.258H61.6271H59.1865ZM42.2712 92.6513V90.258H46.037V92.6513H42.2712ZM78.5424 92.6513V90.258H74.7766V92.6513H78.5424Z" fill="#00B056"/>
<path fill-rule="evenodd" clip-rule="evenodd" d="M47.5931 75.2275C48.4168 75.2275 49.0846 74.5597 49.0846 73.736C49.0846 72.9122 48.4168 72.2444 47.5931 72.2444C46.7693 72.2444 46.1016 72.9122 46.1016 73.736C46.1016 74.5597 46.7693 75.2275 47.5931 75.2275ZM47.5931 79.2275C50.626 79.2275 53.0846 76.7689 53.0846 73.736C53.0846 70.7031 50.626 68.2444 47.5931 68.2444C44.5602 68.2444 42.1016 70.7031 42.1016 73.736C42.1016 76.7689 44.5602 79.2275 47.5931 79.2275Z" fill="#00B056"/>
<path fill-rule="evenodd" clip-rule="evenodd" d="M73.2205 75.2275C74.0443 75.2275 74.7121 74.5597 74.7121 73.736C74.7121 72.9122 74.0443 72.2444 73.2205 72.2444C72.3968 72.2444 71.729 72.9122 71.729 73.736C71.729 74.5597 72.3968 75.2275 73.2205 75.2275ZM73.2205 79.2275C76.2534 79.2275 78.7121 76.7689 78.7121 73.736C78.7121 70.7031 76.2534 68.2444 73.2205 68.2444C70.1876 68.2444 67.729 70.7031 67.729 73.736C67.729 76.7689 70.1876 79.2275 73.2205 79.2275Z" fill="#00B056"/>
<path fill-rule="evenodd" clip-rule="evenodd" d="M66.5086 75.1259H54.3052V71.1259H66.5086V75.1259Z" fill="#00B056"/>
<path fill-rule="evenodd" clip-rule="evenodd" d="M63.4577 80.0072H57.356V76.0072H63.4577V80.0072Z" fill="#00B056"/>
<path fill-rule="evenodd" clip-rule="evenodd" d="M76.2919 37.8088C76.6293 40.3736 75.5075 43.3147 72.3851 44.7556C71.147 45.3269 69.7229 45.3951 68.3863 45.2489C67.0306 45.1006 65.6257 44.7163 64.3265 44.2425C61.7726 43.3111 59.3486 41.928 58.2671 40.9518L60.2773 38.7248C60.9676 39.348 63.0012 40.5659 65.3543 41.4241C66.5086 41.845 67.6695 42.1526 68.7124 42.2667C69.7743 42.3828 70.5816 42.2838 71.128 42.0316C72.9163 41.2064 73.5048 39.6239 73.3175 38.2001C73.1168 36.6747 72.1467 35.7523 71.101 35.7196C70.3537 35.6962 69.3144 36.1528 68.6772 36.8754C68.3771 37.2158 68.2488 37.5241 68.2225 37.7538C68.2008 37.9435 68.2322 38.186 68.4897 38.5056C68.6125 38.658 68.7482 38.6594 68.8027 38.643C68.8089 38.6411 68.8131 38.6394 68.8158 38.6381C68.8233 38.6213 68.839 38.572 68.8352 38.4704L71.8331 38.3577C71.8925 39.9393 70.9567 41.128 69.6667 41.5159C68.4522 41.8811 67.0479 41.498 66.1534 40.3876C65.422 39.4797 65.1237 38.4453 65.242 37.4126C65.3556 36.42 65.837 35.5604 66.427 34.8913C67.5701 33.5949 69.4328 32.6659 71.1949 32.721C74.1783 32.8144 75.9678 35.3456 76.2919 37.8088ZM68.8196 38.6359C68.8197 38.6359 68.8193 38.6362 68.8183 38.6368L68.8196 38.6359Z" fill="#00B056"/>
<path fill-rule="evenodd" clip-rule="evenodd" d="M64.1628 33.8075C64.6253 36.9735 63.4123 40.7739 59.8902 42.9464C58.3825 43.8764 56.4941 44.198 54.6239 44.2169C52.7302 44.2361 50.7011 43.9458 48.7875 43.513C45.017 42.6601 41.3783 41.1775 39.8418 40.0922L41.5726 37.6418C42.6489 38.4021 45.8529 39.7734 49.4494 40.5869C51.2193 40.9872 53.0049 41.2332 54.5936 41.2171C56.206 41.2008 57.4679 40.9157 58.3152 40.3931C60.6808 38.934 61.5084 36.3915 61.1943 34.2412C60.8706 32.0253 59.5274 30.8125 57.9344 30.9531C56.7643 31.0563 55.3247 31.9262 54.5183 33.0965C54.131 33.6587 53.9609 34.1897 53.9633 34.6302C53.9654 35.0303 54.1071 35.4763 54.5926 35.9503C54.93 36.2797 55.3328 36.2986 55.5915 36.1857C55.7161 36.1313 55.7997 36.0512 55.8501 35.9592C55.8968 35.8737 55.9549 35.7052 55.9071 35.4035L58.8703 34.9347C59.1655 36.8009 58.2326 38.3065 56.7913 38.9353C55.4224 39.5327 53.7146 39.2857 52.4969 38.097C51.4709 37.0953 50.97 35.8949 50.9633 34.6461C50.9569 33.4378 51.4119 32.3175 52.0479 31.3944C53.2884 29.5941 55.4892 28.1572 57.6707 27.9647C61.4592 27.6303 63.7099 30.7071 64.1628 33.8075Z" fill="#00B056"/>
</svg>
