<svg width="120" height="120" viewBox="0 0 120 120" fill="none" xmlns="http://www.w3.org/2000/svg">
<path d="M117 60C117 91.4802 91.4802 117 60 117C28.5198 117 3 91.4802 3 60C3 28.5198 28.5198 3 60 3C91.4802 3 117 28.5198 117 60Z" stroke="#00B056" stroke-width="6"/>
<path fill-rule="evenodd" clip-rule="evenodd" d="M35.1564 50.5373C35.1419 50.2577 35.1506 50.1046 35.1546 50.0458C35.1798 49.995 35.2381 49.8854 35.3554 49.7112C35.5444 49.4306 35.8251 49.0722 36.2111 48.6375C36.9832 47.7678 38.0663 46.716 39.4016 45.5388C42.0654 43.1902 45.5776 40.4785 49.2305 37.9261C52.8855 35.3724 56.6193 33.0216 59.7191 31.376C61.2739 30.5505 62.6134 29.9324 63.6711 29.5515C64.4274 29.2791 64.8719 29.1918 65.0773 29.1612C65.1851 29.2382 65.3318 29.3537 65.5183 29.5187C66.0402 29.9805 66.7151 30.6888 67.5111 31.6422C69.095 33.5391 71.0036 36.2194 72.9283 39.3623C76.3345 44.9245 79.6443 51.6954 81.3212 57.8669L77.6708 51.5443C76.3117 49.1903 73.3017 48.3838 70.9477 49.7429C70.6558 49.9114 70.3877 50.1053 70.1445 50.3203L67.6345 45.9727C66.2754 43.6188 63.2654 42.8122 60.9114 44.1713C60.4688 44.4268 60.0809 44.7407 59.7519 45.0976C58.0778 43.9013 55.792 43.7172 53.8939 44.813C51.4184 46.2423 50.4986 49.3314 51.7289 51.8629C51.4165 51.9666 51.11 52.1033 50.8138 52.2743C48.4598 53.6334 47.6532 56.6434 49.0123 58.9974L56.3371 71.6843C53.9216 70.3004 50.8354 71.1284 49.4398 73.5457C48.1599 75.7624 48.7368 78.5857 50.7836 80.1227L58.5912 85.9858C58.2623 86.2411 57.9043 86.5135 57.522 86.7967C55.6511 88.1826 53.284 89.7625 50.938 90.8843C50.8777 90.8321 50.8081 90.7684 50.7293 90.6908C50.0449 90.0173 49.1605 88.8038 48.1331 87.0442C46.1061 83.5728 43.8645 78.577 41.8043 73.2575C39.7513 67.9563 37.9188 62.4388 36.6928 57.9709C36.0786 55.7325 35.6286 53.8005 35.3756 52.3125C35.2488 51.5666 35.1791 50.9755 35.1564 50.5373ZM62.8459 89.1809C62.2464 89.6676 61.477 90.2735 60.5862 90.9334C58.434 92.5277 55.4716 94.5131 52.4328 95.8637C51.2889 96.3721 50.152 96.2261 49.2574 95.8555C48.4177 95.5076 47.7025 94.9349 47.1183 94.3599C45.9445 93.2047 44.7874 91.5237 43.6875 89.64C41.4598 85.8249 39.1037 80.5389 37.0038 75.1166C34.8967 69.676 33.0067 63.9918 31.7284 59.3332C31.0904 57.0083 30.5929 54.8959 30.3004 53.1752C30.1545 52.3167 30.0521 51.5124 30.0153 50.8037C29.9816 50.1541 29.9875 49.3526 30.2011 48.6212C30.5555 47.4078 31.4849 46.2068 32.3615 45.2195C33.3253 44.134 34.5778 42.9286 35.9971 41.6772C38.8426 39.1685 42.5162 36.3374 46.282 33.7062C50.0458 31.0764 53.9637 28.603 57.3051 26.829C58.9709 25.9446 60.5494 25.2041 61.9267 24.708C63.1701 24.2602 64.7046 23.8349 66.0644 24.0641C66.7376 24.1776 67.3031 24.4758 67.6969 24.7222C68.1219 24.9881 68.5368 25.3156 68.9299 25.6635C69.7169 26.3599 70.576 27.2807 71.4627 28.3428C73.2445 30.4767 75.2967 33.3724 77.3185 36.6738C81.3374 43.2365 85.4233 51.7093 86.9592 59.3391L89.8399 73.1614L88.832 73.3715C89.7336 77.6724 89.0823 81.3901 87.2716 84.4563C84.477 89.1884 79.2199 91.8372 74.2323 92.7723C70.1749 93.533 66.375 91.8311 63.4846 89.6605L62.8459 89.1809ZM84.2757 71.6952L84.8002 74.2118L84.9808 74.1741C85.7098 77.6642 85.1024 80.3864 83.8813 82.4542C81.8559 85.8839 77.8119 88.0952 73.5067 88.9024C70.9881 89.3746 68.3085 88.3592 65.8489 86.5121L53.1479 76.9743C52.6935 76.6331 52.5655 76.0064 52.8496 75.5143C53.1615 74.974 53.8541 74.7914 54.3919 75.1077L60.3601 78.6785L63.8052 76.7099L63.7162 76.65L63.7419 76.6352L52.4221 57.0288C52.1503 56.558 52.3116 55.956 52.7824 55.6841C53.2532 55.4123 53.8552 55.5736 54.127 56.0444L61.0174 67.9788L62.2477 70.1099L65.6575 68.1412L64.4272 66.0101L57.5368 54.0758L55.3221 50.2397C54.9144 49.5335 55.1564 48.6305 55.8626 48.2228C56.5688 47.8151 57.4718 48.0571 57.8795 48.7632L59.1099 50.8944L65.7352 62.3697L68.461 67.091L71.8708 65.1223L69.145 60.401L62.5197 48.9257C62.2479 48.4549 62.4092 47.8529 62.88 47.5811C63.3508 47.3093 63.9528 47.4706 64.2246 47.9414L69.1463 56.4659L72.3264 61.9741L73.6328 64.2368L77.0426 62.2682L75.7362 60.0054L72.5561 54.4973C72.2843 54.0265 72.4456 53.4245 72.9164 53.1527C73.3872 52.8808 73.9892 53.0422 74.261 53.513L82.1356 67.1522C83.0734 68.7765 83.775 70.289 84.2757 71.6952ZM64.9042 29.0508C64.9042 29.0506 64.9091 29.0528 64.9192 29.0584C64.9093 29.0539 64.9043 29.0511 64.9042 29.0508Z" fill="#00B056"/>
</svg>
