<svg width="60" height="73" viewBox="0 0 60 73" fill="none" xmlns="http://www.w3.org/2000/svg">
<path fill-rule="evenodd" clip-rule="evenodd" d="M5.15641 26.5373C5.14192 26.2577 5.15058 26.1046 5.15463 26.0458C5.17982 25.995 5.23809 25.8854 5.3554 25.7112C5.54437 25.4306 5.82507 25.0722 6.21107 24.6375C6.98324 23.7678 8.06634 22.716 9.40162 21.5388C12.0654 19.1902 15.5776 16.4785 19.2305 13.9261C22.8855 11.3724 26.6193 9.02163 29.7191 7.37595C31.2739 6.5505 32.6134 5.93238 33.6711 5.55148C34.4274 5.27908 34.8719 5.19175 35.0773 5.16122C35.1851 5.23824 35.3318 5.35369 35.5183 5.51873C36.0402 5.98053 36.7151 6.68885 37.5111 7.64222C39.095 9.53914 41.0036 12.2194 42.9283 15.3623C46.3345 20.9245 49.6443 27.6954 51.3212 33.8669L47.6708 27.5443C46.3117 25.1903 43.3017 24.3838 40.9477 25.7429C40.6558 25.9114 40.3877 26.1053 40.1445 26.3203L37.6345 21.9727C36.2754 19.6188 33.2654 18.8122 30.9114 20.1713C30.4688 20.4268 30.0809 20.7407 29.7519 21.0976C28.0778 19.9013 25.792 19.7172 23.8939 20.813C21.4184 22.2423 20.4986 25.3314 21.7289 27.8629C21.4165 27.9666 21.11 28.1033 20.8138 28.2743C18.4598 29.6334 17.6532 32.6434 19.0123 34.9974L26.3371 47.6843C23.9216 46.3004 20.8354 47.1284 19.4398 49.5457C18.1599 51.7624 18.7368 54.5857 20.7836 56.1227L28.5912 61.9858C28.2623 62.2411 27.9043 62.5135 27.522 62.7967C25.6511 64.1826 23.284 65.7625 20.938 66.8843C20.8777 66.8321 20.8081 66.7684 20.7293 66.6908C20.0449 66.0173 19.1605 64.8038 18.1331 63.0442C16.1061 59.5728 13.8645 54.577 11.8043 49.2575C9.75128 43.9563 7.9188 38.4388 6.69284 33.9709C6.07863 31.7325 5.62857 29.8005 5.37563 28.3125C5.24884 27.5666 5.17912 26.9755 5.15641 26.5373ZM32.8459 65.1809C32.2464 65.6676 31.477 66.2735 30.5862 66.9334C28.434 68.5277 25.4716 70.5131 22.4328 71.8637C21.2889 72.3721 20.152 72.2261 19.2574 71.8555C18.4177 71.5076 17.7025 70.9349 17.1183 70.3599C15.9445 69.2047 14.7874 67.5237 13.6875 65.64C11.4598 61.8249 9.1037 56.5389 7.00375 51.1166C4.89668 45.676 3.00665 39.9918 1.72836 35.3332C1.09044 33.0083 0.592934 30.8959 0.300441 29.1752C0.154517 28.3167 0.0520534 27.5124 0.0153218 26.8037C-0.0183521 26.1541 -0.0125112 25.3526 0.201122 24.6212C0.555502 23.4078 1.48487 22.2068 2.36153 21.2195C3.32534 20.134 4.57776 18.9286 5.99713 17.6772C8.84263 15.1685 12.5162 12.3374 16.282 9.70617C20.0458 7.07638 23.9637 4.60298 27.3051 2.82902C28.9709 1.94465 30.5494 1.20407 31.9267 0.708034C33.1701 0.260222 34.7046 -0.165128 36.0644 0.0641386C36.7376 0.177638 37.3031 0.475778 37.6969 0.722223C38.1219 0.988105 38.5368 1.31563 38.9299 1.66348C39.7169 2.35993 40.576 3.28074 41.4627 4.34277C43.2445 6.47665 45.2967 9.37237 47.3185 12.6738C51.3374 19.2365 55.4233 27.7093 56.9592 35.3391L59.8399 49.1614L58.832 49.3715C59.7336 53.6724 59.0823 57.3901 57.2716 60.4563C54.477 65.1884 49.2199 67.8372 44.2323 68.7723C40.1749 69.533 36.375 67.8311 33.4846 65.6605L32.8459 65.1809ZM54.2757 47.6952L54.8002 50.2118L54.9808 50.1741C55.7098 53.6642 55.1024 56.3864 53.8813 58.4542C51.8559 61.8839 47.8119 64.0952 43.5067 64.9024C40.9881 65.3746 38.3085 64.3592 35.8489 62.5121L23.1479 52.9743C22.6935 52.6331 22.5655 52.0064 22.8496 51.5143C23.1615 50.974 23.8541 50.7914 24.3919 51.1077L30.3601 54.6785L33.8052 52.7099L33.7162 52.65L33.7419 52.6352L22.4221 33.0288C22.1503 32.558 22.3116 31.956 22.7824 31.6841C23.2532 31.4123 23.8552 31.5736 24.127 32.0444L31.0174 43.9788L32.2477 46.1099L35.6575 44.1412L34.4272 42.0101L27.5368 30.0758L25.3221 26.2397C24.9144 25.5335 25.1564 24.6305 25.8626 24.2228C26.5688 23.8151 27.4718 24.0571 27.8795 24.7632L29.1099 26.8944L35.7352 38.3697L38.461 43.091L41.8708 41.1223L39.145 36.401L32.5197 24.9257C32.2479 24.4549 32.4092 23.8529 32.88 23.5811C33.3508 23.3093 33.9528 23.4706 34.2246 23.9414L39.1463 32.4659L42.3264 37.9741L43.6328 40.2368L47.0426 38.2682L45.7362 36.0054L42.5561 30.4973C42.2843 30.0265 42.4456 29.4245 42.9164 29.1527C43.3872 28.8808 43.9892 29.0422 44.261 29.513L52.1356 43.1522C53.0734 44.7765 53.775 46.289 54.2757 47.6952ZM34.9042 5.05083C34.9042 5.05058 34.9091 5.05285 34.9192 5.05838C34.9093 5.05385 34.9043 5.05108 34.9042 5.05083Z" fill="#00B056"/>
</svg>
