<svg width="72" height="53" viewBox="0 0 72 53" fill="none" xmlns="http://www.w3.org/2000/svg">
<path fill-rule="evenodd" clip-rule="evenodd" d="M39.6469 0L72 21.3281L68.1392 23.2832C65.6252 24.5562 64.0419 26.7788 61.9617 29.6989C61.6908 30.0792 61.4115 30.4712 61.1207 30.8746C58.7148 34.2106 55.6782 37.9631 50.1883 39.7006C45.125 41.3031 41.444 41.3012 38.5403 41.2238C38.4395 41.2211 38.3402 41.2184 38.2427 41.2158C35.4813 41.1412 34.0145 41.1015 32.3908 41.9237C31.7933 42.2263 31.4952 42.5368 31.3225 42.7954C31.1411 43.067 31.0088 43.4162 30.9294 43.9119C30.8464 44.43 30.8331 45.019 30.8421 45.7622C30.8435 45.8817 30.8457 46.009 30.848 46.1422C30.8585 46.7537 30.8712 47.4897 30.8232 48.1706L30.4825 53L0 27.7414L0.091248 26.4476C0.204041 24.8483 0.630827 22.3925 1.56598 20.0276C2.47624 17.7256 4.0476 15.0593 6.72809 13.7019C8.4453 12.8324 10.1583 12.7154 11.7463 12.8627C12.9653 12.9757 14.2685 13.2679 15.4712 13.5375C15.7436 13.5985 16.0108 13.6585 16.2707 13.7149C19.1951 14.3495 22.3557 14.8427 26.4371 13.551C28.4727 12.9067 29.5895 12.1322 30.2902 11.404C31.0062 10.6598 31.448 9.80341 31.9272 8.65925C32.0172 8.44438 32.1078 8.21932 32.2017 7.98599C33.1111 5.72608 34.3324 2.69118 38.3741 0.644504L39.6469 0ZM33.8453 14.898C32.4581 16.3399 30.5715 17.4943 27.9189 18.3339C22.6236 20.0098 18.4587 19.3159 15.2297 18.6151C14.8834 18.54 14.5589 18.4676 14.2522 18.3993C13.0809 18.1381 12.1693 17.9349 11.2933 17.8537C10.2807 17.7598 9.57627 17.8654 8.94932 18.1829C7.87917 18.7248 6.91103 20.0153 6.17062 21.8877C5.67143 23.1501 5.35743 24.4742 5.18515 25.5569L26.0764 42.868C26.2496 41.9377 26.579 40.9397 27.2126 39.9911C27.9104 38.9464 28.8918 38.0897 30.1696 37.4427C32.9452 36.0372 35.6143 36.1198 38.0625 36.1956C38.2669 36.202 38.4698 36.2083 38.6711 36.2136C41.3347 36.2846 44.3932 36.2828 48.7065 34.9176C52.5932 33.6875 54.831 31.0874 57.1134 27.9224C57.3725 27.5631 57.6357 27.1896 57.9055 26.8066C59.2188 24.9425 60.6886 22.8564 62.603 21.1172L39.4266 5.83857C38.0282 6.87982 37.5109 8.14009 36.7856 9.90704C36.6924 10.1339 36.5959 10.3691 36.4936 10.6133C35.9473 11.9174 35.217 13.4722 33.8453 14.898Z" fill="#00B056"/>
</svg>
