<svg width="53" height="51" viewBox="0 0 53 51" fill="none" xmlns="http://www.w3.org/2000/svg">
<path fill-rule="evenodd" clip-rule="evenodd" d="M8.27119 14.6977V10.8585C8.45635 9.69776 8.91578 8.03565 9.67179 6.69954C10.4897 5.2541 11.3234 4.71924 12.0955 4.71924H25.1865H27.6271H40.7181C41.4902 4.71924 42.3239 5.2541 43.1418 6.69954C43.8978 8.03565 44.3573 9.69776 44.5424 10.8585V14.6977H27.6271H25.1865H8.27119ZM25.1865 18.6977H6.27119C5.45989 18.6977 4.98918 19.0352 4.63868 19.5188C4.25378 20.0499 4.05433 20.7335 4 21.1921V39.9811L4.00871 40.0001C4.0426 40.0719 4.08297 40.1328 4.12167 40.176C4.15779 40.2164 4.183 40.2314 4.19559 40.2375C4.20306 40.2411 4.23864 40.2582 4.32974 40.2582H25.1865H27.6271H48.4839C48.575 40.2582 48.6105 40.2411 48.618 40.2375C48.6306 40.2314 48.6558 40.2164 48.6919 40.176C48.7306 40.1328 48.771 40.0719 48.8049 40.0001L48.8136 39.9811V21.1921C48.7593 20.7335 48.5598 20.0499 48.1749 19.5188C47.8244 19.0352 47.3537 18.6977 46.5424 18.6977H27.6271H25.1865ZM25.1865 44.2582H16.037V50.6514H4.27119V44.2579C2.87605 44.2407 1.82643 43.6099 1.14027 42.8427C0.492686 42.1187 0.159539 41.2744 0.0367693 40.643L0 40.4539V21.0027L0.00776625 20.9148C0.0968504 19.9069 0.479626 18.4412 1.39985 17.1715C2.06224 16.2575 3.01198 15.4448 4.27119 15.0168V12.7069H2V8.70691H4.638C4.95673 7.45251 5.45945 6.0216 6.19046 4.72969C7.25578 2.84693 9.14005 0.719238 12.0955 0.719238H25.1865H27.6271H40.7181C43.6735 0.719238 45.5578 2.84693 46.6231 4.72969C47.3541 6.0216 47.8569 7.45251 48.1756 8.70691H50.8136V12.7069H48.5424V15.0168C49.8016 15.4448 50.7514 16.2575 51.4138 17.1715C52.334 18.4412 52.7167 19.9069 52.8058 20.9148L52.8136 21.0027V40.4539L52.7768 40.643C52.6541 41.2744 52.3209 42.1187 51.6733 42.8427C50.9872 43.6099 49.9375 44.2407 48.5424 44.2579V50.6514H36.7766V44.2582H27.6271H25.1865ZM8.27119 46.6514V44.2582H12.037V46.6514H8.27119ZM44.5424 46.6514V44.2582H40.7766V46.6514H44.5424Z" fill="#00B056"/>
</svg>
