<svg width="121" height="120" viewBox="0 0 121 120" fill="none" xmlns="http://www.w3.org/2000/svg">
<path d="M117.5 60C117.5 91.4802 91.9802 117 60.5 117C29.0198 117 3.5 91.4802 3.5 60C3.5 28.5198 29.0198 3 60.5 3C91.9802 3 117.5 28.5198 117.5 60Z" stroke="#00B056" stroke-width="6"/>
<path fill-rule="evenodd" clip-rule="evenodd" d="M64.1469 34L96.5 55.3281L92.6392 57.2832C90.1252 58.5562 88.5419 60.7788 86.4617 63.6989C86.1908 64.0792 85.9115 64.4712 85.6207 64.8746C83.2148 68.2106 80.1782 71.9631 74.6883 73.7006C69.625 75.3031 65.944 75.3012 63.0403 75.2238C62.9395 75.2211 62.8402 75.2184 62.7427 75.2158C59.9813 75.1412 58.5145 75.1015 56.8908 75.9237C56.2933 76.2263 55.9952 76.5368 55.8225 76.7954C55.6411 77.067 55.5088 77.4162 55.4294 77.9119C55.3464 78.43 55.3331 79.019 55.3421 79.7622C55.3435 79.8817 55.3457 80.009 55.348 80.1422C55.3585 80.7537 55.3712 81.4897 55.3232 82.1706L54.9825 87L24.5 61.7414L24.5912 60.4476C24.704 58.8483 25.1308 56.3925 26.066 54.0276C26.9762 51.7256 28.5476 49.0593 31.2281 47.7019C32.9453 46.8324 34.6583 46.7154 36.2463 46.8627C37.4653 46.9757 38.7685 47.2679 39.9712 47.5375C40.2436 47.5985 40.5108 47.6585 40.7707 47.7149C43.6951 48.3495 46.8557 48.8427 50.9371 47.551C52.9727 46.9067 54.0895 46.1322 54.7902 45.404C55.5062 44.6598 55.948 43.8034 56.4272 42.6593C56.5172 42.4444 56.6078 42.2193 56.7017 41.986C57.6111 39.7261 58.8324 36.6912 62.8741 34.6445L64.1469 34ZM58.3453 48.898C56.9581 50.3399 55.0715 51.4943 52.4189 52.3339C47.1236 54.0098 42.9587 53.3159 39.7297 52.6151C39.3834 52.54 39.0589 52.4676 38.7522 52.3993C37.5809 52.1381 36.6693 51.9349 35.7933 51.8537C34.7807 51.7598 34.0763 51.8654 33.4493 52.1829C32.3792 52.7248 31.411 54.0153 30.6706 55.8877C30.1714 57.1501 29.8574 58.4742 29.6851 59.5569L50.5764 76.868C50.7496 75.9377 51.079 74.9397 51.7126 73.9911C52.4104 72.9464 53.3918 72.0897 54.6696 71.4427C57.4452 70.0372 60.1143 70.1198 62.5625 70.1956C62.7669 70.202 62.9698 70.2083 63.1711 70.2136C65.8347 70.2846 68.8932 70.2828 73.2065 68.9176C77.0932 67.6875 79.331 65.0874 81.6134 61.9224C81.8725 61.5631 82.1357 61.1896 82.4055 60.8066C83.7188 58.9425 85.1886 56.8564 87.103 55.1172L63.9266 39.8386C62.5282 40.8798 62.0109 42.1401 61.2856 43.907C61.1924 44.1339 61.0959 44.3691 60.9936 44.6133C60.4473 45.9174 59.717 47.4722 58.3453 48.898Z" fill="#00B056"/>
</svg>
