<svg width="121" height="120" viewBox="0 0 121 120" fill="none" xmlns="http://www.w3.org/2000/svg">
<path d="M117.5 60C117.5 91.4802 91.9802 117 60.5 117C29.0198 117 3.5 91.4802 3.5 60C3.5 28.5198 29.0198 3 60.5 3C91.9802 3 117.5 28.5198 117.5 60Z" stroke="#00B056" stroke-width="6"/>
<path d="M30.5 38H90.5V43H79.5H69.5H60.5H50.5H40.5H30.5V38Z" fill="#00B056"/>
<path fill-rule="evenodd" clip-rule="evenodd" d="M55.5 58C55.5 55.2386 57.7386 53 60.5 53C62.4791 53 64.1896 54.1499 65 55.8179C65.8104 54.1499 67.5209 53 69.5 53C72.2614 53 74.5 55.2386 74.5 58C74.5 60.7614 72.2614 63 69.5 63C67.5209 63 65.8104 61.8501 65 60.1821C64.1896 61.8501 62.4791 63 60.5 63C57.7386 63 55.5 60.7614 55.5 58ZM60.5 61C62.1569 61 63.5 59.6569 63.5 58C63.5 56.3431 62.1569 55 60.5 55C58.8431 55 57.5 56.3431 57.5 58C57.5 59.6569 58.8431 61 60.5 61ZM69.5 61C71.1569 61 72.5 59.6569 72.5 58C72.5 56.3431 71.1569 55 69.5 55C67.8431 55 66.5 56.3431 66.5 58C66.5 59.6569 67.8431 61 69.5 61Z" fill="#00B056"/>
<path fill-rule="evenodd" clip-rule="evenodd" d="M55.5 58C55.5 55.2386 53.2614 53 50.5 53C47.7386 53 45.5 55.2386 45.5 58C45.5 60.7614 47.7386 63 50.5 63C53.2614 63 55.5 60.7614 55.5 58ZM50.5 61C52.1569 61 53.5 59.6569 53.5 58C53.5 56.3431 52.1569 55 50.5 55C48.8431 55 47.5 56.3431 47.5 58C47.5 59.6569 48.8431 61 50.5 61Z" fill="#00B056"/>
<path fill-rule="evenodd" clip-rule="evenodd" d="M45.5 48C45.5 45.2386 43.2614 43 40.5 43C37.7386 43 35.5 45.2386 35.5 48C35.5 50.7614 37.7386 53 40.5 53C37.7386 53 35.5 55.2386 35.5 58C35.5 60.7614 37.7386 63 40.5 63H30.5V68H90.5V63H79.5C82.2614 63 84.5 60.7614 84.5 58C84.5 55.2386 82.2614 53 79.5 53C82.2614 53 84.5 50.7614 84.5 48C84.5 45.2386 82.2614 43 79.5 43C76.7386 43 74.5 45.2386 74.5 48C74.5 45.2386 72.2614 43 69.5 43C67.5209 43 65.8104 44.1499 65 45.8179C64.1896 44.1499 62.4791 43 60.5 43C57.7386 43 55.5 45.2386 55.5 48C55.5 45.2386 53.2614 43 50.5 43C47.7386 43 45.5 45.2386 45.5 48ZM50.5 53C47.7386 53 45.5 50.7614 45.5 48C45.5 50.7614 43.2614 53 40.5 53C43.2614 53 45.5 55.2386 45.5 58C45.5 60.7614 43.2614 63 40.5 63H50.5H60.5H69.5H79.5C76.7386 63 74.5 60.7614 74.5 58C74.5 55.2386 76.7386 53 79.5 53C76.7386 53 74.5 50.7614 74.5 48C74.5 50.7614 72.2614 53 69.5 53C67.5209 53 65.8104 51.8501 65 50.1821C64.1896 51.8501 62.4791 53 60.5 53C57.7386 53 55.5 50.7614 55.5 48C55.5 50.7614 53.2614 53 50.5 53ZM43.5 48C43.5 49.6569 42.1569 51 40.5 51C38.8431 51 37.5 49.6569 37.5 48C37.5 46.3431 38.8431 45 40.5 45C42.1569 45 43.5 46.3431 43.5 48ZM40.5 61C42.1569 61 43.5 59.6569 43.5 58C43.5 56.3431 42.1569 55 40.5 55C38.8431 55 37.5 56.3431 37.5 58C37.5 59.6569 38.8431 61 40.5 61ZM53.5 48C53.5 49.6569 52.1569 51 50.5 51C48.8431 51 47.5 49.6569 47.5 48C47.5 46.3431 48.8431 45 50.5 45C52.1569 45 53.5 46.3431 53.5 48ZM63.5 48C63.5 49.6569 62.1569 51 60.5 51C58.8431 51 57.5 49.6569 57.5 48C57.5 46.3431 58.8431 45 60.5 45C62.1569 45 63.5 46.3431 63.5 48ZM72.5 48C72.5 49.6569 71.1569 51 69.5 51C67.8431 51 66.5 49.6569 66.5 48C66.5 46.3431 67.8431 45 69.5 45C71.1569 45 72.5 46.3431 72.5 48ZM82.5 48C82.5 49.6569 81.1569 51 79.5 51C77.8431 51 76.5 49.6569 76.5 48C76.5 46.3431 77.8431 45 79.5 45C81.1569 45 82.5 46.3431 82.5 48ZM79.5 61C81.1569 61 82.5 59.6569 82.5 58C82.5 56.3431 81.1569 55 79.5 55C77.8431 55 76.5 56.3431 76.5 58C76.5 59.6569 77.8431 61 79.5 61Z" fill="#00B056"/>
<path d="M45.6162 78.7817C45.849 78.9637 45.9653 79.2176 45.9653 79.5435C45.9653 79.8312 45.8574 80.0555 45.6416 80.2163C45.43 80.3729 45.1401 80.4512 44.772 80.4512C44.1965 80.4512 43.7796 80.3348 43.5215 80.1021C43.2676 79.8651 43.1406 79.499 43.1406 79.0039H40.9062C40.9062 79.6133 41.0586 80.1528 41.3633 80.6226C41.6722 81.0881 42.1292 81.4562 42.7344 81.7271C43.3438 81.9937 44.0229 82.127 44.772 82.127C45.8341 82.127 46.6699 81.8963 47.2793 81.4351C47.8887 80.9738 48.1934 80.339 48.1934 79.5308C48.1934 78.5194 47.694 77.7259 46.6953 77.1504C46.2848 76.9134 45.7601 76.6934 45.1211 76.4902C44.4821 76.2829 44.0356 76.084 43.7817 75.8936C43.5278 75.6989 43.4009 75.4831 43.4009 75.2461C43.4009 74.9753 43.5151 74.7531 43.7437 74.5796C43.9764 74.4019 44.2917 74.313 44.6895 74.313C45.083 74.313 45.394 74.4167 45.6226 74.624C45.8553 74.8314 45.9717 75.1234 45.9717 75.5H48.1934C48.1934 74.9372 48.0474 74.4378 47.7554 74.002C47.4634 73.5618 47.0529 73.2233 46.5239 72.9863C45.9992 72.7493 45.4046 72.6309 44.7402 72.6309C44.0589 72.6309 43.4453 72.7409 42.8994 72.9609C42.3535 73.1768 41.9303 73.4814 41.6299 73.875C41.3337 74.2643 41.1855 74.715 41.1855 75.2271C41.1855 76.2554 41.7843 77.0636 42.9819 77.6519C43.3501 77.8338 43.8241 78.0221 44.4038 78.2168C44.9836 78.4115 45.3877 78.5998 45.6162 78.7817Z" fill="#00B056"/>
<path d="M49.4883 82H51.71V72.7578H49.4883V82Z" fill="#00B056"/>
<path d="M59.3652 80.2861H55.4868V72.7578H53.2588V82H59.3652V80.2861Z" fill="#00B056"/>
<path d="M60.457 82H62.6787V72.7578H60.457V82Z" fill="#00B056"/>
<path fill-rule="evenodd" clip-rule="evenodd" d="M66.4556 79.5625L67.3696 78.5596L69.3374 82H74.2061L74.7393 80.2734H77.7925L78.332 82H80.7251L77.3101 72.7578H75.2153L71.8831 81.8434L68.855 76.8457L71.978 72.7578H69.2231L67.23 75.6587L66.4556 76.833V72.7578H64.2275V82H66.4556V79.5625ZM77.2593 78.5532H75.2725L76.2627 75.3477L77.2593 78.5532Z" fill="#00B056"/>
</svg>
