<svg width="60" height="45" viewBox="0 0 60 45" fill="none" xmlns="http://www.w3.org/2000/svg">
<path d="M0 0H60V5H49H39H30H20H10H0V0Z" fill="#00B056"/>
<path fill-rule="evenodd" clip-rule="evenodd" d="M25 20C25 17.2386 27.2386 15 30 15C31.9791 15 33.6896 16.1499 34.5 17.8179C35.3104 16.1499 37.0209 15 39 15C41.7614 15 44 17.2386 44 20C44 22.7614 41.7614 25 39 25C37.0209 25 35.3104 23.8501 34.5 22.1821C33.6896 23.8501 31.9791 25 30 25C27.2386 25 25 22.7614 25 20ZM30 23C31.6569 23 33 21.6569 33 20C33 18.3431 31.6569 17 30 17C28.3431 17 27 18.3431 27 20C27 21.6569 28.3431 23 30 23ZM39 23C40.6569 23 42 21.6569 42 20C42 18.3431 40.6569 17 39 17C37.3431 17 36 18.3431 36 20C36 21.6569 37.3431 23 39 23Z" fill="#00B056"/>
<path fill-rule="evenodd" clip-rule="evenodd" d="M25 20C25 17.2386 22.7614 15 20 15C17.2386 15 15 17.2386 15 20C15 22.7614 17.2386 25 20 25C22.7614 25 25 22.7614 25 20ZM20 23C21.6569 23 23 21.6569 23 20C23 18.3431 21.6569 17 20 17C18.3431 17 17 18.3431 17 20C17 21.6569 18.3431 23 20 23Z" fill="#00B056"/>
<path fill-rule="evenodd" clip-rule="evenodd" d="M15 10C15 7.23858 12.7614 5 10 5C7.23858 5 5 7.23858 5 10C5 12.7614 7.23858 15 10 15C7.23858 15 5 17.2386 5 20C5 22.7614 7.23858 25 10 25H0V30H60V25H49C51.7614 25 54 22.7614 54 20C54 17.2386 51.7614 15 49 15C51.7614 15 54 12.7614 54 10C54 7.23858 51.7614 5 49 5C46.2386 5 44 7.23858 44 10C44 7.23858 41.7614 5 39 5C37.0209 5 35.3104 6.14985 34.5 7.81794C33.6896 6.14985 31.9791 5 30 5C27.2386 5 25 7.23858 25 10C25 7.23858 22.7614 5 20 5C17.2386 5 15 7.23858 15 10ZM20 15C17.2386 15 15 12.7614 15 10C15 12.7614 12.7614 15 10 15C12.7614 15 15 17.2386 15 20C15 22.7614 12.7614 25 10 25H20H30H39H49C46.2386 25 44 22.7614 44 20C44 17.2386 46.2386 15 49 15C46.2386 15 44 12.7614 44 10C44 12.7614 41.7614 15 39 15C37.0209 15 35.3104 13.8501 34.5 12.1821C33.6896 13.8501 31.9791 15 30 15C27.2386 15 25 12.7614 25 10C25 12.7614 22.7614 15 20 15ZM13 10C13 11.6569 11.6569 13 10 13C8.34315 13 7 11.6569 7 10C7 8.34315 8.34315 7 10 7C11.6569 7 13 8.34315 13 10ZM10 23C11.6569 23 13 21.6569 13 20C13 18.3431 11.6569 17 10 17C8.34315 17 7 18.3431 7 20C7 21.6569 8.34315 23 10 23ZM23 10C23 11.6569 21.6569 13 20 13C18.3431 13 17 11.6569 17 10C17 8.34315 18.3431 7 20 7C21.6569 7 23 8.34315 23 10ZM33 10C33 11.6569 31.6569 13 30 13C28.3431 13 27 11.6569 27 10C27 8.34315 28.3431 7 30 7C31.6569 7 33 8.34315 33 10ZM42 10C42 11.6569 40.6569 13 39 13C37.3431 13 36 11.6569 36 10C36 8.34315 37.3431 7 39 7C40.6569 7 42 8.34315 42 10ZM52 10C52 11.6569 50.6569 13 49 13C47.3431 13 46 11.6569 46 10C46 8.34315 47.3431 7 49 7C50.6569 7 52 8.34315 52 10ZM49 23C50.6569 23 52 21.6569 52 20C52 18.3431 50.6569 17 49 17C47.3431 17 46 18.3431 46 20C46 21.6569 47.3431 23 49 23Z" fill="#00B056"/>
<path d="M15.1162 40.7817C15.349 40.9637 15.4653 41.2176 15.4653 41.5435C15.4653 41.8312 15.3574 42.0555 15.1416 42.2163C14.93 42.3729 14.6401 42.4512 14.272 42.4512C13.6965 42.4512 13.2796 42.3348 13.0215 42.1021C12.7676 41.8651 12.6406 41.499 12.6406 41.0039H10.4062C10.4062 41.6133 10.5586 42.1528 10.8633 42.6226C11.1722 43.0881 11.6292 43.4562 12.2344 43.7271C12.8438 43.9937 13.5229 44.127 14.272 44.127C15.3341 44.127 16.1699 43.8963 16.7793 43.4351C17.3887 42.9738 17.6934 42.339 17.6934 41.5308C17.6934 40.5194 17.194 39.7259 16.1953 39.1504C15.7848 38.9134 15.2601 38.6934 14.6211 38.4902C13.9821 38.2829 13.5356 38.084 13.2817 37.8936C13.0278 37.6989 12.9009 37.4831 12.9009 37.2461C12.9009 36.9753 13.0151 36.7531 13.2437 36.5796C13.4764 36.4019 13.7917 36.313 14.1895 36.313C14.583 36.313 14.894 36.4167 15.1226 36.624C15.3553 36.8314 15.4717 37.1234 15.4717 37.5H17.6934C17.6934 36.9372 17.5474 36.4378 17.2554 36.002C16.9634 35.5618 16.5529 35.2233 16.0239 34.9863C15.4992 34.7493 14.9046 34.6309 14.2402 34.6309C13.5589 34.6309 12.9453 34.7409 12.3994 34.9609C11.8535 35.1768 11.4303 35.4814 11.1299 35.875C10.8337 36.2643 10.6855 36.715 10.6855 37.2271C10.6855 38.2554 11.2843 39.0636 12.4819 39.6519C12.8501 39.8338 13.3241 40.0221 13.9038 40.2168C14.4836 40.4115 14.8877 40.5998 15.1162 40.7817Z" fill="#00B056"/>
<path d="M18.9883 44H21.21V34.7578H18.9883V44Z" fill="#00B056"/>
<path d="M28.8652 42.2861H24.9868V34.7578H22.7588V44H28.8652V42.2861Z" fill="#00B056"/>
<path d="M29.957 44H32.1787V34.7578H29.957V44Z" fill="#00B056"/>
<path fill-rule="evenodd" clip-rule="evenodd" d="M35.9556 41.5625L36.8696 40.5596L38.8374 44H43.7061L44.2393 42.2734H47.2925L47.832 44H50.2251L46.8101 34.7578H44.7153L41.3831 43.8434L38.355 38.8457L41.478 34.7578H38.7231L36.73 37.6587L35.9556 38.833V34.7578H33.7275V44H35.9556V41.5625ZM46.7593 40.5532H44.7725L45.7627 37.3477L46.7593 40.5532Z" fill="#00B056"/>
</svg>
