<svg width="129" height="128" viewBox="0 0 129 128" fill="none" xmlns="http://www.w3.org/2000/svg">
<g filter="url(#filter0_d)">
<path d="M121.5 60C121.5 91.4802 95.9802 117 64.5 117C33.0198 117 7.5 91.4802 7.5 60C7.5 28.5198 33.0198 3 64.5 3C95.9802 3 121.5 28.5198 121.5 60Z" stroke="#00B056" stroke-width="6"/>
<path fill-rule="evenodd" clip-rule="evenodd" d="M60.235 28.2456C55.8461 34.5121 48.3095 46.1279 48.3095 52C48.3095 60.2843 55.0252 67 63.3095 67C71.5938 67 78.3095 60.2843 78.3095 52C78.3095 46.1279 70.7729 34.5121 66.384 28.2456C64.5812 25.6715 63.3095 24 63.3095 24C63.3095 24 62.0378 25.6715 60.235 28.2456ZM63.3095 62C68.8323 62 73.3095 57.5228 73.3095 52C73.3095 51.1086 72.8061 49.1829 71.4348 46.2445C70.152 43.4957 68.3972 40.4504 66.5766 37.5547C65.4545 35.7701 64.3293 34.0765 63.3095 32.5878C62.2897 34.0765 61.1645 35.7701 60.0424 37.5547C58.2218 40.4504 56.467 43.4957 55.1841 46.2445C53.8129 49.1829 53.3095 51.1086 53.3095 52C53.3095 57.5228 57.7867 62 63.3095 62Z" fill="#00B056"/>
<path d="M86.6124 66.7373L97.5722 68.3029L96.0065 79.2627L92.0468 78.6971L92.6207 74.6795L71.3095 91.5509L63.3095 85.2175L55.3095 91.5509L28.5 70.3267L30.9828 67.1905L55.3095 86.4491L60.0873 82.6667L44.5 70.3267L46.9828 67.1905L63.3095 80.1158L74.418 71.3215L70.0468 70.6971L70.6124 66.7373L81.5722 68.3029L80.0066 79.2627L76.0468 78.6971L76.6207 74.6795L66.5317 82.6667L71.3095 86.4491L90.418 71.3215L86.0468 70.6971L86.6124 66.7373Z" fill="#00B056"/>
</g>
<defs>
<filter id="filter0_d" x="0.5" y="0" width="128" height="128" filterUnits="userSpaceOnUse" color-interpolation-filters="sRGB">
<feFlood flood-opacity="0" result="BackgroundImageFix"/>
<feColorMatrix in="SourceAlpha" type="matrix" values="0 0 0 0 0 0 0 0 0 0 0 0 0 0 0 0 0 0 127 0"/>
<feOffset dy="4"/>
<feGaussianBlur stdDeviation="2"/>
<feColorMatrix type="matrix" values="0 0 0 0 0 0 0 0 0 0 0 0 0 0 0 0 0 0 0.25 0"/>
<feBlend mode="normal" in2="BackgroundImageFix" result="effect1_dropShadow"/>
<feBlend mode="normal" in="SourceGraphic" in2="effect1_dropShadow" result="shape"/>
</filter>
</defs>
</svg>
