<svg width="60" height="72" viewBox="0 0 60 72" fill="none" xmlns="http://www.w3.org/2000/svg">
<path fill-rule="evenodd" clip-rule="evenodd" d="M31.3986 8.64146C29.3062 7.08917 27.6163 7.21413 27.6163 7.21413C27.6163 7.21413 29.3479 6.79853 31.3138 5.27625C31.7124 4.96764 32.1206 4.61356 32.5259 4.20824C32.7904 3.94375 33.0258 3.68653 33.2353 3.43819C34.9306 1.42862 34.9306 0 34.9306 0C34.9306 0 35.0068 1.3575 36.6879 3.45473C36.8816 3.6964 37.0966 3.94788 37.3353 4.20824C37.732 4.64106 38.1361 5.01216 38.5353 5.33024C40.66 7.02315 42.6457 7.21413 42.6457 7.21413C42.6457 7.21413 40.6325 7.0871 38.4325 8.68023C38.0691 8.94339 37.7006 9.25349 37.3353 9.61884C37.0656 9.88854 36.826 10.161 36.6132 10.4328C35.1524 12.2982 34.9525 14.129 34.9306 14.7801C34.9087 14.129 34.7088 12.2982 33.248 10.4328C33.0352 10.161 32.7956 9.88854 32.5259 9.61884C32.1424 9.23538 31.7644 8.9128 31.3986 8.64146ZM34.9306 15.0294C34.9306 15.0294 34.936 14.9406 34.9306 14.7801C34.9252 14.9406 34.9306 15.0294 34.9306 15.0294ZM33.7896 6.91676C34.0377 7.12993 34.2867 7.36029 34.5355 7.60917C34.6729 7.74651 34.8045 7.88465 34.9306 8.0233C35.0567 7.88465 35.1883 7.74651 35.3256 7.60917C35.5655 7.36929 35.8073 7.14687 36.0498 6.94066C35.7782 6.6905 35.5076 6.42037 35.2402 6.12872C35.1377 6.01688 35.0384 5.90595 34.9424 5.79596C34.8126 5.93569 34.6771 6.07639 34.5355 6.21792C34.2873 6.46616 34.038 6.69881 33.7896 6.91676ZM0 20.3568C0 20.3568 1.50969 19.1758 4.36481 18.9815C5.1153 18.9305 5.95876 18.9476 6.8922 19.0722C7.69113 19.1789 8.40108 19.3576 9.02841 19.5794C11.2989 20.3821 12.487 21.7484 12.8935 22.2998C12.9934 22.4592 13.0578 22.5412 13.0578 22.5412C13.0578 22.5412 13.0051 22.4512 12.8935 22.2998C12.5295 21.7194 11.694 20.1132 11.7798 17.7065C11.8034 17.0415 11.8975 16.3155 12.0912 15.5331C12.3077 14.6584 12.6029 13.8847 12.9367 13.2066C14.279 10.4798 16.2467 9.29701 16.2467 9.29701C16.2467 9.29701 14.2616 10.412 11.2158 10.496C10.3906 10.5187 9.48756 10.4658 8.52505 10.2945C7.76969 10.16 7.11144 9.99837 6.53996 9.82381C3.96579 9.03753 3.15194 7.98956 3.15194 7.98956C3.15194 7.98956 3.93501 9.13991 3.68754 11.7643C3.63011 12.3733 3.51718 13.0617 3.32609 13.8336C3.09465 14.7684 2.79571 15.6162 2.47212 16.368C1.37721 18.9118 0 20.3568 0 20.3568ZM7.26834 16.2551C6.6914 16.178 6.13924 16.1347 5.6126 16.1191C5.78619 15.6128 5.94585 15.0783 6.0849 14.5166C6.23996 13.8903 6.35355 13.3004 6.43235 12.7459C6.92463 12.874 7.45534 12.9909 8.02705 13.0926C8.64027 13.2017 9.23392 13.2713 9.80478 13.3087C9.62654 13.7925 9.46702 14.3061 9.33235 14.85C9.18192 15.4576 9.07872 16.0422 9.01474 16.602C8.47046 16.4563 7.88875 16.3379 7.26834 16.2551ZM15.0596 34.3014V37.9385H31.0846H33.3968H49.4218V34.3014C49.2464 33.2018 48.8111 31.6271 48.0949 30.3614C47.3201 28.992 46.5302 28.4853 45.7987 28.4853H33.3968H31.0846H18.6827C17.9512 28.4853 17.1614 28.992 16.3865 30.3614C15.6703 31.6271 15.2351 33.2018 15.0596 34.3014ZM13.1649 41.728H31.0846H33.3968H51.3165C52.0851 41.728 52.5311 42.0477 52.8631 42.5059C53.2278 43.009 53.4167 43.6567 53.4682 44.0912V61.8913L53.4599 61.9093C53.4278 61.9773 53.3896 62.0349 53.3529 62.0759C53.3187 62.1142 53.2948 62.1284 53.2829 62.1341C53.2758 62.1375 53.2421 62.1538 53.1558 62.1538H33.3968H31.0846H11.3256C11.2393 62.1538 11.2056 62.1375 11.1986 62.1341C11.1866 62.1284 11.1627 62.1142 11.1285 62.0759C11.0919 62.0349 11.0536 61.9773 11.0215 61.9093L11.0133 61.8913V44.0912C11.0647 43.6567 11.2537 43.009 11.6183 42.5059C11.9504 42.0477 12.3963 41.728 13.1649 41.728ZM22.4167 65.9433H31.0846H33.3968H42.0647V72H53.2113V65.9429C54.533 65.9266 55.5274 65.329 56.1774 64.6023C56.7909 63.9164 57.1065 63.1165 57.2228 62.5184L57.2577 62.3392V43.9117L57.2503 43.8284C57.1659 42.8736 56.8033 41.485 55.9315 40.2821C55.304 39.4163 54.4042 38.6464 53.2113 38.2409V36.0526H55.3629V32.2631H52.8638C52.5618 31.0747 52.0856 29.7191 51.393 28.4952C50.3838 26.7115 48.5987 24.6958 45.7987 24.6958H33.3968H31.0846H18.6827C15.8828 24.6958 14.0977 26.7115 13.0884 28.4952C12.3959 29.7191 11.9196 31.0747 11.6177 32.2631H9.11852V36.0526H11.2702V38.2409C10.0772 38.6464 9.17749 39.4163 8.54996 40.2821C7.67817 41.485 7.31554 42.8736 7.23114 43.8284L7.22379 43.9117V62.3392L7.25862 62.5184C7.37493 63.1165 7.69054 63.9164 8.30404 64.6023C8.95409 65.329 9.94847 65.9266 11.2702 65.9429V72H22.4167V65.9433ZM15.0596 65.9433V68.2105H18.6272V65.9433H15.0596ZM49.4218 65.9433V68.2105H45.8542V65.9433H49.4218ZM46.1141 19.9776C46.1141 19.9776 47.8639 19.859 49.9515 21.4334C50.1796 21.6054 50.4117 21.7976 50.646 22.0124C50.8181 22.1701 50.977 22.3291 51.1235 22.4881C52.6441 24.1382 52.8446 25.8039 52.8657 26.3796C52.8608 26.5154 52.8657 26.5906 52.8657 26.5906C52.8657 26.5906 52.8707 26.5154 52.8657 26.3796C52.8869 25.8039 53.0874 24.1382 54.6079 22.4881C54.7545 22.3291 54.9133 22.1701 55.0855 22.0124C55.3048 21.8113 55.5253 21.6301 55.7449 21.4667C57.9081 19.8573 59.9874 19.9776 59.9874 19.9776C59.9874 19.9776 57.9252 19.7958 55.8352 18.1085C55.5845 17.9061 55.3334 17.6821 55.0855 17.4342C54.9413 17.29 54.8065 17.1491 54.6805 17.0116C52.9418 15.1153 52.8657 13.8733 52.8657 13.8733C52.8657 13.8733 52.8657 15.1817 51.1036 16.9909C50.9626 17.1356 50.8104 17.2835 50.646 17.4342C50.3941 17.6651 50.1409 17.8764 49.8901 18.0695C47.9312 19.5778 46.1141 19.9776 46.1141 19.9776ZM52.5665 19.9173C52.4944 19.8512 52.4222 19.7866 52.3502 19.7235C52.4223 19.66 52.4944 19.5953 52.5665 19.5292C52.6725 19.4321 52.775 19.3353 52.8742 19.2388C52.9399 19.3068 53.0071 19.3751 53.0758 19.4438C53.1745 19.5425 53.2736 19.6383 53.3729 19.7313C53.3035 19.7919 53.2342 19.8539 53.165 19.9173C53.062 20.0117 52.9623 20.1067 52.8657 20.202C52.7692 20.1067 52.6695 20.0117 52.5665 19.9173Z" fill="#00B056"/>
</svg>
