<svg width="129" height="128" viewBox="0 0 129 128" fill="none" xmlns="http://www.w3.org/2000/svg">
<g filter="url(#filter0_d)">
<path d="M121.5 60C121.5 91.4802 95.9802 117 64.5 117C33.0198 117 7.5 91.4802 7.5 60C7.5 28.5198 33.0198 3 64.5 3C95.9802 3 121.5 28.5198 121.5 60Z" stroke="#00B056" stroke-width="6"/>
<path fill-rule="evenodd" clip-rule="evenodd" d="M33.6422 53.4884C33.6422 49.2823 38.6755 41.2365 42.0823 36.2723C43.8251 33.733 45.1422 32 45.1422 32C45.1422 32 46.4593 33.733 48.2021 36.2723C51.6089 41.2365 56.6422 49.2823 56.6422 53.4884C56.6422 59.8461 51.4935 65 45.1422 65C38.7909 65 33.6422 59.8461 33.6422 53.4884ZM51.6422 53.4884C51.6422 57.0894 48.7273 60 45.1422 60C41.5571 60 38.6422 57.0894 38.6422 53.4884C38.6422 53.0775 38.9277 51.7989 39.9708 49.5614C40.9257 47.5132 42.2431 45.2216 43.6263 43.0194C44.1364 42.2073 44.6476 41.4196 45.1422 40.6751C45.6368 41.4196 46.148 42.2073 46.6581 43.0194C48.0413 45.2216 49.3587 47.5132 50.3136 49.5614C51.3567 51.7989 51.6422 53.0775 51.6422 53.4884Z" fill="#00B056"/>
<path fill-rule="evenodd" clip-rule="evenodd" d="M31.5 84.637L31.5918 88.4335L73.9908 88.4335L93.4955 61.5864L93.4955 65.6105L97.6891 65.6936V52.5082L84.0402 56.8999L85.5209 60.4804L90.3609 58.9231L78.8549 74.7604C72.1645 73.5461 67.4376 74.7213 64.2452 77.0927C61.4204 79.1911 59.9838 82.0907 59.4225 84.637H31.5ZM62.5156 84.637H71.6794L76.8756 77.4847C71.6034 76.793 68.1928 77.8974 66.0342 79.501C64.1207 80.9224 63.0337 82.8503 62.5156 84.637Z" fill="#00B056"/>
<path d="M66.7355 71.7752H73.1847V70.1248H69.5475L70.7408 68.7474C71.3756 68.1126 71.8347 67.6069 72.1183 67.2303C72.406 66.8494 72.6176 66.4876 72.753 66.1448C72.8885 65.7978 72.9562 65.4424 72.9562 65.0784C72.9562 64.2151 72.6853 63.5529 72.1437 63.0916C71.6062 62.6304 70.8382 62.3997 69.8395 62.3997C69.2174 62.3997 68.6546 62.5351 68.151 62.806C67.6474 63.0768 67.2538 63.4534 66.9703 63.9359C66.6868 64.414 66.545 64.9367 66.545 65.5037H68.6905C68.6905 65.089 68.7921 64.7441 68.9952 64.4691C69.1983 64.1898 69.4628 64.0501 69.7887 64.0501C70.1188 64.0501 70.3705 64.1538 70.5441 64.3611C70.7176 64.5685 70.8043 64.8711 70.8043 65.2689C70.8043 65.7597 70.4383 66.422 69.7062 67.2557L66.7355 70.3787V71.7752Z" fill="#00B056"/>
<path d="M61.8033 71.7752H63.9488V62.533H63.7521L59.6959 63.9359V65.5609L61.8033 64.9451V71.7752Z" fill="#00B056"/>
<path fill-rule="evenodd" clip-rule="evenodd" d="M80.6813 67.9984C80.6813 69.2467 80.3998 70.2095 79.837 70.8865C79.2784 71.5636 78.4892 71.9022 77.4693 71.9022C76.441 71.9022 75.6455 71.5615 75.0826 70.8802C74.5198 70.1989 74.2384 69.2383 74.2384 67.9984V66.3099C74.2384 65.0615 74.5177 64.0988 75.0763 63.4217C75.6391 62.7446 76.4326 62.4061 77.4566 62.4061C78.4807 62.4061 79.2742 62.7467 79.837 63.428C80.3998 64.1094 80.6813 65.0721 80.6813 66.3162V67.9984ZM78.5421 66.0369C78.5421 65.3725 78.4553 64.8774 78.2818 64.5516C78.1083 64.2215 77.8333 64.0565 77.4566 64.0565C77.0885 64.0565 76.8198 64.2088 76.6505 64.5135C76.4855 64.8182 76.3966 65.2794 76.3839 65.8973V68.2586C76.3839 68.9484 76.4706 69.4541 76.6441 69.7757C76.8177 70.0931 77.0927 70.2518 77.4693 70.2518C77.8333 70.2518 78.102 70.0973 78.2755 69.7884C78.449 69.4752 78.5379 68.9865 78.5421 68.3221V66.0369Z" fill="#00B056"/>
</g>
<defs>
<filter id="filter0_d" x="0.5" y="0" width="128" height="128" filterUnits="userSpaceOnUse" color-interpolation-filters="sRGB">
<feFlood flood-opacity="0" result="BackgroundImageFix"/>
<feColorMatrix in="SourceAlpha" type="matrix" values="0 0 0 0 0 0 0 0 0 0 0 0 0 0 0 0 0 0 127 0"/>
<feOffset dy="4"/>
<feGaussianBlur stdDeviation="2"/>
<feColorMatrix type="matrix" values="0 0 0 0 0 0 0 0 0 0 0 0 0 0 0 0 0 0 0.25 0"/>
<feBlend mode="normal" in2="BackgroundImageFix" result="effect1_dropShadow"/>
<feBlend mode="normal" in="SourceGraphic" in2="effect1_dropShadow" result="shape"/>
</filter>
</defs>
</svg>
