<svg width="70" height="68" viewBox="0 0 70 68" fill="none" xmlns="http://www.w3.org/2000/svg">
<path fill-rule="evenodd" clip-rule="evenodd" d="M31.735 4.24559C27.3461 10.5121 19.8095 22.1279 19.8095 28C19.8095 36.2843 26.5252 43 34.8095 43C43.0938 43 49.8095 36.2843 49.8095 28C49.8095 22.1279 42.2729 10.5121 37.884 4.24559C36.0812 1.67149 34.8095 0 34.8095 0C34.8095 0 33.5378 1.67149 31.735 4.24559ZM34.8095 38C40.3323 38 44.8095 33.5228 44.8095 28C44.8095 27.1086 44.3061 25.1829 42.9348 22.2445C41.652 19.4957 39.8972 16.4504 38.0766 13.5547C36.9545 11.7701 35.8293 10.0765 34.8095 8.58779C33.7897 10.0765 32.6645 11.7701 31.5424 13.5547C29.7218 16.4504 27.967 19.4957 26.6841 22.2445C25.3129 25.1829 24.8095 27.1086 24.8095 28C24.8095 33.5228 29.2867 38 34.8095 38Z" fill="#00B056"/>
<path d="M58.1124 42.7373L69.0722 44.3029L67.5065 55.2627L63.5468 54.6971L64.1207 50.6795L42.8095 67.5509L34.8095 61.2175L26.8095 67.5509L0 46.3267L2.48281 43.1905L26.8095 62.4491L31.5873 58.6667L16 46.3267L18.4828 43.1905L34.8095 56.1158L45.918 47.3215L41.5468 46.6971L42.1124 42.7373L53.0722 44.3029L51.5066 55.2627L47.5468 54.6971L48.1207 50.6795L38.0317 58.6667L42.8095 62.4491L61.918 47.3215L57.5468 46.6971L58.1124 42.7373Z" fill="#00B056"/>
</svg>
