<svg width="121" height="120" viewBox="0 0 121 120" fill="none" xmlns="http://www.w3.org/2000/svg">
<path d="M117.5 60C117.5 91.4802 91.9802 117 60.5 117C29.0198 117 3.5 91.4802 3.5 60C3.5 28.5198 29.0198 3 60.5 3C91.9802 3 117.5 28.5198 117.5 60Z" stroke="#00B056" stroke-width="6"/>
<path fill-rule="evenodd" clip-rule="evenodd" d="M29.6422 53.4884C29.6422 49.2823 34.6755 41.2365 38.0823 36.2723C39.8251 33.733 41.1422 32 41.1422 32C41.1422 32 42.4593 33.733 44.2021 36.2723C47.6089 41.2365 52.6422 49.2823 52.6422 53.4884C52.6422 59.8461 47.4935 65 41.1422 65C34.7909 65 29.6422 59.8461 29.6422 53.4884ZM47.6422 53.4884C47.6422 57.0894 44.7273 60 41.1422 60C37.5571 60 34.6422 57.0894 34.6422 53.4884C34.6422 53.0775 34.9277 51.7989 35.9708 49.5614C36.9257 47.5132 38.2431 45.2216 39.6263 43.0194C40.1364 42.2073 40.6476 41.4196 41.1422 40.6751C41.6368 41.4196 42.148 42.2073 42.6581 43.0194C44.0413 45.2216 45.3587 47.5132 46.3136 49.5614C47.3567 51.7989 47.6422 53.0775 47.6422 53.4884Z" fill="#00B056"/>
<path fill-rule="evenodd" clip-rule="evenodd" d="M27.5 84.637L27.5918 88.4335L69.9908 88.4335L89.4955 61.5864L89.4955 65.6105L93.6891 65.6936V52.5082L80.0402 56.8999L81.5209 60.4804L86.3609 58.9231L74.8549 74.7604C68.1645 73.5461 63.4376 74.7213 60.2452 77.0927C57.4204 79.1911 55.9838 82.0907 55.4225 84.637H27.5ZM58.5156 84.637H67.6794L72.8756 77.4847C67.6034 76.793 64.1928 77.8974 62.0342 79.501C60.1207 80.9224 59.0337 82.8503 58.5156 84.637Z" fill="#00B056"/>
<path d="M62.7355 71.7752H69.1847V70.1248H65.5475L66.7408 68.7474C67.3756 68.1126 67.8347 67.6069 68.1183 67.2303C68.406 66.8494 68.6176 66.4876 68.753 66.1448C68.8885 65.7978 68.9562 65.4424 68.9562 65.0784C68.9562 64.2151 68.6853 63.5529 68.1437 63.0916C67.6062 62.6304 66.8382 62.3997 65.8395 62.3997C65.2174 62.3997 64.6546 62.5351 64.151 62.806C63.6474 63.0768 63.2538 63.4534 62.9703 63.9359C62.6868 64.414 62.545 64.9367 62.545 65.5037H64.6905C64.6905 65.089 64.7921 64.7441 64.9952 64.4691C65.1983 64.1898 65.4628 64.0501 65.7887 64.0501C66.1188 64.0501 66.3705 64.1538 66.5441 64.3611C66.7176 64.5685 66.8043 64.8711 66.8043 65.2689C66.8043 65.7597 66.4383 66.422 65.7062 67.2557L62.7355 70.3787V71.7752Z" fill="#00B056"/>
<path d="M57.8033 71.7752H59.9488V62.533H59.7521L55.6959 63.9359V65.5609L57.8033 64.9451V71.7752Z" fill="#00B056"/>
<path fill-rule="evenodd" clip-rule="evenodd" d="M76.6813 67.9984C76.6813 69.2467 76.3998 70.2095 75.837 70.8865C75.2784 71.5636 74.4892 71.9022 73.4693 71.9022C72.441 71.9022 71.6455 71.5615 71.0826 70.8802C70.5198 70.1989 70.2384 69.2383 70.2384 67.9984V66.3099C70.2384 65.0615 70.5177 64.0988 71.0763 63.4217C71.6391 62.7446 72.4326 62.4061 73.4566 62.4061C74.4807 62.4061 75.2742 62.7467 75.837 63.428C76.3998 64.1094 76.6813 65.0721 76.6813 66.3162V67.9984ZM74.5421 66.0369C74.5421 65.3725 74.4553 64.8774 74.2818 64.5516C74.1083 64.2215 73.8333 64.0565 73.4566 64.0565C73.0885 64.0565 72.8198 64.2088 72.6505 64.5135C72.4855 64.8182 72.3966 65.2794 72.3839 65.8973V68.2586C72.3839 68.9484 72.4706 69.4541 72.6441 69.7757C72.8177 70.0931 73.0927 70.2518 73.4693 70.2518C73.8333 70.2518 74.102 70.0973 74.2755 69.7884C74.449 69.4752 74.5379 68.9865 74.5421 68.3221V66.0369Z" fill="#00B056"/>
</svg>
