<svg width="120" height="121" viewBox="0 0 120 121" fill="none" xmlns="http://www.w3.org/2000/svg">
<path d="M117 60.5C117 91.9802 91.4802 117.5 60 117.5C28.5198 117.5 3 91.9802 3 60.5C3 29.0198 28.5198 3.5 60 3.5C91.4802 3.5 117 29.0198 117 60.5Z" stroke="#B01421" stroke-width="6"/>
<path d="M47 89.5H74C76.49 89.5 78.62 88 79.52 85.84L88.58 64.69C88.85 64 89 63.28 89 62.5V56.5C89 53.2 86.3 50.5 83 50.5H62L63.92 38.79L64.01 37.83C64.01 36.6 63.5 35.46 62.69 34.65L59.51 31.5L42.74 49.27C41.66 50.35 41 51.85 41 53.5V83.5C41 86.8 43.7 89.5 47 89.5ZM45 53.5L60 37L57 54.5H85V62.5L75 85.5H45V53.5ZM31 53.5H37V89.5H31V53.5Z" fill="#B01421"/>
</svg>
