<svg width="121" height="120" viewBox="0 0 121 120" fill="none" xmlns="http://www.w3.org/2000/svg">
<path d="M117.5 60C117.5 91.4802 91.9802 117 60.5 117C29.0198 117 3.5 91.4802 3.5 60C3.5 28.5198 29.0198 3 60.5 3C91.9802 3 117.5 28.5198 117.5 60Z" stroke="white" stroke-width="6"/>
<path d="M51.5 87H78.5C80.99 87 83.12 85.5 84.02 83.34L93.08 62.19C93.35 61.5 93.5 60.78 93.5 60V54C93.5 50.7 90.8 48 87.5 48H68.57L71.42 34.29L71.51 33.33C71.51 32.1 71 30.96 70.19 30.15L67.01 27L47.24 46.77C46.16 47.85 45.5 49.35 45.5 51V81C45.5 84.3 48.2 87 51.5 87ZM51.5 51L64.52 37.98L60.5 54H87.5V60L78.5 81H51.5V51ZM27.5 51H39.5V87H27.5V51Z" fill="white"/>
</svg>
