<svg id="Layer_1" data-name="Layer 1" xmlns="http://www.w3.org/2000/svg" xmlns:xlink="http://www.w3.org/1999/xlink" viewBox="0 0 550.46 159.93"><defs><style>.cls-1{fill:#fff;}.cls-2{opacity:0.8;}.cls-3{clip-path:url(#clip-path);}</style><clipPath id="clip-path" transform="translate(0 -6.4)"><path class="cls-1" d="M491.89,98.67q-.33.9-.7,1.78a39.56,39.56,0,0,1-18.61,19.92H379.43l20-21.06H485a33.13,33.13,0,0,0,6.89-.64m6.59-10.78a7.78,7.78,0,0,1-3,4.7Q492.24,95,485,95H397.54l-28.12,29.67H473.58a43.65,43.65,0,0,0,24.9-36.79Z"/></clipPath></defs><title>LVPS logo(typo, white)</title><path class="cls-1" d="M47.6,163.18l-2.85,3H34.57l2.05-11.54h3.55l-1.52,8.57Z" transform="translate(0 -6.4)"/><path class="cls-1" d="M64.12,161.11q-.93,5.22-8.1,5.22a10.87,10.87,0,0,1-5.42-1,3.39,3.39,0,0,1-1.72-3.1,6.08,6.08,0,0,1,.1-1.09l1.16-6.5h3.57l-1.17,6.5a4.58,4.58,0,0,0-.05.64,1.43,1.43,0,0,0,.19.76,1.31,1.31,0,0,0,.66.5,4.75,4.75,0,0,0,1.24.28,18.22,18.22,0,0,0,2,.09,10.74,10.74,0,0,0,1.75-.12,3.43,3.43,0,0,0,1.18-.4,2,2,0,0,0,.72-.71,3.09,3.09,0,0,0,.35-1l1.16-6.5h3.59Z" transform="translate(0 -6.4)"/><path class="cls-1" d="M83.67,154.61l-4.22,3.33-1.18.92-.81.62-.56.41-.4.28.35.34q.23.23.53.57l.67.74.77.85,3.09,3.47h-5l-3.26-3.81-4.72,3.81H64.47l4.36-3.47,1.28-1L71,161l.56-.41.41-.28-.29-.27-.41-.41-.62-.67-.94-1-2.93-3.31h4.93l3,3.59,4.35-3.59Z" transform="translate(0 -6.4)"/><path class="cls-1" d="M99.05,161.11q-.93,5.22-8.1,5.22a10.87,10.87,0,0,1-5.42-1,3.39,3.39,0,0,1-1.72-3.1,6.08,6.08,0,0,1,.1-1.09l1.16-6.5h3.57l-1.17,6.5a4.58,4.58,0,0,0-.05.64,1.43,1.43,0,0,0,.19.76,1.31,1.31,0,0,0,.66.5,4.75,4.75,0,0,0,1.24.28,18.22,18.22,0,0,0,2,.09,10.74,10.74,0,0,0,1.75-.12,3.43,3.43,0,0,0,1.18-.4,2,2,0,0,0,.72-.71,3.09,3.09,0,0,0,.35-1l1.16-6.5h3.59Z" transform="translate(0 -6.4)"/><path class="cls-1" d="M116.56,166.14h-4.78l-2-3.05h-5.48l-.53,3.05h-3.57l1-5.9h10a3.44,3.44,0,0,0,.85-.1,2.47,2.47,0,0,0,.71-.29,1.52,1.52,0,0,0,.48-.47,1.15,1.15,0,0,0,.18-.63.94.94,0,0,0-.47-.85,2.48,2.48,0,0,0-1.29-.28h-10l2.86-3h7.41a11.27,11.27,0,0,1,1.84.16,5.58,5.58,0,0,1,1.71.56,3.56,3.56,0,0,1,1.25,1.08,2.86,2.86,0,0,1,.48,1.71,4.16,4.16,0,0,1-.27,1.48,4.21,4.21,0,0,1-.76,1.28,4.52,4.52,0,0,1-1.18,1,4.78,4.78,0,0,1-1.52.55,7.72,7.72,0,0,1,.54.57q.3.34.78.95Z" transform="translate(0 -6.4)"/><path class="cls-1" d="M134.82,154.61l-8.22,7.72-.66,3.81h-3.59l.67-3.83-5.67-7.71h4.59l2.21,3.21.28.41.37.53.34.52.22.36L126,159q.39-.41,1.15-1.17l3.19-3.19Z" transform="translate(0 -6.4)"/><path class="cls-1" d="M146.11,154.61l3.85,7.66,6.76-7.66h4.22L151.7,165a5.13,5.13,0,0,1-1.07.9,2.67,2.67,0,0,1-1.47.4,2,2,0,0,1-1.28-.37,2.84,2.84,0,0,1-.77-.92l-5.36-10.43Z" transform="translate(0 -6.4)"/><path class="cls-1" d="M174.1,163.18l-2.83,3h-11.1l2.05-11.54h13.35l-2.85,3h-7.47L165,159h9.12l-2.48,2.62h-7.1l-.28,1.57Z" transform="translate(0 -6.4)"/><path class="cls-1" d="M188.79,166.14h-3.55l.79-4.45h-6.88l-.78,4.45h-3.59l2.05-11.54h3.57l-.74,4.09h6.88l.72-4.09h3.57Z" transform="translate(0 -6.4)"/><path class="cls-1" d="M194.6,166.14H191l2.05-11.54h3.55Z" transform="translate(0 -6.4)"/><path class="cls-1" d="M212,163.18l-2.81,3h-5.79a7.42,7.42,0,0,1-2.46-.39,5.74,5.74,0,0,1-1.9-1.07,4.72,4.72,0,0,1-1.65-3.63,5.42,5.42,0,0,1,.64-2.6,6.46,6.46,0,0,1,1.72-2,8.15,8.15,0,0,1,2.55-1.33,10.08,10.08,0,0,1,3.12-.47h8.09l-2.83,3h-5.79a4.69,4.69,0,0,0-1.51.24,4,4,0,0,0-1.25.67,3.29,3.29,0,0,0-.84,1,2.64,2.64,0,0,0-.31,1.27,2.15,2.15,0,0,0,.82,1.72,2.87,2.87,0,0,0,.92.48,3.86,3.86,0,0,0,1.19.17Z" transform="translate(0 -6.4)"/><path class="cls-1" d="M225.77,163.18l-2.85,3H212.74l2.05-11.54h3.55l-1.52,8.57Z" transform="translate(0 -6.4)"/><path class="cls-1" d="M240.36,163.18l-2.83,3h-11.1l2.05-11.54h13.35l-2.85,3h-7.47l-.24,1.38h9.12l-2.48,2.62h-7.1l-.28,1.57Z" transform="translate(0 -6.4)"/><path class="cls-1" d="M264.22,158.32a4.27,4.27,0,0,1-.46,2,4.55,4.55,0,0,1-1.29,1.54,6.23,6.23,0,0,1-2,1,9.4,9.4,0,0,1-2.71.36h-6l-.52,2.95h-3.55l1-5.9h9.93a2.27,2.27,0,0,0,1.47-.43,1.36,1.36,0,0,0,.53-1.1,1,1,0,0,0-.39-.8,1.85,1.85,0,0,0-1.15-.3h-9.93l2.9-3h7.24a7.68,7.68,0,0,1,2.13.27,4.56,4.56,0,0,1,1.55.76,3.29,3.29,0,0,1,1,1.17A3.44,3.44,0,0,1,264.22,158.32Z" transform="translate(0 -6.4)"/><path class="cls-1" d="M281.05,166.14h-4.78l-2-3.05h-5.48l-.53,3.05h-3.57l1-5.9h10a3.44,3.44,0,0,0,.85-.1,2.47,2.47,0,0,0,.71-.29,1.52,1.52,0,0,0,.48-.47,1.15,1.15,0,0,0,.18-.63.94.94,0,0,0-.47-.85,2.48,2.48,0,0,0-1.29-.28h-10l2.86-3h7.41a11.27,11.27,0,0,1,1.84.16,5.58,5.58,0,0,1,1.71.56,3.56,3.56,0,0,1,1.25,1.08,2.86,2.86,0,0,1,.48,1.71,4.16,4.16,0,0,1-.27,1.48,4.21,4.21,0,0,1-.76,1.28,4.52,4.52,0,0,1-1.18,1,4.78,4.78,0,0,1-1.52.55,7.72,7.72,0,0,1,.54.57q.3.34.78.95Z" transform="translate(0 -6.4)"/><path class="cls-1" d="M292.05,154.42a10.71,10.71,0,0,1,5.63,1.18,4.06,4.06,0,0,1,1.87,3.7,6.13,6.13,0,0,1-2.38,5.29q-2.38,1.74-7.22,1.74a10.64,10.64,0,0,1-5.63-1.19,4.08,4.08,0,0,1-1.87-3.71,6.11,6.11,0,0,1,2.38-5.29Q287.21,154.42,292.05,154.42Zm-1.59,8.91a20.6,20.6,0,0,0,2.82-.16,3.91,3.91,0,0,0,1.67-.57,2,2,0,0,0,.8-1.13,6.69,6.69,0,0,0,.21-1.82,2.27,2.27,0,0,0-.25-1.13,1.69,1.69,0,0,0-.79-.69,4.43,4.43,0,0,0-1.39-.34q-.85-.09-2-.09a20.37,20.37,0,0,0-2.81.16,3.89,3.89,0,0,0-1.66.57,2,2,0,0,0-.8,1.13,6.69,6.69,0,0,0-.21,1.82,2.19,2.19,0,0,0,.26,1.14,1.76,1.76,0,0,0,.79.68,4.3,4.3,0,0,0,1.37.34A19.87,19.87,0,0,0,290.47,163.33Z" transform="translate(0 -6.4)"/><path class="cls-1" d="M316.61,154.61l-2.86,3h-4.1l-1.52,8.54h-3.57l1.5-8.54h-5.41l2.86-3Z" transform="translate(0 -6.4)"/><path class="cls-1" d="M329.57,163.18l-2.83,3h-11.1l2.05-11.54H331l-2.85,3h-7.47l-.24,1.38h9.12l-2.48,2.62H320l-.28,1.57Z" transform="translate(0 -6.4)"/><path class="cls-1" d="M345.45,163.18l-2.81,3h-5.79a7.42,7.42,0,0,1-2.46-.39,5.74,5.74,0,0,1-1.9-1.07,4.72,4.72,0,0,1-1.65-3.63,5.42,5.42,0,0,1,.64-2.6,6.46,6.46,0,0,1,1.72-2,8.15,8.15,0,0,1,2.55-1.33,10.08,10.08,0,0,1,3.12-.47H347l-2.83,3h-5.79a4.69,4.69,0,0,0-1.51.24,4,4,0,0,0-1.25.67,3.29,3.29,0,0,0-.84,1,2.64,2.64,0,0,0-.31,1.27,2.15,2.15,0,0,0,.82,1.72,2.87,2.87,0,0,0,.92.48,3.86,3.86,0,0,0,1.19.17Z" transform="translate(0 -6.4)"/><path class="cls-1" d="M362.56,154.61l-2.86,3h-4.1l-1.52,8.54h-3.57l1.5-8.54h-5.41l2.86-3Z" transform="translate(0 -6.4)"/><path class="cls-1" d="M365.21,166.14h-3.57l2.05-11.54h3.55Z" transform="translate(0 -6.4)"/><path class="cls-1" d="M377.58,154.42a10.71,10.71,0,0,1,5.63,1.18,4.06,4.06,0,0,1,1.87,3.7,6.13,6.13,0,0,1-2.38,5.29q-2.38,1.74-7.22,1.74a10.64,10.64,0,0,1-5.63-1.19,4.08,4.08,0,0,1-1.87-3.71,6.11,6.11,0,0,1,2.38-5.29Q372.73,154.42,377.58,154.42ZM376,163.33a20.6,20.6,0,0,0,2.82-.16,3.91,3.91,0,0,0,1.67-.57,2,2,0,0,0,.8-1.13,6.69,6.69,0,0,0,.21-1.82,2.27,2.27,0,0,0-.25-1.13,1.69,1.69,0,0,0-.79-.69,4.43,4.43,0,0,0-1.39-.34q-.85-.09-2-.09a20.37,20.37,0,0,0-2.81.16,3.89,3.89,0,0,0-1.66.57,2,2,0,0,0-.8,1.13,6.69,6.69,0,0,0-.21,1.82,2.19,2.19,0,0,0,.26,1.14,1.76,1.76,0,0,0,.79.68,4.3,4.3,0,0,0,1.37.34A19.86,19.86,0,0,0,376,163.33Z" transform="translate(0 -6.4)"/><path class="cls-1" d="M397.41,166.33a1.9,1.9,0,0,1-.66-.11,1.84,1.84,0,0,1-.66-.51l-5.95-6.35-1.19,6.78H385.7l1.67-9.57a3.28,3.28,0,0,1,.33-1,2.19,2.19,0,0,1,.54-.67,2.13,2.13,0,0,1,.7-.38,2.55,2.55,0,0,1,.78-.12,2,2,0,0,1,.66.11,1.65,1.65,0,0,1,.67.51l5.95,6.35,1.21-6.78h3.24l-1.71,9.55a3.13,3.13,0,0,1-.34,1,2.5,2.5,0,0,1-.54.68,2,2,0,0,1-.69.39A2.49,2.49,0,0,1,397.41,166.33Z" transform="translate(0 -6.4)"/><path class="cls-1" d="M420,159.21a5.07,5.07,0,0,1,2.85.66,2.22,2.22,0,0,1,1,2,4.69,4.69,0,0,1-.31,1.72,3.41,3.41,0,0,1-1,1.37,4.78,4.78,0,0,1-1.76.9,9.28,9.28,0,0,1-2.61.32H407.44l2.81-3H419a1.8,1.8,0,0,0,1.05-.24.86.86,0,0,0,.33-.74q0-.69-1.09-.69H413a4.47,4.47,0,0,1-2.88-.76,2.49,2.49,0,0,1-.91-2,4.22,4.22,0,0,1,.31-1.63,3.34,3.34,0,0,1,1-1.31,4.85,4.85,0,0,1,1.75-.87,9.37,9.37,0,0,1,2.59-.31h10l-2.83,3h-8a2,2,0,0,0-1.05.22.81.81,0,0,0-.33.73q0,.66,1.1.66Z" transform="translate(0 -6.4)"/><path class="cls-1" d="M438.65,163.18l-2.83,3h-11.1l2.05-11.54h13.35l-2.85,3h-7.47l-.24,1.38h9.12l-2.48,2.62h-7.1l-.28,1.57Z" transform="translate(0 -6.4)"/><path class="cls-1" d="M455.7,166.14h-4.78l-2-3.05h-5.48l-.53,3.05h-3.57l1-5.9h10a3.44,3.44,0,0,0,.85-.1,2.46,2.46,0,0,0,.71-.29,1.52,1.52,0,0,0,.48-.47,1.15,1.15,0,0,0,.18-.63.93.93,0,0,0-.47-.85,2.48,2.48,0,0,0-1.29-.28h-10l2.86-3h7.41a11.26,11.26,0,0,1,1.84.16,5.58,5.58,0,0,1,1.71.56,3.56,3.56,0,0,1,1.25,1.08,2.85,2.85,0,0,1,.48,1.71,4.16,4.16,0,0,1-.27,1.48,4.22,4.22,0,0,1-.76,1.28,4.53,4.53,0,0,1-1.18,1,4.79,4.79,0,0,1-1.52.55,7.86,7.86,0,0,1,.54.57q.3.34.78.95Z" transform="translate(0 -6.4)"/><path class="cls-1" d="M461.22,154.61l3.85,7.66,6.76-7.66h4.22L466.81,165a5.15,5.15,0,0,1-1.07.9,2.67,2.67,0,0,1-1.47.4A2,2,0,0,1,463,166a2.85,2.85,0,0,1-.77-.92l-5.36-10.43Z" transform="translate(0 -6.4)"/><path class="cls-1" d="M478.9,166.14h-3.57l2.05-11.54h3.55Z" transform="translate(0 -6.4)"/><path class="cls-1" d="M496.31,163.18l-2.81,3h-5.79a7.42,7.42,0,0,1-2.46-.39,5.74,5.74,0,0,1-1.9-1.07,4.72,4.72,0,0,1-1.65-3.63,5.42,5.42,0,0,1,.64-2.6,6.46,6.46,0,0,1,1.72-2,8.15,8.15,0,0,1,2.55-1.33,10.08,10.08,0,0,1,3.12-.47h8.09l-2.83,3h-5.79a4.69,4.69,0,0,0-1.51.24,4,4,0,0,0-1.25.67,3.29,3.29,0,0,0-.84,1,2.64,2.64,0,0,0-.31,1.27,2.15,2.15,0,0,0,.82,1.72,2.87,2.87,0,0,0,.92.48,3.86,3.86,0,0,0,1.19.17Z" transform="translate(0 -6.4)"/><path class="cls-1" d="M511,163.18l-2.83,3H497l2.05-11.54h13.35l-2.85,3h-7.47l-.24,1.38H511l-2.48,2.62h-7.1l-.28,1.57Z" transform="translate(0 -6.4)"/><path class="cls-1" d="M492.62,57.62c.4.53.77,1.09,1.14,1.64C493.39,58.7,493,58.16,492.62,57.62Z" transform="translate(0 -6.4)"/><path class="cls-1" d="M500.75,76.16c0-.19-.08-.38-.12-.56.1.49.18,1,.26,1.47C500.84,76.77,500.8,76.46,500.75,76.16Z" transform="translate(0 -6.4)"/><path class="cls-1" d="M501.18,78.95c-.08-.63-.19-1.25-.29-1.88C501,77.7,501.09,78.32,501.18,78.95Z" transform="translate(0 -6.4)"/><path class="cls-1" d="M497.07,65a46.32,46.32,0,0,1,2,4.89A45.63,45.63,0,0,1,500.51,75c0,.19.08.38.12.58a44.44,44.44,0,0,0-6.87-16.34c.26.38.52.76.76,1.14A46.45,46.45,0,0,1,497.07,65Z" transform="translate(0 -6.4)"/><path class="cls-1" d="M492.15,57l.47.62Z" transform="translate(0 -6.4)"/><path class="cls-1" d="M406,80.61c.44-.34.83-.71,1.25-1.06a37.41,37.41,0,0,1-22.25-23.1,14.94,14.94,0,0,1-3.44,3.88q-5.39,4.35-14.79,4.35H266.47L256,124.21h35.85l5.22-29.76H358a95,95,0,0,0,27.32-3.66A62.91,62.91,0,0,0,406,80.61Z" transform="translate(0 -6.4)"/><path class="cls-1" d="M171.89,126.12h0Z" transform="translate(0 -6.4)"/><path class="cls-1" d="M171.89,126.12h0Z" transform="translate(0 -6.4)"/><path class="cls-1" d="M172.48,126.12h0Z" transform="translate(0 -6.4)"/><path class="cls-1" d="M172.48,126.12h0Z" transform="translate(0 -6.4)"/><path class="cls-1" d="M159.19,122.38a28.71,28.71,0,0,1-7.75-9.31l-8.68-16.88h-.26l8.68,16.88a28.72,28.72,0,0,0,7.75,9.31q4.78,3.74,13,3.74h.17Q163.94,126.1,159.19,122.38Z" transform="translate(0 -6.4)"/><path class="cls-1" d="M159.19,122.38a28.71,28.71,0,0,1-7.75-9.31l-8.68-16.88h-.26l8.68,16.88a28.72,28.72,0,0,0,7.75,9.31q4.78,3.74,13,3.74h.17Q163.94,126.1,159.19,122.38Z" transform="translate(0 -6.4)"/><path class="cls-1" d="M172.06,126.12h0Z" transform="translate(0 -6.4)"/><path class="cls-1" d="M151.18,113.07,142.5,96.19H41.24L56.56,7.78H20.71L0,126.12H171.89q-8.18,0-13-3.74A28.72,28.72,0,0,1,151.18,113.07Z" transform="translate(0 -6.4)"/><path class="cls-1" d="M395,10.48a77.45,77.45,0,0,0-21.49-2.7H248.38L180.19,85l3.42,11.17,1.84,6a27.91,27.91,0,0,1,1,10.81c0,.33,0,.65-.08,1-.51,3.69-2.49,7.33-5.89,10.93a24.27,24.27,0,0,0,6.23-2.8,51.78,51.78,0,0,0,10.79-9l66.45-75H371.41q7.65,0,11.57,3c.23.18.44.37.65.56,1.55-12,9.29-22.14,20.12-27.79A52.29,52.29,0,0,0,395,10.48Z" transform="translate(0 -6.4)"/><g class="cls-2"><path class="cls-1" d="M483.94,126.3l3.92-4.21a42.5,42.5,0,0,0,11.29-28.54,87.25,87.25,0,0,0-.64-9.27l0-.44-.19-.7A3.25,3.25,0,0,0,497.7,82c-1.16-1.51-3.91-2.3-8-2.3h-63a83.24,83.24,0,0,1-10.39-.63c-1.45-.18-2.55-.35-3.55-.54-.77-.14-1.48-.31-2.18-.48l-.21,0a33.47,33.47,0,0,1-13.85-6.4c-6.58-5.46-9.92-12.81-9.92-21.84,0-.76,0-1.48.09-2.18l0-.6a43.75,43.75,0,0,1,3.15-14.35,35.69,35.69,0,0,1,10.54-13.95,41.38,41.38,0,0,1,5.68-3.89,57.46,57.46,0,0,1,12.6-5.22C426.06,7.48,435,6.4,445.24,6.4H550.46L518.1,40.73h-81c-5.46,0-8.09,1-9.34,1.8s-2.08,2.44-2.23,4.74c0,.16,0,.32,0,.47a3.13,3.13,0,0,0,0,.32A3.19,3.19,0,0,0,427,51c1.49,1,4,1.48,7.35,1.48l55.4,0,2.29,0c2.25,0,4.08,0,5.77,0,2.11,0,4,.11,5.81.23,2.07.14,4,.34,5.8.62a55.8,55.8,0,0,1,5.74,1.15,45.27,45.27,0,0,1,5.62,1.84,33.74,33.74,0,0,1,6.11,3.19h0a23.52,23.52,0,0,1,6.89,6.87c2.58,4.07,3.86,9.37,3.8,15.74-.1,10.78-3.69,20.65-10.09,27.8a43.45,43.45,0,0,1-17.61,11.49,82.39,82.39,0,0,1-20.22,4.31Zm19-26.23a47.18,47.18,0,0,1-8.43,20.68,69.32,69.32,0,0,0,13.86-3.39A39.76,39.76,0,0,0,524.3,107c5.71-6.37,8.9-15.23,9-25,.05-5.53-1-10-3.13-13.4a19.26,19.26,0,0,0-5.65-5.6,29.45,29.45,0,0,0-5.33-2.78,41,41,0,0,0-5.09-1.67,51.51,51.51,0,0,0-5.29-1.06c-1.72-.26-3.51-.45-5.46-.58-1.72-.12-3.55-.19-5.58-.22-1.32,0-2.74,0-4.4,0l1.35,1.71c.43.53,5.78,7.56,7.69,22h0c.14,1.08.27,2.19.39,3.38a90.68,90.68,0,0,1,.67,9.75,45.2,45.2,0,0,1-.3,5l-.19,1.47ZM445.24,10.71c-9.87,0-18.37,1-25.28,3a53.18,53.18,0,0,0-11.65,4.82A37.08,37.08,0,0,0,403.22,22a31.44,31.44,0,0,0-9.3,12.27,39.48,39.48,0,0,0-2.83,12.94l0,.62c0,.66-.08,1.29-.08,1.92,0,7.8,2.74,13.86,8.37,18.53a29.26,29.26,0,0,0,12.09,5.52l.21,0c.67.16,1.31.31,2,.43.92.17,1.94.32,3.3.5a79,79,0,0,0,9.85.59h63a20,20,0,0,1,7.74,1.27l-.09-.48h0v0l0-.11c-.25-1.22-.59-2.43-.85-3.34h0c-.13-.46-.28-.89-.41-1.32h0v0c-.26-.78-.55-1.58-.86-2.38v0h0c-.23-.62-.5-1.18-.73-1.72h0c-.36-.81-.7-1.51-1-2.14h0c-.17-.34-.33-.66-.49-.95h0c-.65-1.18-1.29-2.23-2-3.21l-.1-.14h0l-1.51-2.11h0c-.54-.7-1.05-1.32-1.56-1.9H434.37c-4.31,0-7.49-.72-9.72-2.19a7.48,7.48,0,0,1-3.47-6.52,6.66,6.66,0,0,1,.06-.82c0-.08,0-.16,0-.25.24-3.68,1.64-6.4,4.16-8.06s6.4-2.51,11.71-2.51h79.12l24.24-25.71Z" transform="translate(0 -6.4)"/></g><g class="cls-2"><path class="cls-1" d="M491.89,98.67q-.33.9-.7,1.78a39.56,39.56,0,0,1-18.61,19.92H379.43l20-21.06H485a33.13,33.13,0,0,0,6.89-.64m6.59-10.78a7.78,7.78,0,0,1-3,4.7Q492.24,95,485,95H397.54l-28.12,29.67H473.58a43.65,43.65,0,0,0,24.9-36.79Z" transform="translate(0 -6.4)"/><g class="cls-3"><rect class="cls-1" x="369.42" y="81.49" width="2.26" height="36.79"/><rect class="cls-1" x="371.68" y="81.49" width="1.98" height="36.79"/><rect class="cls-1" x="373.66" y="81.49" width="1.98" height="36.79"/><rect class="cls-1" x="375.64" y="81.49" width="1.98" height="36.79"/><rect class="cls-1" x="377.63" y="81.49" width="1.98" height="36.79"/><rect class="cls-1" x="379.61" y="81.49" width="1.98" height="36.79"/><rect class="cls-1" x="381.59" y="81.49" width="1.98" height="36.79"/><rect class="cls-1" x="383.57" y="81.49" width="1.98" height="36.79"/><rect class="cls-1" x="385.55" y="81.49" width="1.98" height="36.79"/><rect class="cls-1" x="387.53" y="81.49" width="1.98" height="36.79"/><rect class="cls-1" x="389.51" y="81.49" width="1.98" height="36.79"/><rect class="cls-1" x="391.49" y="81.49" width="1.98" height="36.79"/><rect class="cls-1" x="393.48" y="81.49" width="1.98" height="36.79"/><rect class="cls-1" x="395.46" y="81.49" width="1.98" height="36.79"/><rect class="cls-1" x="397.44" y="81.49" width="1.98" height="36.79"/><rect class="cls-1" x="399.42" y="81.49" width="1.98" height="36.79"/><rect class="cls-1" x="401.4" y="81.49" width="1.98" height="36.79"/><rect class="cls-1" x="403.38" y="81.49" width="1.98" height="36.79"/><rect class="cls-1" x="405.36" y="81.49" width="1.98" height="36.79"/><rect class="cls-1" x="407.34" y="81.49" width="1.98" height="36.79"/><rect class="cls-1" x="409.33" y="81.49" width="1.98" height="36.79"/><rect class="cls-1" x="411.31" y="81.49" width="1.98" height="36.79"/><rect class="cls-1" x="413.29" y="81.49" width="1.98" height="36.79"/><rect class="cls-1" x="415.27" y="81.49" width="1.98" height="36.79"/><rect class="cls-1" x="417.25" y="81.49" width="1.98" height="36.79"/><rect class="cls-1" x="419.23" y="81.49" width="1.98" height="36.79"/><rect class="cls-1" x="421.21" y="81.49" width="1.98" height="36.79"/><rect class="cls-1" x="423.19" y="81.49" width="1.98" height="36.79"/><rect class="cls-1" x="425.18" y="81.49" width="1.98" height="36.79"/><rect class="cls-1" x="427.16" y="81.49" width="1.98" height="36.79"/><rect class="cls-1" x="429.14" y="81.49" width="1.98" height="36.79"/><rect class="cls-1" x="431.12" y="81.49" width="1.98" height="36.79"/><rect class="cls-1" x="433.1" y="81.49" width="1.98" height="36.79"/><rect class="cls-1" x="435.08" y="81.49" width="1.98" height="36.79"/><rect class="cls-1" x="437.06" y="81.49" width="1.98" height="36.79"/><rect class="cls-1" x="439.04" y="81.49" width="1.98" height="36.79"/><rect class="cls-1" x="441.03" y="81.49" width="1.98" height="36.79"/><rect class="cls-1" x="443.01" y="81.49" width="1.98" height="36.79"/><rect class="cls-1" x="444.99" y="81.49" width="1.98" height="36.79"/><rect class="cls-1" x="446.97" y="81.49" width="1.98" height="36.79"/><rect class="cls-1" x="448.95" y="81.49" width="1.98" height="36.79"/><rect class="cls-1" x="450.93" y="81.49" width="1.98" height="36.79"/><rect class="cls-1" x="452.91" y="81.49" width="1.98" height="36.79"/><rect class="cls-1" x="454.89" y="81.49" width="1.98" height="36.79"/><rect class="cls-1" x="456.88" y="81.49" width="1.98" height="36.79"/><rect class="cls-1" x="458.86" y="81.49" width="1.98" height="36.79"/><rect class="cls-1" x="460.84" y="81.49" width="1.98" height="36.79"/><rect class="cls-1" x="462.82" y="81.49" width="1.98" height="36.79"/><rect class="cls-1" x="464.8" y="81.49" width="1.98" height="36.79"/><rect class="cls-1" x="466.78" y="81.49" width="1.98" height="36.79"/><rect class="cls-1" x="468.76" y="81.49" width="1.98" height="36.79"/><rect class="cls-1" x="470.74" y="81.49" width="1.98" height="36.79"/><rect class="cls-1" x="472.73" y="81.49" width="1.98" height="36.79"/><rect class="cls-1" x="474.71" y="81.49" width="1.98" height="36.79"/><rect class="cls-1" x="476.69" y="81.49" width="1.98" height="36.79"/><rect class="cls-1" x="478.67" y="81.49" width="1.98" height="36.79"/><rect class="cls-1" x="480.65" y="81.49" width="1.98" height="36.79"/><rect class="cls-1" x="482.63" y="81.49" width="1.98" height="36.79"/><rect class="cls-1" x="484.61" y="81.49" width="1.98" height="36.79"/><rect class="cls-1" x="486.59" y="81.49" width="1.98" height="36.79"/><rect class="cls-1" x="488.58" y="81.49" width="1.98" height="36.79"/><rect class="cls-1" x="490.56" y="81.49" width="1.98" height="36.79"/><rect class="cls-1" x="492.54" y="81.49" width="1.98" height="36.79"/><rect class="cls-1" x="494.52" y="81.49" width="1.98" height="36.79"/><rect class="cls-1" x="496.5" y="81.49" width="1.98" height="36.79"/><path class="cls-1" d="M498.48,124.68v0Z" transform="translate(0 -6.4)"/><rect class="cls-1" x="379.43" y="92.27" width="0.18" height="21.7"/><rect class="cls-1" x="379.61" y="92.27" width="1.98" height="21.7"/><rect class="cls-1" x="381.59" y="92.27" width="1.98" height="21.7"/><rect class="cls-1" x="383.57" y="92.27" width="1.98" height="21.7"/><rect class="cls-1" x="385.55" y="92.27" width="1.98" height="21.7"/><rect class="cls-1" x="387.53" y="92.27" width="1.98" height="21.7"/><rect class="cls-1" x="389.51" y="92.27" width="1.98" height="21.7"/><rect class="cls-1" x="391.49" y="92.27" width="1.98" height="21.7"/><rect class="cls-1" x="393.48" y="92.27" width="1.98" height="21.7"/><rect class="cls-1" x="395.46" y="92.27" width="1.98" height="21.7"/><rect class="cls-1" x="397.44" y="92.27" width="1.98" height="21.7"/><rect class="cls-1" x="399.42" y="92.27" width="1.98" height="21.7"/><rect class="cls-1" x="401.4" y="92.27" width="1.98" height="21.7"/><rect class="cls-1" x="403.38" y="92.27" width="1.98" height="21.7"/><rect class="cls-1" x="405.36" y="92.27" width="1.98" height="21.7"/><rect class="cls-1" x="407.34" y="92.27" width="1.98" height="21.7"/><rect class="cls-1" x="409.33" y="92.27" width="1.98" height="21.7"/><rect class="cls-1" x="411.31" y="92.27" width="1.98" height="21.7"/><rect class="cls-1" x="413.29" y="92.27" width="1.98" height="21.7"/><rect class="cls-1" x="415.27" y="92.27" width="1.98" height="21.7"/><rect class="cls-1" x="417.25" y="92.27" width="1.98" height="21.7"/><rect class="cls-1" x="419.23" y="92.27" width="1.98" height="21.7"/><rect class="cls-1" x="421.21" y="92.27" width="1.98" height="21.7"/><rect class="cls-1" x="423.19" y="92.27" width="1.98" height="21.7"/><rect class="cls-1" x="425.18" y="92.27" width="1.98" height="21.7"/><rect class="cls-1" x="427.16" y="92.27" width="1.98" height="21.7"/><rect class="cls-1" x="429.14" y="92.27" width="1.98" height="21.7"/><rect class="cls-1" x="431.12" y="92.27" width="1.98" height="21.7"/><rect class="cls-1" x="433.1" y="92.27" width="1.98" height="21.7"/><rect class="cls-1" x="435.08" y="92.27" width="1.98" height="21.7"/><rect class="cls-1" x="437.06" y="92.27" width="1.98" height="21.7"/><rect class="cls-1" x="439.04" y="92.27" width="1.98" height="21.7"/><rect class="cls-1" x="441.03" y="92.27" width="1.98" height="21.7"/><rect class="cls-1" x="443.01" y="92.27" width="1.98" height="21.7"/><rect class="cls-1" x="444.99" y="92.27" width="1.98" height="21.7"/><rect class="cls-1" x="446.97" y="92.27" width="1.98" height="21.7"/><rect class="cls-1" x="448.95" y="92.27" width="1.98" height="21.7"/><rect class="cls-1" x="450.93" y="92.27" width="1.98" height="21.7"/><rect class="cls-1" x="452.91" y="92.27" width="1.98" height="21.7"/><rect class="cls-1" x="454.89" y="92.27" width="1.98" height="21.7"/><rect class="cls-1" x="456.88" y="92.27" width="1.98" height="21.7"/><rect class="cls-1" x="458.86" y="92.27" width="1.98" height="21.7"/><rect class="cls-1" x="460.84" y="92.27" width="1.98" height="21.7"/><rect class="cls-1" x="462.82" y="92.27" width="1.98" height="21.7"/><rect class="cls-1" x="464.8" y="92.27" width="1.98" height="21.7"/><rect class="cls-1" x="466.78" y="92.27" width="1.98" height="21.7"/><rect class="cls-1" x="468.76" y="92.27" width="1.98" height="21.7"/><rect class="cls-1" x="470.74" y="92.27" width="1.98" height="21.7"/><rect class="cls-1" x="472.73" y="92.27" width="1.98" height="21.7"/><rect class="cls-1" x="474.71" y="92.27" width="1.98" height="21.7"/><rect class="cls-1" x="476.69" y="92.27" width="1.98" height="21.7"/><rect class="cls-1" x="478.67" y="92.27" width="1.98" height="21.7"/><rect class="cls-1" x="480.65" y="92.27" width="1.98" height="21.7"/><rect class="cls-1" x="482.63" y="92.27" width="1.98" height="21.7"/><rect class="cls-1" x="484.61" y="92.27" width="1.98" height="21.7"/><rect class="cls-1" x="486.59" y="92.27" width="1.98" height="21.7"/><rect class="cls-1" x="488.58" y="92.27" width="1.98" height="21.7"/><rect class="cls-1" x="490.56" y="92.27" width="1.33" height="21.7"/></g></g><path class="cls-1" d="M187.77,105.31v0c-.89-6.51-5.7-16.08-7.32-19.16l-.45-.85-.09-.16L141.12,7.78h-44l42.13,82,12,23.33a28.71,28.71,0,0,0,7.75,9.31q4.78,3.74,13,3.74c1,0,1.94-.06,2.88-.14C187.29,126,189.72,113.15,187.77,105.31Z" transform="translate(0 -6.4)"/></svg>