<svg width="74" height="51" viewBox="0 0 74 51" fill="none" xmlns="http://www.w3.org/2000/svg">
<path fill-rule="evenodd" clip-rule="evenodd" d="M2.94595 0H0.945953V2V26.4286V42V44H2.94595H11.8311C12.5204 47.979 15.9034 51 19.9729 51C24.0425 51 27.4255 47.979 28.1148 44H51.7567H53.6688C54.3581 47.979 57.7411 51 61.8107 51C65.8802 51 69.2632 47.979 69.9526 44H70.8082H72.738L72.8069 42.0714C72.9001 39.4632 73.0119 35.3731 73.0445 31.5707C73.0764 27.8558 73.0378 24.1769 72.7844 22.5494C72.4912 20.6669 71.6494 19.3154 70.5337 18.4638C70.0528 18.0967 69.5444 17.8408 69.0479 17.675L66.8898 10.1621L66.474 8.71429H64.9676H53.7567V2V0H51.7567H2.94595ZM61.8107 34C58.0897 34 54.9426 36.5257 53.9039 40H53.7567V21.4286H67.4707H67.522L67.5724 21.426L67.574 21.4261C67.5849 21.4266 67.6494 21.4292 67.7487 21.4589C67.8574 21.4913 67.9827 21.5487 68.1067 21.6434C68.3168 21.8037 68.6802 22.1903 68.832 23.1649C69.0235 24.3946 69.0777 27.6918 69.0447 31.5364C69.0255 33.764 68.9788 36.0955 68.9248 38.1628C67.4831 35.6703 64.8367 34 61.8107 34ZM27.8797 40H49.7567V19.4286V10.7143V4H4.94595V26.4286V40H12.0662C13.1049 36.5257 16.2519 34 19.9729 34C23.6939 34 26.841 36.5257 27.8797 40ZM64.8153 17.4286H53.7567V12.7143H63.4612L64.8153 17.4286ZM24.2432 42.5C24.2432 45.0893 22.2287 47 19.9729 47C17.7172 47 15.7027 45.0893 15.7027 42.5C15.7027 39.9107 17.7172 38 19.9729 38C22.2287 38 24.2432 39.9107 24.2432 42.5ZM61.8107 47C64.0664 47 66.0809 45.0893 66.0809 42.5C66.0809 39.9107 64.0664 38 61.8107 38C59.5549 38 57.5404 39.9107 57.5404 42.5C57.5404 45.0893 59.5549 47 61.8107 47ZM26.7577 24.8947L39.8928 11.3947L37.0259 8.60529L25.2721 20.6856L19.8943 15.5532L17.1327 18.4468L23.9435 24.9468L25.3764 26.3144L26.7577 24.8947Z" fill="white"/>
</svg>
