<svg width="64" height="65" viewBox="0 0 64 65" fill="none" xmlns="http://www.w3.org/2000/svg">
<path fill-rule="evenodd" clip-rule="evenodd" d="M0 0H2H45.3092H47.3092V2V11.8751C56.7623 13.7684 63.8702 21.9111 63.8702 31.6691C63.8702 41.4271 56.7623 49.5699 47.3092 51.4632V62.1981V64.1981H45.3092H2H0V62.1981V2V0ZM43.3092 4V11.4608C43.2394 11.4601 43.1695 11.4598 43.0995 11.4598C39.4071 11.4598 35.9397 12.3972 32.9351 14.0408V14.0397H10.8386V17.4796H28.3097C26.3354 19.4275 24.7645 21.7635 23.729 24.3594H10.8386V27.7993H22.7092C22.4595 29.0518 22.3288 30.3456 22.3288 31.6691C22.3288 32.692 22.4069 33.6971 22.5576 34.6792H10.8386V38.1191H23.4091C24.2949 40.6802 25.6938 43.0118 27.4868 44.9985H10.8386V48.4383H31.5036C34.8152 50.6105 38.8052 51.8785 43.0995 51.8785C43.1695 51.8785 43.2394 51.8781 43.3092 51.8775V60.1981H4V4H43.3092ZM43.0995 47.8785C52.4657 47.8785 59.8702 40.5187 59.8702 31.6691C59.8702 22.8195 52.4657 15.4598 43.0995 15.4598C33.7333 15.4598 26.3288 22.8195 26.3288 31.6691C26.3288 40.5187 33.7333 47.8785 43.0995 47.8785ZM43.5171 38.6209L55.4492 27.0112L51.9624 23.4276L41.7737 33.341L35.5624 27.2975L32.0756 30.8811L40.0303 38.6209L41.7737 40.3171L43.5171 38.6209Z" fill="white"/>
</svg>
