<svg width="65" height="65" viewBox="0 0 65 65" fill="none" xmlns="http://www.w3.org/2000/svg">
<path fill-rule="evenodd" clip-rule="evenodd" d="M60 32.5C60 47.6878 47.6878 60 32.5 60C17.3122 60 5 47.6878 5 32.5C5 17.3122 17.3122 5 32.5 5C47.6878 5 60 17.3122 60 32.5ZM65 32.5C65 50.4493 50.4493 65 32.5 65C14.5507 65 0 50.4493 0 32.5C0 14.5507 14.5507 0 32.5 0C50.4493 0 65 14.5507 65 32.5ZM32.5 49.5C23.0495 49.5 15.5 42.0519 15.5 33H10.5C10.5 44.9349 20.4114 54.5 32.5 54.5C44.5887 54.5 54.5 44.9349 54.5 33H49.5C49.5 42.0519 41.9505 49.5 32.5 49.5ZM27 25.5C27 27.433 25.433 29 23.5 29C21.567 29 20 27.433 20 25.5C20 23.567 21.567 22 23.5 22C25.433 22 27 23.567 27 25.5ZM41.5 29C43.433 29 45 27.433 45 25.5C45 23.567 43.433 22 41.5 22C39.567 22 38 23.567 38 25.5C38 27.433 39.567 29 41.5 29Z" fill="white"/>
</svg>
