<svg width="120" height="120" viewBox="0 0 120 120" fill="none" xmlns="http://www.w3.org/2000/svg">
<path d="M117 60C117 91.4802 91.4802 117 60 117C28.5198 117 3 91.4802 3 60C3 28.5198 28.5198 3 60 3C91.4802 3 117 28.5198 117 60Z" stroke="white" stroke-width="6"/>
<path fill-rule="evenodd" clip-rule="evenodd" d="M89.2848 36.8356L59.8698 24L30.4552 36.8356L30.1617 38.0258C27.0101 50.8073 28.3911 80.045 58.7479 95.4313L59.8698 96L60.9918 95.4313C91.3485 80.0451 92.7299 50.8074 89.5782 38.0258L89.2848 36.8356ZM34.7164 40.3916L59.8698 29.4154L85.0236 40.3916C87.4208 52.1534 85.5062 76.7589 59.8698 90.4209C34.2334 76.7589 32.3191 52.1534 34.7164 40.3916ZM58 68.0355L75.2678 50.7678L71.7322 47.2322L58 60.9645L52.7678 55.7322L49.2322 59.2678L58 68.0355Z" fill="white"/>
</svg>
