<svg width="120" height="120" viewBox="0 0 120 120" fill="none" xmlns="http://www.w3.org/2000/svg">
<path d="M117 60C117 91.4802 91.4802 117 60 117C28.5198 117 3 91.4802 3 60C3 28.5198 28.5198 3 60 3C91.4802 3 117 28.5198 117 60Z" stroke="white" stroke-width="6"/>
<path fill-rule="evenodd" clip-rule="evenodd" d="M87 59.5C87 74.6878 74.6878 87 59.5 87C44.3122 87 32 74.6878 32 59.5C32 44.3122 44.3122 32 59.5 32C74.6878 32 87 44.3122 87 59.5ZM92 59.5C92 77.4493 77.4493 92 59.5 92C41.5507 92 27 77.4493 27 59.5C27 41.5507 41.5507 27 59.5 27C77.4493 27 92 41.5507 92 59.5ZM59.5 76.5C50.0495 76.5 42.5 69.0519 42.5 60H37.5C37.5 71.9349 47.4114 81.5 59.5 81.5C71.5887 81.5 81.5 71.9349 81.5 60H76.5C76.5 69.0519 68.9505 76.5 59.5 76.5ZM54 52.5C54 54.433 52.433 56 50.5 56C48.567 56 47 54.433 47 52.5C47 50.567 48.567 49 50.5 49C52.433 49 54 50.567 54 52.5ZM68.5 56C70.433 56 72 54.433 72 52.5C72 50.567 70.433 49 68.5 49C66.567 49 65 50.567 65 52.5C65 54.433 66.567 56 68.5 56Z" fill="white"/>
</svg>
