<svg width="62" height="72" viewBox="0 0 62 72" fill="none" xmlns="http://www.w3.org/2000/svg">
<path fill-rule="evenodd" clip-rule="evenodd" d="M60.2848 12.8356L30.8698 0L1.45517 12.8356L1.1617 14.0258C-1.98991 26.8073 -0.60886 56.045 29.7479 71.4313L30.8698 72L31.9918 71.4313C62.3485 56.0451 63.7299 26.8074 60.5782 14.0258L60.2848 12.8356ZM5.71636 16.3916L30.8698 5.41541L56.0236 16.3916C58.4208 28.1534 56.5062 52.7589 30.8698 66.4209C5.23343 52.7589 3.31909 28.1534 5.71636 16.3916ZM29 44.0355L46.2678 26.7678L42.7322 23.2322L29 36.9645L23.7678 31.7322L20.2322 35.2678L29 44.0355Z" fill="white"/>
</svg>
