<svg width="63" height="71" viewBox="0 0 63 71" fill="none" xmlns="http://www.w3.org/2000/svg">
<path d="M21.5 25C21.5 30.799 26.201 35.5 32 35.5C37.799 35.5 42.5 30.799 42.5 25H45.5C45.5 32.4558 39.4558 38.5 32 38.5C24.5442 38.5 18.5 32.4558 18.5 25H21.5Z" fill="white"/>
<path d="M45.5 63.5H53.5V59.5H45.5V63.5Z" fill="white"/>
<path fill-rule="evenodd" clip-rule="evenodd" d="M11.93 42.5239C4.92035 45.4793 0 52.415 0 60.5V71H63V60.5C63 52.6848 58.4026 45.9435 51.7647 42.8329C50.0043 42.008 48.1004 41.4384 46.1007 41.1719C47.6706 39.952 49.0782 38.5331 50.2857 36.9531C53.2432 33.0832 55 28.2467 55 23C55 10.2975 44.7025 0 32 0C19.2975 0 9 10.2975 9 23C9 28.1462 10.6901 32.8976 13.5456 36.7295C14.7587 38.3575 16.1821 39.8194 17.7757 41.0752C15.7189 41.2554 13.7537 41.7549 11.93 42.5239ZM41.274 42.4769C40.748 40.5315 41.4414 38.4604 43.0327 37.2238C47.2814 33.9223 50 28.7799 50 23C50 13.0589 41.9411 5 32 5C22.0589 5 14 13.0589 14 23C14 28.736 16.6773 33.8437 20.8704 37.148C22.4807 38.417 23.1531 40.5404 22.5669 42.505C22.4863 42.775 22.3842 43.0344 22.2627 43.2817L32 54.1204L41.6267 43.4047C41.4805 43.1116 41.3617 42.8013 41.274 42.4769ZM52.0054 48.7543L38.0167 64.4916L32 57.8732L25.9833 64.4916L11.6157 48.3281C7.63449 50.9131 5 55.4001 5 60.5V66H58V60.5C58 55.6709 55.6373 51.3901 52.0054 48.7543ZM17.0475 48.418L26.0167 58.5084L28.3043 55.9921L19.8695 46.603L17.0475 48.418ZM37.9833 58.5084L46.9525 48.418L44.1305 46.603L35.6957 55.9921L37.9833 58.5084Z" fill="white"/>
</svg>
