<svg width="120" height="120" viewBox="0 0 120 120" fill="none" xmlns="http://www.w3.org/2000/svg">
<path d="M117 60C117 91.4802 91.4802 117 60 117C28.5198 117 3 91.4802 3 60C3 28.5198 28.5198 3 60 3C91.4802 3 117 28.5198 117 60Z" stroke="white" stroke-width="6"/>
<path fill-rule="evenodd" clip-rule="evenodd" d="M25.946 34H23.946V36V60.4286V76V78H25.946H34.8311C35.5204 81.979 38.9034 85 42.9729 85C47.0425 85 50.4255 81.979 51.1148 78H74.7567H76.6688C77.3581 81.979 80.7411 85 84.8107 85C88.8802 85 92.2632 81.979 92.9526 78H93.8082H95.738L95.8069 76.0714C95.9001 73.4632 96.0119 69.3731 96.0445 65.5707C96.0764 61.8558 96.0378 58.1769 95.7844 56.5494C95.4912 54.6669 94.6494 53.3154 93.5337 52.4638C93.0528 52.0967 92.5444 51.8408 92.0479 51.675L89.8898 44.1621L89.474 42.7143H87.9676H76.7567V36V34H74.7567H25.946ZM84.8107 68C81.0897 68 77.9426 70.5257 76.9039 74H76.7567V55.4286H90.4707H90.522L90.5724 55.426L90.574 55.4261C90.5849 55.4266 90.6494 55.4292 90.7487 55.4589C90.8574 55.4913 90.9827 55.5487 91.1067 55.6434C91.3168 55.8037 91.6802 56.1903 91.832 57.1649C92.0235 58.3946 92.0777 61.6918 92.0447 65.5364C92.0255 67.764 91.9788 70.0955 91.9248 72.1628C90.4831 69.6703 87.8367 68 84.8107 68ZM50.8797 74H72.7567V53.4286V44.7143V38H27.946V60.4286V74H35.0662C36.1049 70.5257 39.2519 68 42.9729 68C46.6939 68 49.841 70.5257 50.8797 74ZM87.8153 51.4286H76.7567V46.7143H86.4612L87.8153 51.4286ZM47.2432 76.5C47.2432 79.0893 45.2287 81 42.9729 81C40.7172 81 38.7027 79.0893 38.7027 76.5C38.7027 73.9107 40.7172 72 42.9729 72C45.2287 72 47.2432 73.9107 47.2432 76.5ZM84.8107 81C87.0664 81 89.0809 79.0893 89.0809 76.5C89.0809 73.9107 87.0664 72 84.8107 72C82.5549 72 80.5404 73.9107 80.5404 76.5C80.5404 79.0893 82.5549 81 84.8107 81ZM49.7577 58.8947L62.8928 45.3947L60.0259 42.6053L48.2721 54.6856L42.8943 49.5532L40.1327 52.4468L46.9435 58.9468L48.3764 60.3144L49.7577 58.8947Z" fill="white"/>
</svg>
