<svg width="120" height="120" viewBox="0 0 120 120" fill="none" xmlns="http://www.w3.org/2000/svg">
<path d="M117 60C117 91.4802 91.4802 117 60 117C28.5198 117 3 91.4802 3 60C3 28.5198 28.5198 3 60 3C91.4802 3 117 28.5198 117 60Z" stroke="white" stroke-width="6"/>
<path d="M47 89H74C76.49 89 78.62 87.5 79.52 85.34L88.58 64.19C88.85 63.5 89 62.78 89 62V56C89 52.7 86.3 50 83 50H62L63.92 38.29L64.01 37.33C64.01 36.1 63.5 34.96 62.69 34.15L59.51 31L42.74 48.77C41.66 49.85 41 51.35 41 53V83C41 86.3 43.7 89 47 89ZM45 53L60 36.5L57 54H85V62L75 85H45V53ZM31 53H37V89H31V53Z" fill="white"/>
</svg>
