<svg width="54" height="54" viewBox="0 0 54 54" fill="none" xmlns="http://www.w3.org/2000/svg">
<path d="M35.0007 5.66659V24.3333H8.78732L7.21398 25.9066L5.66732 27.4533V5.66659H35.0007ZM37.6673 0.333252H3.00065C1.53398 0.333252 0.333984 1.53325 0.333984 2.99992V40.3333L11.0007 29.6666H37.6673C39.134 29.6666 40.334 28.4666 40.334 26.9999V2.99992C40.334 1.53325 39.134 0.333252 37.6673 0.333252ZM51.0007 10.9999H45.6673V34.9999H11.0007V40.3333C11.0007 41.7999 12.2007 42.9999 13.6673 42.9999H43.0007L53.6673 53.6666V13.6666C53.6673 12.1999 52.4673 10.9999 51.0007 10.9999Z" fill="#B01421"/>
</svg>
