<svg width="120" height="121" viewBox="0 0 120 121" fill="none" xmlns="http://www.w3.org/2000/svg">
<path d="M117 60.5C117 91.9802 91.4802 117.5 60 117.5C28.5198 117.5 3 91.9802 3 60.5C3 29.0198 28.5198 3.5 60 3.5C91.4802 3.5 117 29.0198 117 60.5Z" stroke="#B01421" stroke-width="6"/>
<path d="M71.2216 44.3224L67.7987 40.6776L56.7324 51.0704L51.2216 45.895L47.7987 49.5398L56.7324 57.9296L71.2216 44.3224Z" fill="#B01421"/>
<path fill-rule="evenodd" clip-rule="evenodd" d="M37.5101 49.5C37.5101 37.3497 47.3599 27.5 59.5102 27.5C71.6604 27.5 81.5102 37.3497 81.5102 49.5C81.5102 53.3576 80.5173 56.9832 78.7732 60.1354L94.538 82.6498L82.7908 81.9897L79.3933 93.2542L63.8598 71.0701C62.4537 71.3521 60.9992 71.5 59.5102 71.5C58.1818 71.5 56.881 71.3823 55.6175 71.1567L40.1447 93.2542L36.7472 81.9897L25 82.6498L40.4788 60.5438C38.5912 57.298 37.5101 53.5253 37.5101 49.5ZM59.5102 67.5C49.569 67.5 41.5102 59.4411 41.5102 49.5C41.5102 39.5589 49.569 31.5 59.5102 31.5C69.4513 31.5 77.5102 39.5589 77.5102 49.5C77.5102 59.4411 69.4513 67.5 59.5102 67.5ZM66.9261 70.2188L78.3058 86.4708L80.6007 78.8619L88.5356 79.3078L77.0052 62.8407C74.4517 66.1843 70.9614 68.7743 66.9261 70.2188ZM42.2879 63.1905C44.9044 66.4777 48.4423 68.9988 52.5108 70.3632L41.2322 86.4708L38.9373 78.8619L31.0024 79.3078L42.2879 63.1905Z" fill="#B01421"/>
</svg>
