<svg width="120" height="121" viewBox="0 0 120 121" fill="none" xmlns="http://www.w3.org/2000/svg">
<path d="M117 60.5C117 91.9802 91.4802 117.5 60 117.5C28.5198 117.5 3 91.9802 3 60.5C3 29.0198 28.5198 3.5 60 3.5C91.4802 3.5 117 29.0198 117 60.5Z" stroke="#B01421" stroke-width="6"/>
<path fill-rule="evenodd" clip-rule="evenodd" d="M52.5005 41.6246C52.0531 40.4794 51.7647 38.8629 52.0491 37.6295C52.1792 37.0655 52.4084 36.6621 52.7261 36.3705C53.0398 36.0825 53.6118 35.7455 54.7021 35.6038C56.3537 35.3891 57.2159 35.5492 57.6263 35.7088C57.9424 35.8318 58.0589 35.9736 58.1601 36.1781C58.3098 36.481 58.4145 36.9337 58.5004 37.6821C58.5132 37.7932 58.5264 37.9272 58.5413 38.0773C58.6005 38.6767 58.6849 39.532 58.8653 40.205C59.3562 42.0373 60.5857 43.6752 62.4177 44.4588C64.2949 45.2617 66.4164 45.0038 68.3128 43.7832C68.3715 43.7754 68.5826 43.7564 69.0104 43.8747C69.6527 44.0525 70.4447 44.4641 71.1652 45.0887C72.6416 46.3687 73.2597 47.9604 72.6964 49.5086C71.7401 52.1373 69.8825 55.5003 67.9884 57.679C67.0338 58.777 66.2895 59.3162 65.8579 59.489C65.3473 58.8567 64.8836 58.2607 64.4573 57.7128C63.7375 56.7876 63.1245 55.9997 62.5729 55.4061C61.4805 54.2305 60.3814 53.4854 58.6624 52.7322C56.2201 51.6621 54.0572 52.3492 52.5742 53.0656C52.023 53.3319 51.4683 53.6525 51.0367 53.9019L51.0366 53.9019C50.9198 53.9694 50.8121 54.0317 50.7159 54.0862C50.171 54.3952 49.9087 54.5106 49.7676 54.5484C49.5312 54.6117 49.0011 54.6971 48.3375 54.7007C47.6783 54.7043 47.0487 54.6257 46.5658 54.4678C46.0741 54.3069 45.9492 54.1387 45.9337 54.1143C45.9276 54.1047 45.9028 54.0657 45.8904 53.9551C45.8765 53.8315 45.876 53.5909 45.9743 53.1982C46.5134 51.0448 47.2181 50.157 47.7104 49.7388C48.2348 49.2933 48.8049 49.1123 49.793 48.8475C50.4684 48.6666 51.2357 48.3649 51.8806 47.7839C52.5956 47.1397 52.966 46.3301 53.0865 45.5085C53.1933 44.7797 53.0974 44.0848 52.9962 43.5603C52.8956 43.0397 52.7427 42.469 52.6008 41.9397L52.5509 41.7536L52.5005 41.6246ZM54.0577 30.6455C52.1467 30.8938 50.5548 31.5766 49.3451 32.6868C48.1395 33.7934 47.4859 35.1664 47.177 36.5059C46.5995 39.01 47.1603 41.6321 47.7907 43.3068C47.8814 43.6458 47.9533 43.9188 48.0086 44.1507C47.0548 44.4179 45.7197 44.8693 44.4734 45.928C42.9628 47.2112 41.835 49.1438 41.124 51.984C40.69 53.7178 40.8224 55.3909 41.7117 56.7929C42.5645 58.1373 43.8721 58.8474 45.0115 59.22C47.2054 59.9376 49.7428 59.7314 51.0617 59.378C51.8866 59.157 52.6462 58.7396 53.1826 58.4354C53.35 58.3404 53.5037 58.2518 53.6485 58.1682L53.6486 58.1682C54.048 57.9377 54.3802 57.746 54.7491 57.5678C55.6722 57.1218 56.1656 57.0971 56.6558 57.3119C57.8692 57.8435 58.3658 58.2238 58.91 58.8095C59.3354 59.2673 59.7232 59.7685 60.2892 60.5002L60.2893 60.5002L60.2895 60.5005C60.7234 61.0614 61.2622 61.7578 62.003 62.6738C62.6709 63.4996 63.5483 64.1364 64.6298 64.4025C65.6928 64.6641 66.7067 64.5074 67.5631 64.1899C69.1823 63.5896 70.6143 62.2793 71.7617 60.9595C74.1212 58.2456 76.2648 54.3248 77.3951 51.218C78.9185 47.0307 76.841 43.3919 74.4404 41.3108C73.2224 40.2548 71.7805 39.4533 70.3437 39.0558C68.9938 38.6823 67.169 38.5475 65.6381 39.5583C64.9157 40.0353 64.5265 39.9226 64.384 39.8616C64.1698 39.77 63.851 39.4934 63.6949 38.9109C63.629 38.665 63.6026 38.4023 63.5564 37.9438L63.5564 37.9437C63.5338 37.7199 63.5066 37.4494 63.4678 37.1116C63.3717 36.275 63.1986 35.0874 62.6421 33.962C62.037 32.7381 61.0187 31.6634 59.4388 31.0489C57.953 30.471 56.1577 30.3725 54.0577 30.6455ZM67.1124 66.5023L69.0923 66.7851L76.0923 67.7851L78.0722 68.068L77.7894 70.0479L76.7894 77.0479L76.5066 79.0278L72.5468 78.4621L72.8296 76.4822L73.1207 74.4446L63.0317 82.4317L67.8095 86.2142L86.918 71.0866L84.5267 70.7449L82.5468 70.4621L83.1124 66.5023L85.0923 66.7851L92.0923 67.7851L94.0722 68.068L93.7894 70.0479L92.7894 77.0479L92.5065 79.0278L88.5468 78.4621L88.8296 76.4822L89.1207 74.4446L69.0509 90.3331L67.8095 91.3159L66.5681 90.3331L59.8095 84.9826L53.0509 90.3331L51.8095 91.3159L50.5681 90.3331L26.5681 71.3331L25 70.0917L27.4828 66.9556L29.0509 68.197L51.8095 86.2142L56.5873 82.4317L42.5681 71.3331L41 70.0917L43.4828 66.9556L45.0509 68.197L59.8095 79.8808L70.918 71.0866L68.5267 70.7449L66.5468 70.4621L67.1124 66.5023Z" fill="#B01421"/>
</svg>
