<svg width="120" height="120" viewBox="0 0 120 120" fill="none" xmlns="http://www.w3.org/2000/svg">
<path d="M117 60C117 91.4802 91.4802 117 60 117C28.5198 117 3 91.4802 3 60C3 28.5198 28.5198 3 60 3C91.4802 3 117 28.5198 117 60Z" stroke="#B01421" stroke-width="6"/>
<path fill-rule="evenodd" clip-rule="evenodd" d="M41.7574 57.3137L38.2218 53.7782C33.9261 49.4824 33.9261 42.5176 38.2218 38.2218C42.5176 33.9261 49.4824 33.9261 53.7782 38.2218L57.3137 41.7573L41.7574 57.3137ZM38.9289 60.1421L35.3934 56.6066C29.5356 50.7487 29.5356 41.2513 35.3934 35.3934C41.2513 29.5355 50.7488 29.5355 56.6066 35.3934L60.1422 38.9289L63.6777 35.3934C69.5355 29.5355 79.033 29.5355 84.8909 35.3934C90.7487 41.2513 90.7487 50.7487 84.8909 56.6066L81.3554 60.1421L84.8909 63.6777C90.7488 69.5355 90.7488 79.033 84.8909 84.8909C79.033 90.7487 69.5356 90.7487 63.6777 84.8909L60.1421 81.3553L56.6066 84.8909C50.7487 90.7487 41.2513 90.7487 35.3934 84.8909C29.5355 79.033 29.5355 69.5355 35.3934 63.6777L38.9289 60.1421ZM57.3137 78.5269L53.7782 82.0625C49.4824 86.3582 42.5176 86.3582 38.2218 82.0625C33.9261 77.7667 33.9261 70.8019 38.2218 66.5061L41.7574 62.9706L57.3137 78.5269ZM60.1421 75.6985L44.5858 60.1421L60.1422 44.5858L75.6985 60.1421L60.1421 75.6985ZM62.9706 78.5269L66.5061 82.0624C70.8019 86.3582 77.7667 86.3582 82.0625 82.0624C86.3582 77.7667 86.3582 70.8019 82.0625 66.5061L78.5269 62.9706L62.9706 78.5269ZM78.5269 57.3137L82.0624 53.7782C86.3582 49.4824 86.3582 42.5176 82.0624 38.2218C77.7667 33.9261 70.8019 33.9261 66.5061 38.2218L62.9706 41.7574L78.5269 57.3137ZM59.1421 56.6421C59.1421 58.0229 58.0229 59.1421 56.6421 59.1421C55.2614 59.1421 54.1421 58.0229 54.1421 56.6421C54.1421 55.2614 55.2614 54.1421 56.6421 54.1421C58.0229 54.1421 59.1421 55.2614 59.1421 56.6421ZM63.6421 59.1421C65.0229 59.1421 66.1421 58.0229 66.1421 56.6421C66.1421 55.2614 65.0229 54.1421 63.6421 54.1421C62.2614 54.1421 61.1421 55.2614 61.1421 56.6421C61.1421 58.0229 62.2614 59.1421 63.6421 59.1421ZM66.1421 63.6421C66.1421 65.0229 65.0229 66.1421 63.6421 66.1421C62.2614 66.1421 61.1421 65.0229 61.1421 63.6421C61.1421 62.2614 62.2614 61.1421 63.6421 61.1421C65.0229 61.1421 66.1421 62.2614 66.1421 63.6421ZM56.6421 66.1421C58.0229 66.1421 59.1421 65.0229 59.1421 63.6421C59.1421 62.2614 58.0229 61.1421 56.6421 61.1421C55.2614 61.1421 54.1421 62.2614 54.1421 63.6421C54.1421 65.0229 55.2614 66.1421 56.6421 66.1421Z" fill="#B01421"/>
</svg>
