<svg width="120" height="120" viewBox="0 0 120 120" fill="none" xmlns="http://www.w3.org/2000/svg">
<path d="M117 60C117 91.4802 91.4802 117 60 117C28.5198 117 3 91.4802 3 60C3 28.5198 28.5198 3 60 3C91.4802 3 117 28.5198 117 60Z" stroke="#B01421" stroke-width="6"/>
<path fill-rule="evenodd" clip-rule="evenodd" d="M39.8532 32.8601C41.7486 28.7815 42.5 25 42.5 25C42.5 25 43.3538 28.7538 45.311 32.8173C46.0299 34.31 46.8977 35.8444 47.9267 37.25C49.5082 39.4102 52.0572 41.1201 54.4863 42.3781C57.8587 44.1246 61 45 61 45C61 45 57.903 46.1895 54.5257 47.9335C52.1328 49.1692 49.5991 50.6833 47.9267 52.25C46.9215 53.1916 46.1011 54.2085 45.4318 55.2481C43.1626 58.7728 42.6295 62.5594 42.5168 64.5635C42.4491 62.5549 41.9945 58.7552 39.758 55.2186C39.1075 54.19 38.3063 53.1836 37.32 52.25C35.6409 50.6607 33.0871 49.1513 30.6633 47.9254C27.1989 46.1732 24 45 24 45C24 45 27.2443 44.146 30.7006 42.3925C33.1662 41.1416 35.7395 39.433 37.32 37.25C38.3274 35.8585 39.1656 34.3397 39.8532 32.8601ZM42.5 66C42.5 66 42.547 65.4602 42.5168 64.5635C42.4663 65.4601 42.5 66 42.5 66ZM42.615 38.3034C42.2293 38.9382 41.8148 39.5677 41.37 40.1822C39.8993 42.2135 37.939 43.844 35.9681 45.1279C37.6903 46.1511 39.3943 47.3288 40.7571 48.6187C41.4435 49.2684 42.0602 49.9422 42.6143 50.6299C43.1803 49.9357 43.8093 49.2558 44.5084 48.601C45.8674 47.3279 47.5668 46.1528 49.279 45.1271C47.3222 43.8432 45.3666 42.2173 43.8923 40.2036C43.4375 39.5824 43.0122 38.9456 42.615 38.3034ZM56.8532 61.8601C58.7486 57.7815 59.5 54 59.5 54C59.5 54 60.3538 57.7538 62.311 61.8173C63.0299 63.31 63.8977 64.8444 64.9267 66.25C66.5082 68.4102 69.0572 70.1201 71.4863 71.3781C74.8587 73.1246 78 74 78 74C78 74 74.903 75.1895 71.5257 76.9335C69.1328 78.1692 66.5991 79.6833 64.9267 81.25C63.9215 82.1916 63.1011 83.2085 62.4318 84.2481C60.1626 87.7728 59.6295 91.5594 59.5168 93.5635C59.4491 91.5549 58.9945 87.7552 56.758 84.2186C56.1075 83.19 55.3063 82.1836 54.32 81.25C52.6409 79.6607 50.0871 78.1513 47.6633 76.9254C44.1989 75.1732 41 74 41 74C41 74 44.2443 73.146 47.7006 71.3925C50.1662 70.1416 52.7395 68.433 54.32 66.25C55.3274 64.8585 56.1656 63.3397 56.8532 61.8601ZM59.5 95C59.5 95 59.547 94.4603 59.5168 93.5635C59.4663 94.4601 59.5 95 59.5 95ZM59.615 67.3034C59.2293 67.9382 58.8148 68.5677 58.37 69.1822C56.8993 71.2135 54.939 72.844 52.9681 74.1279C54.6903 75.1511 56.3943 76.3288 57.7571 77.6187C58.4435 78.2684 59.0602 78.9422 59.6143 79.6299C60.1803 78.9357 60.8093 78.2558 61.5084 77.601C62.8674 76.3279 64.5668 75.1528 66.279 74.1271C64.3222 72.8432 62.3666 71.2173 60.8923 69.2036C60.4375 68.5824 60.0122 67.9456 59.615 67.3034ZM77.5 30C77.5 30 76.7486 33.7815 74.8532 37.8601C74.1656 39.3397 73.3274 40.8585 72.32 42.25C70.7395 44.433 68.1662 46.1416 65.7006 47.3925C62.2443 49.146 59 50 59 50C59 50 62.1989 51.1732 65.6633 52.9254C68.0871 54.1513 70.6409 55.6607 72.32 57.25C73.3063 58.1836 74.1075 59.19 74.758 60.2186C76.9945 63.7552 77.4491 67.5549 77.5168 69.5635C77.4663 70.4601 77.5 71 77.5 71C77.5 71 77.547 70.4602 77.5168 69.5635C77.6295 67.5594 78.1626 63.7728 80.4318 60.2481C81.1011 59.2085 81.9215 58.1916 82.9267 57.25C84.5991 55.6833 87.1328 54.1692 89.5257 52.9335C92.903 51.1895 96 50 96 50C96 50 92.8587 49.1246 89.4863 47.3781C87.0572 46.1201 84.5082 44.4102 82.9267 42.25C81.8977 40.8444 81.0299 39.31 80.311 37.8173C78.3538 33.7538 77.5 30 77.5 30ZM76.37 45.1822C76.8148 44.5677 77.2293 43.9382 77.615 43.3034C78.0122 43.9456 78.4375 44.5824 78.8923 45.2036C80.3666 47.2173 82.3222 48.8432 84.279 50.1271C82.5668 51.1528 80.8674 52.3279 79.5084 53.601C78.8093 54.2558 78.1803 54.9357 77.6143 55.6299C77.0602 54.9422 76.4435 54.2684 75.7571 53.6187C74.3943 52.3288 72.6903 51.1511 70.9681 50.1279C72.939 48.844 74.8993 47.2135 76.37 45.1822Z" fill="#B01421"/>
</svg>
