<svg width="120" height="120" viewBox="0 0 120 120" fill="none" xmlns="http://www.w3.org/2000/svg">
<path d="M117 60C117 91.4802 91.4802 117 60 117C28.5198 117 3 91.4802 3 60C3 28.5198 28.5198 3 60 3C91.4802 3 117 28.5198 117 60Z" stroke="#B01421" stroke-width="6"/>
<path fill-rule="evenodd" clip-rule="evenodd" d="M49.4644 54.5046C44.4575 52.0772 41 46.9445 41 41C41 32.7157 47.7157 26 56 26C64.2843 26 71 32.7157 71 41C71 47.3616 67.0409 52.7937 61.4575 54.9757L61.461 56.3077C61.8561 56.226 62.2654 56.183 62.6849 56.183C64.03 56.183 65.2713 56.6246 66.2699 57.3698C67.2686 56.6246 68.5098 56.183 69.855 56.183C71.2001 56.183 72.4413 56.6246 73.44 57.3698C74.4386 56.6246 75.6799 56.183 77.025 56.183C80.3249 56.183 83 58.8408 83 62.1192V70.4299C83 81.333 79.3528 88.1712 73.6203 91.5581C68.0287 94.8618 61.1367 94.4597 55.4566 92.4441C50.7427 90.7713 47.788 86.702 46.0673 82.6931L38.4903 65.0408C37.2787 62.218 38.3794 58.9409 41.0543 57.4066C44.0234 55.7035 47.8198 56.7623 49.4644 59.7475V54.5046ZM45 41C45 34.9249 49.9249 30 56 30C62.0751 30 67 34.9249 67 41C67 45.0916 64.7652 48.6649 61.4461 50.56L61.4237 41.9255C61.4152 38.6505 58.7405 36 55.444 36C52.1416 36 49.4644 38.6598 49.4644 41.9408V49.8493C46.7544 47.8444 45 44.6256 45 41ZM49.8291 70.3749L54.2444 69.2426V41.9408C54.2444 41.2825 54.7815 40.749 55.444 40.749C56.1054 40.749 56.642 41.2807 56.6437 41.9377L56.7099 67.4618L56.7099 67.4679L59.0999 67.4618H61.4899V62.1192C61.4899 61.4635 62.0249 60.932 62.6849 60.932C63.3449 60.932 63.8799 61.4635 63.8799 62.1192V68.0554H68.6599V62.1192C68.6599 61.4635 69.195 60.932 69.855 60.932C70.5149 60.932 71.05 61.4635 71.05 62.1192V68.0554H75.83V62.1192C75.83 61.4635 76.365 60.932 77.025 60.932C77.685 60.932 78.22 61.4635 78.22 62.1192V70.4299C78.22 80.3052 74.977 85.2313 71.177 87.4764C67.2362 89.8048 61.9534 89.7067 57.0645 87.9718C54.1292 86.9302 51.9296 84.2444 50.4642 80.8303L42.8873 63.1779C42.624 62.5647 42.8631 61.8527 43.4443 61.5193C44.0909 61.1485 44.918 61.3804 45.2739 62.0323L49.8291 70.3749Z" fill="#B01421"/>
</svg>
