<svg width="39" height="40" viewBox="0 0 39 40" fill="none" xmlns="http://www.w3.org/2000/svg">
<path d="M33.6449 5.13917C30.2657 1.8249 25.7725 -0.000185368 20.9938 1.41212e-08C20.2107 1.41212e-08 19.5762 0.622513 19.5762 1.39037C19.5762 2.15822 20.2109 2.78073 20.9938 2.78073C25.0153 2.78055 28.7962 4.31644 31.64 7.10551C34.484 9.89459 36.05 13.603 36.0498 17.5474C36.0498 18.3152 36.6843 18.9377 37.4674 18.9377C38.2503 18.9377 38.885 18.3152 38.885 17.5475C38.8852 12.8601 37.0243 8.45343 33.6449 5.13917Z" fill="#B01421"/>
<path d="M27.8133 17.5471C27.8133 18.3149 28.4481 18.9374 29.2312 18.9373C30.0141 18.9373 30.6486 18.3147 30.6486 17.5469C30.6482 12.3265 26.3171 8.07887 20.994 8.07812C20.9938 8.07812 20.994 8.07812 20.9938 8.07812C20.2109 8.07812 19.5764 8.70045 19.5762 9.46831C19.5762 10.2362 20.2107 10.8587 20.9936 10.8589C24.7537 10.8594 27.813 13.8596 27.8133 17.5471Z" fill="#B01421"/>
<path d="M24.6764 24.6371C22.5155 24.5273 21.4147 26.1035 20.8868 26.8606C20.4447 27.4944 20.6102 28.3596 21.2565 28.7932C21.9027 29.2268 22.7849 29.0644 23.227 28.4306C23.8508 27.5361 24.1333 27.3954 24.5167 27.4132C25.7436 27.5546 30.5758 31.0276 31.0597 32.1136C31.181 32.4333 31.1765 32.7468 31.0463 33.1282C30.5389 34.6049 29.6991 35.6427 28.6172 36.1291C27.5893 36.5913 26.3291 36.5494 24.9737 36.0084C19.9124 33.9852 15.4905 31.1616 11.8312 27.616C11.8296 27.6145 11.8281 27.6132 11.8268 27.6117C8.21922 24.0263 5.34559 19.695 3.28606 14.7386C2.73432 13.4081 2.6916 12.172 3.16282 11.1641C3.6588 10.1029 4.71692 9.27929 6.22131 8.78228C6.61144 8.654 6.9305 8.64992 7.25353 8.76782C8.36477 9.24407 11.9056 13.9832 12.0485 15.173C12.0689 15.563 11.9243 15.84 11.0131 16.4506C10.3666 16.8837 10.2005 17.7488 10.6422 18.3829C11.0838 19.0169 11.9657 19.1796 12.6124 18.7466C13.3847 18.2294 14.9913 17.1527 14.8798 15.0261C14.7569 12.8049 10.3513 6.92253 8.24625 6.16339C7.31005 5.82117 6.32527 5.81524 5.31819 6.1467C3.05225 6.89509 1.41574 8.22947 0.585575 10.0054C-0.219638 11.7284 -0.194121 13.7274 0.660237 15.7873C2.86437 21.0915 5.94818 25.7325 9.82587 29.582C9.83532 29.5914 9.84496 29.6007 9.85479 29.6098C13.7769 33.4059 18.5035 36.4248 23.9044 38.584C24.986 39.0153 26.0511 39.2313 27.0697 39.2313C28.0288 39.2313 28.947 39.04 29.7987 38.657C31.6097 37.843 32.9701 36.2381 33.7337 34.0143C34.0709 33.0284 34.0654 32.063 33.7192 31.149C32.9425 29.0789 26.9448 24.758 24.6764 24.6371Z" fill="#2D2D2D"/>
</svg>
