<svg width="59" height="59" viewBox="0 0 59 59" fill="none" xmlns="http://www.w3.org/2000/svg">
<path fill-rule="evenodd" clip-rule="evenodd" d="M10.7574 26.3137L7.22185 22.7782C2.92608 18.4824 2.92608 11.5176 7.22185 7.22182C11.5176 2.92606 18.4824 2.92606 22.7782 7.22183L26.3137 10.7573L10.7574 26.3137ZM7.92895 29.1421L4.39342 25.6066C-1.46444 19.7487 -1.46444 10.2513 4.39342 4.3934C10.2513 -1.46447 19.7488 -1.46447 25.6066 4.3934L29.1422 7.92892L32.6777 4.3934C38.5355 -1.46446 48.033 -1.46446 53.8909 4.39341C59.7487 10.2513 59.7487 19.7487 53.8909 25.6066L50.3554 29.1421L53.8909 32.6777C59.7488 38.5355 59.7488 48.033 53.8909 53.8909C48.033 59.7487 38.5356 59.7487 32.6777 53.8909L29.1421 50.3553L25.6066 53.8909C19.7487 59.7487 10.2513 59.7487 4.3934 53.8909C-1.46447 48.033 -1.46447 38.5355 4.3934 32.6777L7.92895 29.1421ZM26.3137 47.5269L22.7782 51.0625C18.4824 55.3582 11.5176 55.3582 7.22182 51.0625C2.92606 46.7667 2.92606 39.8019 7.22183 35.5061L10.7574 31.9706L26.3137 47.5269ZM29.1421 44.6985L13.5858 29.1421L29.1422 13.5858L44.6985 29.1421L29.1421 44.6985ZM31.9706 47.5269L35.5061 51.0624C39.8019 55.3582 46.7667 55.3582 51.0625 51.0624C55.3582 46.7667 55.3582 39.8019 51.0625 35.5061L47.5269 31.9706L31.9706 47.5269ZM47.5269 26.3137L51.0624 22.7782C55.3582 18.4824 55.3582 11.5176 51.0624 7.22183C46.7667 2.92607 39.8019 2.92607 35.5061 7.22183L31.9706 10.7574L47.5269 26.3137ZM28.1421 25.6421C28.1421 27.0229 27.0229 28.1421 25.6421 28.1421C24.2614 28.1421 23.1421 27.0229 23.1421 25.6421C23.1421 24.2614 24.2614 23.1421 25.6421 23.1421C27.0229 23.1421 28.1421 24.2614 28.1421 25.6421ZM32.6421 28.1421C34.0229 28.1421 35.1421 27.0229 35.1421 25.6421C35.1421 24.2614 34.0229 23.1421 32.6421 23.1421C31.2614 23.1421 30.1421 24.2614 30.1421 25.6421C30.1421 27.0229 31.2614 28.1421 32.6421 28.1421ZM35.1421 32.6421C35.1421 34.0229 34.0229 35.1421 32.6421 35.1421C31.2614 35.1421 30.1421 34.0229 30.1421 32.6421C30.1421 31.2614 31.2614 30.1421 32.6421 30.1421C34.0229 30.1421 35.1421 31.2614 35.1421 32.6421ZM25.6421 35.1421C27.0229 35.1421 28.1421 34.0229 28.1421 32.6421C28.1421 31.2614 27.0229 30.1421 25.6421 30.1421C24.2614 30.1421 23.1421 31.2614 23.1421 32.6421C23.1421 34.0229 24.2614 35.1421 25.6421 35.1421Z" fill="#B01421"/>
</svg>
