<svg width="72" height="70" viewBox="0 0 72 70" fill="none" xmlns="http://www.w3.org/2000/svg">
<path fill-rule="evenodd" clip-rule="evenodd" d="M15.8532 7.86008C17.7486 3.78145 18.5 0 18.5 0C18.5 0 19.3538 3.75376 21.311 7.81732C22.0299 9.30997 22.8977 10.8444 23.9267 12.25C25.5082 14.4102 28.0572 16.1201 30.4863 17.3781C33.8587 19.1246 37 20 37 20C37 20 33.903 21.1895 30.5257 22.9335C28.1328 24.1692 25.5991 25.6833 23.9267 27.25C22.9215 28.1916 22.1011 29.2085 21.4318 30.2481C19.1626 33.7728 18.6295 37.5594 18.5168 39.5635C18.4491 37.5549 17.9945 33.7552 15.758 30.2186C15.1075 29.19 14.3063 28.1836 13.32 27.25C11.6409 25.6607 9.08713 24.1513 6.66331 22.9254C3.19892 21.1732 0 20 0 20C0 20 3.24434 19.146 6.70062 17.3925C9.16615 16.1416 11.7395 14.433 13.32 12.25C14.3274 10.8585 15.1656 9.33973 15.8532 7.86008ZM18.5 41C18.5 41 18.547 40.4602 18.5168 39.5635C18.4663 40.4601 18.5 41 18.5 41ZM18.615 13.3034C18.2293 13.9382 17.8148 14.5677 17.37 15.1822C15.8993 17.2135 13.939 18.844 11.9681 20.1279C13.6903 21.1511 15.3943 22.3288 16.7571 23.6187C17.4435 24.2684 18.0602 24.9422 18.6143 25.6299C19.1803 24.9357 19.8093 24.2558 20.5084 23.601C21.8674 22.3279 23.5668 21.1528 25.279 20.1271C23.3222 18.8432 21.3666 17.2173 19.8923 15.2036C19.4375 14.5824 19.0122 13.9456 18.615 13.3034ZM32.8532 36.8601C34.7486 32.7815 35.5 29 35.5 29C35.5 29 36.3538 32.7538 38.311 36.8173C39.0299 38.31 39.8977 39.8444 40.9267 41.25C42.5082 43.4102 45.0572 45.1201 47.4863 46.3781C50.8587 48.1246 54 49 54 49C54 49 50.903 50.1895 47.5257 51.9335C45.1328 53.1692 42.5991 54.6833 40.9267 56.25C39.9215 57.1916 39.1011 58.2085 38.4318 59.2481C36.1626 62.7728 35.6295 66.5594 35.5168 68.5635C35.4491 66.5549 34.9945 62.7552 32.758 59.2186C32.1075 58.19 31.3063 57.1836 30.32 56.25C28.6409 54.6607 26.0871 53.1513 23.6633 51.9254C20.1989 50.1732 17 49 17 49C17 49 20.2443 48.146 23.7006 46.3925C26.1662 45.1416 28.7395 43.433 30.32 41.25C31.3274 39.8585 32.1656 38.3397 32.8532 36.8601ZM35.5 70C35.5 70 35.547 69.4603 35.5168 68.5635C35.4663 69.4601 35.5 70 35.5 70ZM35.615 42.3034C35.2293 42.9382 34.8148 43.5677 34.37 44.1822C32.8993 46.2135 30.939 47.844 28.9681 49.1279C30.6903 50.1511 32.3943 51.3288 33.7571 52.6187C34.4435 53.2684 35.0602 53.9422 35.6143 54.6299C36.1803 53.9357 36.8093 53.2558 37.5084 52.601C38.8674 51.3279 40.5668 50.1528 42.279 49.1271C40.3222 47.8432 38.3666 46.2173 36.8923 44.2036C36.4375 43.5824 36.0122 42.9456 35.615 42.3034ZM53.5 5C53.5 5 52.7486 8.78145 50.8532 12.8601C50.1656 14.3397 49.3274 15.8585 48.32 17.25C46.7395 19.433 44.1662 21.1416 41.7006 22.3925C38.2443 24.146 35 25 35 25C35 25 38.1989 26.1732 41.6633 27.9254C44.0871 29.1513 46.6409 30.6607 48.32 32.25C49.3063 33.1836 50.1075 34.19 50.758 35.2186C52.9945 38.7552 53.4491 42.5549 53.5168 44.5635C53.4663 45.4601 53.5 46 53.5 46C53.5 46 53.547 45.4602 53.5168 44.5635C53.6295 42.5594 54.1626 38.7728 56.4318 35.2481C57.1011 34.2085 57.9215 33.1916 58.9267 32.25C60.5991 30.6833 63.1328 29.1692 65.5257 27.9335C68.903 26.1895 72 25 72 25C72 25 68.8587 24.1246 65.4863 22.3781C63.0572 21.1201 60.5082 19.4102 58.9267 17.25C57.8977 15.8444 57.0299 14.31 56.311 12.8173C54.3538 8.75376 53.5 5 53.5 5ZM52.37 20.1822C52.8148 19.5677 53.2293 18.9382 53.615 18.3034C54.0122 18.9456 54.4375 19.5824 54.8923 20.2036C56.3666 22.2173 58.3222 23.8432 60.279 25.1271C58.5668 26.1528 56.8674 27.3279 55.5084 28.601C54.8093 29.2558 54.1803 29.9357 53.6143 30.6299C53.0602 29.9422 52.4435 29.2684 51.7571 28.6187C50.3943 27.3288 48.6903 26.1511 46.9681 25.1279C48.939 23.844 50.8993 22.2135 52.37 20.1822Z" fill="#B01421"/>
</svg>
