<svg width="70" height="66" viewBox="0 0 70 66" fill="none" xmlns="http://www.w3.org/2000/svg">
<path d="M46.2216 16.8224L42.7987 13.1776L31.7324 23.5704L26.2216 18.395L22.7987 22.0398L31.7324 30.4296L46.2216 16.8224Z" fill="#B01421"/>
<path fill-rule="evenodd" clip-rule="evenodd" d="M12.5101 22C12.5101 9.84974 22.3599 0 34.5102 0C46.6604 0 56.5102 9.84974 56.5102 22C56.5102 25.8576 55.5173 29.4832 53.7732 32.6354L69.538 55.1498L57.7908 54.4897L54.3933 65.7542L38.8598 43.5701C37.4537 43.8521 35.9992 44 34.5102 44C33.1818 44 31.881 43.8823 30.6175 43.6567L15.1447 65.7542L11.7472 54.4897L0 55.1498L15.4788 33.0438C13.5912 29.798 12.5101 26.0253 12.5101 22ZM34.5102 40C24.569 40 16.5102 31.9411 16.5102 22C16.5102 12.0589 24.569 4 34.5102 4C44.4513 4 52.5102 12.0589 52.5102 22C52.5102 31.9411 44.4513 40 34.5102 40ZM41.9261 42.7188L53.3058 58.9708L55.6007 51.3619L63.5356 51.8078L52.0052 35.3407C49.4517 38.6843 45.9614 41.2743 41.9261 42.7188ZM17.2879 35.6905C19.9044 38.9777 23.4423 41.4988 27.5108 42.8632L16.2322 58.9708L13.9373 51.3619L6.00243 51.8078L17.2879 35.6905Z" fill="#B01421"/>
</svg>
