<svg width="70" height="61" viewBox="0 0 70 61" fill="none" xmlns="http://www.w3.org/2000/svg">
<path fill-rule="evenodd" clip-rule="evenodd" d="M27.5005 11.1246C27.0531 9.97941 26.7647 8.36293 27.0491 7.12953C27.1792 6.56555 27.4084 6.16208 27.7261 5.87049C28.0398 5.58254 28.6118 5.24548 29.7021 5.10377C31.3537 4.8891 32.2159 5.04916 32.6263 5.20878C32.9424 5.33176 33.0589 5.47356 33.1601 5.67808C33.3098 5.98097 33.4145 6.4337 33.5004 7.18212C33.5132 7.29321 33.5264 7.42724 33.5413 7.57731C33.6005 8.17667 33.6849 9.03201 33.8653 9.70498C34.3562 11.5373 35.5857 13.1752 37.4177 13.9588C39.2949 14.7617 41.4164 14.5038 43.3128 13.2832C43.3715 13.2754 43.5826 13.2564 44.0104 13.3747C44.6527 13.5525 45.4447 13.9641 46.1652 14.5887C47.6416 15.8687 48.2597 17.4604 47.6964 19.0086C46.7401 21.6373 44.8825 25.0003 42.9884 27.179C42.0338 28.277 41.2895 28.8162 40.8579 28.989C40.3473 28.3567 39.8836 27.7607 39.4573 27.2128C38.7375 26.2876 38.1245 25.4997 37.5729 24.9061C36.4805 23.7305 35.3814 22.9854 33.6624 22.2322C31.2201 21.1621 29.0572 21.8492 27.5742 22.5656C27.023 22.8319 26.4683 23.1525 26.0367 23.4019L26.0366 23.4019C25.9198 23.4694 25.8121 23.5317 25.7159 23.5862C25.171 23.8952 24.9087 24.0106 24.7676 24.0484C24.5312 24.1117 24.0011 24.1971 23.3375 24.2007C22.6783 24.2043 22.0487 24.1257 21.5658 23.9678C21.0741 23.8069 20.9492 23.6387 20.9337 23.6143C20.9276 23.6047 20.9028 23.5657 20.8904 23.4551C20.8765 23.3315 20.876 23.0909 20.9743 22.6982C21.5134 20.5448 22.2181 19.657 22.7104 19.2388C23.2348 18.7933 23.8049 18.6123 24.793 18.3475C25.4684 18.1666 26.2357 17.8649 26.8806 17.2839C27.5956 16.6397 27.966 15.8301 28.0865 15.0085C28.1933 14.2797 28.0974 13.5848 27.9962 13.0603C27.8956 12.5397 27.7427 11.969 27.6008 11.4397L27.5509 11.2536L27.5005 11.1246ZM29.0577 0.145471C27.1467 0.393843 25.5548 1.07661 24.3451 2.18683C23.1395 3.2934 22.4859 4.66645 22.177 6.00594C21.5995 8.50997 22.1603 11.1321 22.7907 12.8068C22.8814 13.1458 22.9533 13.4188 23.0086 13.6507C22.0548 13.9179 20.7197 14.3693 19.4734 15.428C17.9628 16.7112 16.835 18.6438 16.124 21.484C15.69 23.2178 15.8224 24.8909 16.7117 26.2929C17.5645 27.6373 18.8721 28.3474 20.0115 28.72C22.2054 29.4376 24.7428 29.2314 26.0617 28.878C26.8866 28.657 27.6462 28.2396 28.1826 27.9354C28.35 27.8404 28.5037 27.7518 28.6485 27.6682L28.6486 27.6682C29.048 27.4377 29.3802 27.246 29.7491 27.0678C30.6722 26.6218 31.1656 26.5971 31.6558 26.8119C32.8692 27.3435 33.3658 27.7238 33.91 28.3095C34.3354 28.7673 34.7232 29.2685 35.2892 30.0002L35.2893 30.0002L35.2895 30.0005C35.7234 30.5614 36.2622 31.2578 37.003 32.1738C37.6709 32.9996 38.5483 33.6364 39.6298 33.9025C40.6928 34.1641 41.7067 34.0074 42.5631 33.6899C44.1823 33.0896 45.6143 31.7793 46.7617 30.4595C49.1212 27.7456 51.2648 23.8248 52.3951 20.718C53.9185 16.5307 51.841 12.8919 49.4404 10.8108C48.2224 9.75484 46.7805 8.9533 45.3437 8.55578C43.9938 8.18229 42.169 8.04749 40.6381 9.0583C39.9157 9.53526 39.5265 9.42258 39.384 9.36163C39.1698 9.27002 38.851 8.99339 38.6949 8.41089C38.629 8.16498 38.6026 7.90227 38.5564 7.44377L38.5564 7.44367C38.5338 7.21988 38.5066 6.94944 38.4678 6.61156C38.3717 5.77496 38.1986 4.58744 37.6421 3.46195C37.037 2.23809 36.0187 1.16339 34.4388 0.548864C32.953 -0.02902 31.1577 -0.127473 29.0577 0.145471ZM42.1124 36.0023L44.0923 36.2851L51.0923 37.2851L53.0722 37.568L52.7894 39.5479L51.7894 46.5479L51.5066 48.5278L47.5468 47.9621L47.8296 45.9822L48.1207 43.9446L38.0317 51.9317L42.8095 55.7142L61.918 40.5866L59.5267 40.2449L57.5468 39.9621L58.1124 36.0023L60.0923 36.2851L67.0923 37.2851L69.0722 37.568L68.7894 39.5479L67.7894 46.5479L67.5065 48.5278L63.5468 47.9621L63.8296 45.9822L64.1207 43.9446L44.0509 59.8331L42.8095 60.8159L41.5681 59.8331L34.8095 54.4826L28.0509 59.8331L26.8095 60.8159L25.5681 59.8331L1.56809 40.8331L0 39.5917L2.48281 36.4556L4.0509 37.697L26.8095 55.7142L31.5873 51.9317L17.5681 40.8331L16 39.5917L18.4828 36.4556L20.0509 37.697L34.8095 49.3808L45.918 40.5866L43.5267 40.2449L41.5468 39.9621L42.1124 36.0023Z" fill="#B01421"/>
</svg>
