<svg width="30" height="30" viewBox="0 0 30 30" fill="none" xmlns="http://www.w3.org/2000/svg">
<path d="M21.1832 18.7133H19.8823L19.4213 18.2687C21.035 16.3915 22.0065 13.9545 22.0065 11.3034C22.0065 5.39186 17.2148 0.600098 11.3033 0.600098C5.39177 0.600098 0.600006 5.39186 0.600006 11.3034C0.600006 17.2148 5.39177 22.0066 11.3033 22.0066C13.9544 22.0066 16.3914 21.0351 18.2686 19.4214L18.7132 19.8824V21.1833L26.9465 29.4001L29.4 26.9466L21.1832 18.7133ZM11.3033 18.7133C7.20309 18.7133 3.89332 15.4035 3.89332 11.3034C3.89332 7.20318 7.20309 3.89341 11.3033 3.89341C15.4034 3.89341 18.7132 7.20318 18.7132 11.3034C18.7132 15.4035 15.4034 18.7133 11.3033 18.7133Z" fill="white"/>
</svg>
