<svg width="31" height="30" viewBox="0 0 31 30" fill="none" xmlns="http://www.w3.org/2000/svg">
<path d="M14.1027 1.07489C14.6729 -0.358293 16.6149 -0.358297 17.185 1.07488L20.1088 8.42403C20.3492 9.02822 20.8927 9.44104 21.5166 9.49334L29.1057 10.1294C30.5857 10.2534 31.1858 12.1843 30.0582 13.1941L24.2761 18.3722C23.8008 18.7979 23.5932 19.4659 23.7384 20.1024L25.5049 27.8447C25.8494 29.3545 24.2783 30.5478 23.0112 29.7388L16.5139 25.5898C15.9798 25.2488 15.308 25.2488 14.7738 25.5898L8.27647 29.7388C7.00941 30.5478 5.4383 29.3545 5.7828 27.8447L7.54932 20.1024C7.69455 19.4659 7.48695 18.7979 7.0116 18.3722L1.2295 13.1941C0.101919 12.1843 0.702025 10.2534 2.182 10.1294L9.7711 9.49334C10.395 9.44104 10.9385 9.02822 11.1789 8.42403L14.1027 1.07489Z" fill="#FF9B05"/>
</svg>
