<svg width="118" height="118" viewBox="0 0 118 118" fill="none" xmlns="http://www.w3.org/2000/svg">
<path d="M59.3325 28.7191C42.6658 28.7191 29.3846 42.2608 29.3846 58.667C29.3846 75.3337 42.6658 88.6149 59.3325 88.6149C75.7387 88.6149 89.2804 75.3337 89.2804 58.667C89.2804 42.2608 75.7387 28.7191 59.3325 28.7191ZM59.3325 78.1982C48.6554 78.1982 39.8012 69.6045 39.8012 58.667C39.8012 47.9899 48.395 39.3962 59.3325 39.3962C70.0096 39.3962 78.6033 47.9899 78.6033 58.667C78.6033 69.6045 70.0096 78.1982 59.3325 78.1982ZM97.3533 27.6774C97.3533 23.7712 94.2283 20.6462 90.322 20.6462C86.4158 20.6462 83.2908 23.7712 83.2908 27.6774C83.2908 31.5837 86.4158 34.7087 90.322 34.7087C94.2283 34.7087 97.3533 31.5837 97.3533 27.6774ZM117.145 34.7087C116.624 25.3337 114.541 17.0003 107.77 10.2295C100.999 3.45867 92.6658 1.37534 83.2908 0.854509C73.6554 0.333675 44.7491 0.333675 35.1137 0.854509C25.7387 1.37534 17.6658 3.45867 10.6346 10.2295C3.86373 17.0003 1.7804 25.3337 1.25956 34.7087C0.738729 44.3441 0.738729 73.2503 1.25956 82.8857C1.7804 92.2607 3.86373 100.334 10.6346 107.365C17.6658 114.136 25.7387 116.219 35.1137 116.74C44.7491 117.261 73.6554 117.261 83.2908 116.74C92.6658 116.219 100.999 114.136 107.77 107.365C114.541 100.334 116.624 92.2607 117.145 82.8857C117.666 73.2503 117.666 44.3441 117.145 34.7087ZM104.645 93.042C102.822 98.2503 98.6554 102.157 93.7075 104.24C85.895 107.365 67.6658 106.584 59.3325 106.584C50.7387 106.584 32.5096 107.365 24.9575 104.24C19.7491 102.157 15.8429 98.2503 13.7596 93.042C10.6346 85.4899 11.4158 67.2607 11.4158 58.667C11.4158 50.3337 10.6346 32.1045 13.7596 24.292C15.8429 19.3441 19.7491 15.4378 24.9575 13.3545C32.5096 10.2295 50.7387 11.0108 59.3325 11.0108C67.6658 11.0108 85.895 10.2295 93.7075 13.3545C98.6554 15.1774 102.562 19.3441 104.645 24.292C107.77 32.1045 106.989 50.3337 106.989 58.667C106.989 67.2607 107.77 85.4899 104.645 93.042Z" fill="white"/>
</svg>
